<?xml version="1.0" encoding="UTF-8"?>
<!DOCTYPE svg  PUBLIC '-//W3C//DTD SVG 1.1//EN'  'http://www.w3.org/Graphics/SVG/1.1/DTD/svg11.dtd'>
<svg version="1.1" xmlns="http://www.w3.org/2000/svg">
<defs>
<font id="SuisseIntl-SemiBold" horiz-adv-x="0">
<font-face font-family="Suisse Intl SemiBold" font-weight="600" ascent="750" bbox="-226 -686 2813 1141" cap-height="725" descent="-250" panose-1="2 11 5 4 0 0 0 0 0 0" stemh="90" stemv="91" underline-position="-110" underline-thickness="70" unicode-range="U+0020-FEFC" units-per-em="1000" x-height="538"/>
<missing-glyph d="M0 0v725h500v-725h-500zM239 362l-220 334v-667zM260 362l221 -333v667zM250 346l-217 -327h433zM33 706l217 -328l216 328h-433z" horiz-adv-x="500"/>
<glyph d="M220 725v-725h-143v725h143zM473 725v-725h-143v725h143zM429 886h143v-113h-143v113zM204 886h143v-113h-143v113zM-21 886h143v-113h-143v113z" glyph-name="uni0407_uni0407" horiz-adv-x="550" unicode="ЇЇ"/>
<glyph d="M326 538h138v-538h-138v538zM69 538h138v-538h-138v538zM-29 725h115v-116h-115v116zM448 725h115v-116h-115v116zM209 725h115v-116h-115v116z" glyph-name="uni0457_uni0457" horiz-adv-x="533" unicode="її"/>
<glyph d="M353 775h125v-223c0 -52 -8 -100 -25 -144c-5 -14 -11 -28 -17 -41l60 -54c51 -47 77 -97 77 -148c0 -83 -53 -165 -188 -165h-315l-57 132c116 64 201 118 257 181c9 11 18 22 26 34l-270 243l4 10h149l163 -148c7 30 11 63 11 100v223zM282 191 c-29 -21 -61 -41 -94 -59h207c35 0 51 18 51 42s-18 55 -54 87l-17 15c-27 -31 -58 -60 -93 -85z" arabic-form="isolated" glyph-name="uniFEFB" horiz-adv-x="600" unicode="ﻟﺎ"/>
<glyph d="M453 725h126v-507c0 -60 23 -86 96 -86c7 0 10 -3 10 -10v-111c0 -7 -3 -11 -10 -11c-73 0 -129 18 -166 53l-3 2c-11 -5 -24 -10 -37 -15c-65 -24 -144 -40 -210 -40c-84 0 -172 11 -241 34v127c35 -10 73 -17 114 -22c29 -3 58 -6 87 -7v5c-1 19 -3 38 -6 57 c-8 56 -29 142 -90 406h130c56 -259 72 -337 80 -396c2 -14 3 -31 2 -51v-18c16 1 32 3 47 5c27 3 51 7 74 12c-2 14 -3 29 -3 45v528z" arabic-form="final" glyph-name="uniFEFC" horiz-adv-x="675" unicode="ﻠﺎ"/>
<glyph d="M353 775h125v-223c0 -52 -8 -100 -25 -144c-5 -14 -11 -28 -17 -41l60 -54c51 -47 77 -97 77 -148c0 -83 -53 -165 -188 -165h-315l-57 132c116 64 201 118 257 181c9 11 18 22 26 34l-270 243l4 10h149l163 -148c7 30 11 63 11 100v223zM282 191 c-29 -21 -61 -41 -94 -59h207c35 0 51 18 51 42s-18 55 -54 87l-17 15c-27 -31 -58 -60 -93 -85zM130 735h110l-20 -75h-167c-23 0 -40 -1 -75 -12v73c17 6 30 10 40 11l22 3c-15 14 -22 32 -22 54c0 52 43 92 97 92c36 0 66 -9 87 -20v-70c-32 12 -47 16 -66 16 c-25 0 -47 -15 -47 -39c0 -11 5 -19 14 -25c7 -5 16 -7 27 -8z" arabic-form="isolated" glyph-name="uniFEF7" horiz-adv-x="600" unicode="ﻟﺄ"/>
<glyph d="M453 725h126v-507c0 -60 23 -86 96 -86c7 0 10 -3 10 -10v-111c0 -7 -3 -11 -10 -11c-73 0 -129 18 -166 53l-3 2c-11 -5 -24 -10 -37 -15c-65 -24 -144 -40 -210 -40c-84 0 -172 11 -241 34v127c35 -10 73 -17 114 -22c29 -3 58 -6 87 -7v5c-1 19 -3 38 -6 57 c-8 56 -29 142 -90 406h130c56 -259 72 -337 80 -396c2 -14 3 -31 2 -51v-18c16 1 32 3 47 5c27 3 51 7 74 12c-2 14 -3 29 -3 45v528zM204 736h103l-20 -75h-167c-23 0 -40 -1 -75 -12v73c17 6 30 10 39 11l23 3c-15 14 -22 32 -22 54c0 52 43 92 97 92c36 0 66 -9 87 -20 v-70c-32 12 -47 16 -66 16c-25 0 -47 -15 -47 -39c0 -21 21 -33 48 -33z" arabic-form="final" glyph-name="uniFEF8" horiz-adv-x="675" unicode="ﻠﺄ"/>
<glyph d="M353 775h125v-223c0 -52 -8 -100 -25 -144c-5 -14 -11 -28 -17 -41l60 -54c51 -47 77 -97 77 -148c0 -83 -53 -165 -188 -165h-315l-57 132c116 64 201 118 257 181c9 11 18 22 26 34l-270 243l4 10h149l163 -148c7 30 11 63 11 100v223zM282 191 c-29 -21 -61 -41 -94 -59h207c35 0 51 18 51 42s-18 55 -54 87l-17 15c-27 -31 -58 -60 -93 -85zM337 -186h102l-20 -74h-167c-23 0 -40 -1 -75 -12v72c17 6 30 10 40 12c7 1 15 2 25 2l-8 9c-11 13 -16 29 -16 46c0 52 43 92 97 92c36 0 65 -9 86 -20v-70 c-32 12 -46 15 -65 15c-27 0 -47 -15 -47 -38c0 -21 21 -34 48 -34z" arabic-form="isolated" glyph-name="uniFEF9" horiz-adv-x="600" unicode="ﻟﺈ"/>
<glyph d="M453 725h126v-507c0 -60 23 -86 96 -86c7 0 10 -3 10 -10v-111c0 -7 -3 -11 -10 -11c-73 0 -129 18 -166 53l-3 2c-11 -5 -24 -10 -37 -15c-65 -24 -144 -40 -210 -40c-84 0 -172 11 -241 34v127c35 -10 73 -17 114 -22c29 -3 58 -6 87 -7v5c-1 19 -3 38 -6 57 c-8 56 -29 142 -90 406h130c56 -259 72 -337 80 -396c2 -14 3 -31 2 -51v-18c16 1 32 3 47 5c27 3 51 7 74 12c-2 14 -3 29 -3 45v528zM322 -187h102l-20 -74h-167c-23 0 -40 -1 -75 -12v72c17 6 30 10 39 12c7 1 16 2 25 2l-8 9c-10 13 -15 29 -15 46c0 52 43 92 97 92 c36 0 65 -9 86 -20v-70c-32 12 -46 15 -65 15c-27 0 -47 -15 -47 -38c0 -21 21 -34 48 -34z" arabic-form="final" glyph-name="uniFEFA" horiz-adv-x="675" unicode="ﻠﺈ"/>
<glyph d="M353 775h125v-223c0 -52 -8 -100 -25 -144c-5 -14 -11 -28 -17 -41l60 -54c51 -47 77 -97 77 -148c0 -83 -53 -165 -188 -165h-315l-57 132c116 64 201 118 257 181c9 11 18 22 26 34l-270 243l4 10h149l163 -148c7 30 11 63 11 100v223zM282 191 c-29 -21 -61 -41 -94 -59h207c35 0 51 18 51 42s-18 55 -54 87l-17 15c-27 -31 -58 -60 -93 -85zM72 773c44 0 86 -37 130 -37c20 0 57 9 80 26l-1 -83c-20 -15 -48 -25 -77 -25c-46 0 -81 37 -120 37c-28 0 -47 -14 -51 -39h-64c0 76 40 121 103 121z" arabic-form="isolated" glyph-name="uniFEF5" horiz-adv-x="600" unicode="ﻟﺂ"/>
<glyph d="M453 725h126v-507c0 -60 23 -86 96 -86c7 0 10 -3 10 -10v-111c0 -7 -3 -11 -10 -11c-73 0 -129 18 -166 53l-3 2c-11 -5 -24 -10 -37 -15c-65 -24 -144 -40 -210 -40c-84 0 -172 11 -241 34v127c35 -10 73 -17 114 -22c29 -3 58 -6 87 -7v5c-1 19 -3 38 -6 57 c-8 56 -29 142 -90 406h130c56 -259 72 -337 80 -396c2 -14 3 -31 2 -51v-18c16 1 32 3 47 5c27 3 51 7 74 12c-2 14 -3 29 -3 45v528zM144 776c44 0 86 -37 130 -37c20 0 57 9 80 26l-1 -83c-20 -15 -48 -25 -77 -25c-46 0 -81 37 -120 37c-28 0 -47 -14 -51 -39h-64 c0 76 40 121 103 121z" arabic-form="final" glyph-name="uniFEF6" horiz-adv-x="675" unicode="ﻠﺂ"/>
<glyph d="M353 775h125v-223c0 -52 -8 -100 -25 -144c-5 -14 -11 -28 -17 -41l60 -54c51 -47 77 -97 77 -148c0 -83 -53 -165 -188 -165h-315l-57 132c116 64 201 118 257 181c9 11 18 22 26 34l-270 243l4 10h149l163 -148c7 30 11 63 11 100v223zM282 191 c-29 -21 -61 -41 -94 -59h207c35 0 51 18 51 42s-18 55 -54 87l-17 15c-27 -31 -58 -60 -93 -85zM194 838c55 0 95 -40 95 -92c0 -65 -57 -103 -154 -103c-48 0 -104 11 -152 30l21 66c14 -5 27 -9 40 -12l32 38c44 52 81 73 118 73zM136 715c49 0 73 10 73 31 c0 13 -12 22 -28 22c-13 0 -29 -6 -46 -19c-10 -7 -22 -18 -37 -32c14 -1 27 -2 38 -2z" glyph-name="uniFEDF_uniFB51" horiz-adv-x="600" unicode="ﻟﭑ"/>
<glyph d="M453 725h126v-507c0 -60 23 -86 96 -86c7 0 10 -3 10 -10v-111c0 -7 -3 -11 -10 -11c-73 0 -129 18 -166 53l-3 2c-11 -5 -24 -10 -37 -15c-65 -24 -144 -40 -210 -40c-84 0 -172 11 -241 34v127c35 -10 73 -17 114 -22c29 -3 58 -6 87 -7v5c-1 19 -3 38 -6 57 c-8 56 -29 142 -90 406h130c56 -259 72 -337 80 -396c2 -14 3 -31 2 -51v-18c16 1 32 3 47 5c27 3 51 7 74 12c-2 14 -3 29 -3 45v528zM250 841c55 0 95 -40 95 -92c0 -65 -57 -103 -154 -103c-48 0 -104 11 -152 30l21 66c14 -5 27 -9 40 -12c11 14 22 27 32 38 c44 52 81 73 118 73zM192 718c49 0 73 10 73 31c0 13 -12 22 -28 22c-13 0 -29 -6 -46 -19c-11 -7 -23 -18 -38 -32c15 -1 28 -2 39 -2z" glyph-name="uniFEE0_uniFB51" horiz-adv-x="675" unicode="ﻠﭑ"/>
<glyph d="M665 725h126v-528c0 -61 -19 -109 -56 -144c-19 -18 -42 -31 -70 -40c-28 -71 -70 -126 -127 -165c-61 -42 -139 -63 -234 -63c-171 0 -276 98 -276 277c0 89 17 143 44 223h117c-27 -71 -43 -138 -43 -199c0 -119 59 -169 182 -169c63 0 115 12 158 37 c22 13 41 28 56 46l-48 2c-25 2 -51 5 -80 10l15 129c48 -6 95 -9 140 -9c73 0 96 26 96 86v507z" arabic-form="isolated" glyph-name="uniFC43" horiz-adv-x="868" unicode="ﻟﻰ"/>
<glyph d="M667 725h126v-507c0 -60 23 -86 96 -86c7 0 10 -3 10 -10v-111c0 -7 -3 -11 -10 -11c-73 0 -129 18 -166 53l-8 7l-5 -4c-12 -11 -25 -21 -39 -30l-1 -1c-28 -77 -72 -136 -132 -177c-61 -42 -139 -63 -234 -63c-171 0 -276 98 -276 277c0 89 17 143 44 223h117 c-27 -71 -43 -138 -43 -199c0 -119 59 -169 182 -169c63 0 115 12 158 37c22 13 41 28 56 46l-48 2c-25 2 -51 5 -80 10l15 129c48 -6 95 -9 140 -9c25 0 48 4 69 11c11 5 22 10 31 16c-1 12 -2 25 -2 38v528z" arabic-form="final" glyph-name="uniFC86" horiz-adv-x="889" unicode="ﻠﻰ"/>
<glyph d="M78 725h126v-507c0 -60 23 -86 96 -86c7 0 10 -3 10 -10v-111c0 -7 -3 -11 -10 -11c-147 0 -222 76 -222 197v528z" arabic-form="final" glyph-name="uniFE8E" horiz-adv-x="300" unicode="ا"/>
<glyph d="M78 600h126v-382c0 -60 24 -86 96 -86c7 0 10 -3 10 -10v-111c0 -7 -3 -11 -10 -11c-147 0 -222 76 -222 197v403zM159 730h110l-20 -75h-167c-23 0 -40 -1 -75 -12v73c17 6 30 10 40 11l22 3c-15 14 -22 32 -22 54c0 52 43 92 97 92c36 0 66 -9 87 -20v-70 c-32 12 -47 16 -66 16c-25 0 -47 -15 -47 -39c0 -11 5 -19 14 -25c7 -5 16 -7 27 -8z" arabic-form="final" glyph-name="uniFE84" horiz-adv-x="300" unicode="أ"/>
<glyph d="M78 725h126v-507c0 -60 23 -86 96 -86c7 0 10 -3 10 -10v-111c0 -7 -3 -11 -10 -11c-147 0 -222 76 -222 197v528zM167 -190h102l-20 -74h-167c-23 0 -40 -1 -75 -12v72c17 6 30 10 40 12c7 1 15 2 25 2l-8 9c-11 13 -16 29 -16 46c0 52 43 92 97 92c36 0 65 -9 86 -20 v-70c-32 12 -46 15 -65 15c-27 0 -47 -15 -47 -38c0 -21 21 -34 48 -34z" arabic-form="final" glyph-name="uniFE88" horiz-adv-x="300" unicode="إ"/>
<glyph d="M78 600h126v-382c0 -60 24 -86 96 -86c7 0 10 -3 10 -10v-111c0 -7 -3 -11 -10 -11c-147 0 -222 76 -222 197v403zM75 764c44 0 86 -37 130 -37c20 0 57 9 80 26l-1 -83c-20 -15 -48 -25 -77 -25c-46 0 -81 37 -120 37c-28 0 -47 -14 -51 -39h-64c0 76 40 121 103 121z " arabic-form="final" glyph-name="uniFE82" horiz-adv-x="300" unicode="آ"/>
<glyph d="M78 600h126v-382c0 -60 24 -86 96 -86c7 0 10 -3 10 -10v-111c0 -7 -3 -11 -10 -11c-147 0 -222 76 -222 197v403zM191 820c55 0 95 -40 95 -92c0 -65 -57 -103 -154 -103c-48 0 -104 11 -152 30l21 66c14 -5 27 -9 40 -12l32 38c44 52 81 73 118 73zM133 697 c49 0 73 10 73 31c0 13 -12 22 -28 22c-13 0 -29 -6 -46 -19c-10 -7 -22 -18 -37 -32c14 -1 27 -2 38 -2z" arabic-form="final" glyph-name="uniFB51" horiz-adv-x="300" unicode="ٱ"/>
<glyph d="M67 485h125c21 -145 30 -221 30 -288c0 -121 -75 -197 -222 -197c-7 0 -10 4 -10 11v111c0 7 3 10 10 10c73 0 97 26 97 86c0 56 -9 125 -30 267z" glyph-name="uni066E.init" horiz-adv-x="270" unicode="ٮ"/>
<glyph d="M109 370h116c0 -59 -3 -110 -10 -154c-3 -21 -8 -41 -13 -60c13 -7 27 -12 40 -15c23 -6 46 -9 69 -9c7 0 10 -3 10 -10v-111c0 -7 -3 -11 -10 -11c-37 0 -72 8 -103 25c-18 9 -36 22 -54 38c-13 -15 -27 -27 -43 -36c-29 -18 -66 -27 -111 -27c-7 0 -10 4 -10 11v111 c0 7 3 10 10 10c45 0 71 14 87 47c17 36 22 95 22 191z" glyph-name="uni066E.medi" horiz-adv-x="311" unicode="ٮ"/>
<glyph d="M636 370h116c0 -59 -3 -110 -10 -154c-3 -21 -8 -41 -13 -60c13 -7 27 -12 40 -15c23 -6 46 -9 69 -9c7 0 10 -3 10 -10v-111c0 -7 -3 -11 -10 -11c-37 0 -72 8 -103 25c-18 9 -36 22 -54 38c-13 -15 -27 -27 -43 -36c-23 -15 -51 -23 -84 -26c-1 -1 -3 -1 -5 -1h-12h-10 h-3h-234c-171 0 -263 88 -263 245c0 44 9 114 25 195h117c-12 -64 -19 -123 -19 -162c0 -101 38 -146 170 -146h217c18 1 33 4 44 11c14 7 25 19 33 36c17 36 22 95 22 191z" glyph-name="uni066E.fina" horiz-adv-x="838" unicode="ٮ"/>
<glyph d="M636 370h116c0 -59 -3 -110 -10 -154c-3 -21 -8 -41 -13 -60c13 -7 27 -12 40 -15c23 -6 46 -9 69 -9c7 0 10 -3 10 -10v-111c0 -7 -3 -11 -10 -11c-37 0 -72 8 -103 25c-18 9 -36 22 -54 38c-13 -15 -27 -27 -43 -36c-23 -15 -51 -23 -84 -26c-1 -1 -3 -1 -5 -1h-22h-3 h-234c-171 0 -263 88 -263 245c0 44 9 114 25 195h117c-12 -64 -19 -123 -19 -162c0 -101 38 -146 170 -146h217c18 1 33 4 44 11c14 7 25 19 33 36c17 36 22 95 22 191zM334 -147l93 93l94 -93l-93 -93z" arabic-form="final" glyph-name="uniFE90" horiz-adv-x="838" unicode="ب"/>
<glyph d="M109 370h116c0 -59 -3 -110 -10 -154c-3 -21 -8 -41 -13 -60c13 -7 27 -12 40 -15c23 -6 46 -9 69 -9c7 0 10 -3 10 -10v-111c0 -7 -3 -11 -10 -11c-37 0 -72 8 -103 25c-18 9 -36 22 -54 38c-13 -15 -27 -27 -43 -36c-29 -18 -66 -27 -111 -27c-7 0 -10 4 -10 11v111 c0 7 3 10 10 10c45 0 71 14 87 47c17 36 22 95 22 191zM60 -153l93 93l94 -93l-93 -93z" arabic-form="medial" glyph-name="uniFE92" horiz-adv-x="311" unicode="ب"/>
<glyph d="M67 485h125c21 -145 30 -221 30 -288c0 -121 -75 -197 -222 -197c-7 0 -10 4 -10 11v111c0 7 3 10 10 10c73 0 97 26 97 86c0 56 -9 125 -30 267zM16 -152l93 93l94 -93l-93 -93z" arabic-form="initial" glyph-name="uniFE91" horiz-adv-x="270" unicode="ب"/>
<glyph d="M636 370h116c0 -59 -3 -110 -10 -154c-3 -21 -8 -41 -13 -60c13 -7 27 -12 40 -15c23 -6 46 -9 69 -9c7 0 10 -3 10 -10v-111c0 -7 -3 -11 -10 -11c-37 0 -72 8 -103 25c-18 9 -36 22 -54 38c-13 -15 -27 -27 -43 -36c-23 -15 -51 -23 -84 -26c-1 -1 -3 -1 -5 -1h-259 c-171 0 -263 88 -263 245c0 44 9 114 25 195h117c-12 -64 -19 -123 -19 -162c0 -101 38 -146 170 -146h207c45 0 71 14 87 47c17 36 22 95 22 191zM267 -158l93 94l81 -79l79 79l94 -94l-93 -93l-80 78l-79 -78zM371 -290l70 71l71 -71l-70 -70z" arabic-form="final" glyph-name="uniFB57" horiz-adv-x="838" unicode="پ"/>
<glyph d="M139 370h117c0 -54 -3 -103 -8 -146c-3 -19 -6 -36 -10 -52c19 -11 39 -21 61 -28c27 -8 52 -12 76 -12c7 0 10 -3 10 -10v-111c0 -7 -3 -11 -10 -11c-38 0 -75 10 -111 29c-23 13 -46 29 -67 49c-16 -21 -36 -37 -60 -50c-35 -19 -80 -28 -137 -28c-7 0 -10 4 -10 11 v111c0 7 3 10 10 10c59 0 94 14 113 45c24 39 26 101 26 193zM-1 -154l93 94l81 -79l79 79l94 -94l-93 -93l-80 78l-79 -78zM103 -286l70 71l71 -71l-70 -70z" arabic-form="medial" glyph-name="uniFB59" horiz-adv-x="375" unicode="پ"/>
<glyph d="M148 485h126c21 -144 30 -221 30 -288c0 -121 -75 -197 -222 -197h-82c-7 0 -10 4 -10 11v111c0 7 3 10 10 10h82c73 0 96 26 96 86c0 56 -9 125 -30 267zM-36 -151l93 94l81 -79l79 79l94 -94l-93 -93l-80 78l-79 -78zM68 -283l70 71l71 -71l-70 -70z" arabic-form="initial" glyph-name="uniFB58" horiz-adv-x="348" unicode="پ"/>
<glyph d="M636 370h116c0 -59 -3 -110 -10 -154c-3 -21 -8 -41 -13 -60c13 -7 27 -12 40 -15c23 -6 46 -9 69 -9c7 0 10 -3 10 -10v-111c0 -7 -3 -11 -10 -11c-37 0 -72 8 -103 25c-18 9 -36 22 -54 38c-13 -15 -27 -27 -43 -36c-23 -15 -51 -23 -84 -26c-1 -1 -3 -1 -5 -1h-12h-10 h-237c-171 0 -263 88 -263 245c0 44 9 114 25 195h117c-12 -64 -19 -123 -19 -162c0 -101 38 -146 170 -146h204h3h10c18 1 33 4 44 11c14 7 25 19 33 36c17 36 22 95 22 191zM274 535l93 94l77 -75l75 75l94 -94l-92 -93l-77 74l-76 -74z" arabic-form="final" glyph-name="uniFE96" horiz-adv-x="838" unicode="ت"/>
<glyph d="M139 370h117c0 -54 -3 -103 -8 -146c-3 -19 -6 -36 -10 -52c19 -11 39 -21 61 -28c27 -8 52 -12 76 -12c7 0 10 -3 10 -10v-111c0 -7 -3 -11 -10 -11c-38 0 -75 10 -111 29c-23 13 -46 29 -67 49c-16 -21 -36 -37 -60 -50c-35 -19 -80 -28 -137 -28c-7 0 -10 4 -10 11 v111c0 7 3 10 10 10c59 0 94 14 113 45c24 39 26 101 26 193zM27 535l93 94l77 -75l75 75l94 -94l-92 -93l-77 74l-76 -74z" arabic-form="medial" glyph-name="uniFE98" horiz-adv-x="375" unicode="ت"/>
<glyph d="M148 485h126c21 -144 30 -221 30 -288c0 -121 -75 -197 -222 -197h-82c-7 0 -10 4 -10 11v111c0 7 3 10 10 10h82c73 0 96 26 96 86c0 56 -9 125 -30 267zM29 643l93 94l77 -75l75 75l94 -94l-92 -93l-77 74l-76 -74z" arabic-form="initial" glyph-name="uniFE97" horiz-adv-x="387" unicode="ت"/>
<glyph d="M636 370h116c0 -59 -3 -110 -10 -154c-3 -21 -8 -41 -13 -60c13 -7 27 -12 40 -15c23 -6 46 -9 69 -9c7 0 10 -3 10 -10v-111c0 -7 -3 -11 -10 -11c-37 0 -72 8 -103 25c-18 9 -36 22 -54 38c-13 -15 -27 -27 -43 -36c-23 -15 -51 -23 -84 -26c-1 -1 -3 -1 -5 -1h-259 c-171 0 -263 88 -263 245c0 44 9 114 25 195h117c-12 -64 -19 -123 -19 -162c0 -101 38 -146 170 -146h217c18 1 33 4 44 11c14 7 25 19 33 36c17 36 22 95 22 191zM260 534l93 93l79 -78l80 78l94 -93l-93 -94l-81 78l-78 -78zM363 667l69 71l71 -71l-70 -70z" arabic-form="final" glyph-name="uniFE9A" horiz-adv-x="838" unicode="ث"/>
<glyph d="M139 370h117c0 -54 -3 -103 -8 -146c-3 -19 -6 -36 -10 -52c19 -11 39 -21 61 -28c27 -8 52 -12 76 -12c7 0 10 -3 10 -10v-111c0 -7 -3 -11 -10 -11c-38 0 -75 10 -111 29c-23 13 -46 29 -67 49c-16 -21 -36 -37 -60 -50c-35 -19 -80 -28 -137 -28c-7 0 -10 4 -10 11 v111c0 7 3 10 10 10c59 0 94 14 113 45c24 39 26 101 26 193zM16 536l93 93l79 -78l80 78l94 -93l-93 -94l-81 78l-78 -78zM119 669l69 71l71 -71l-70 -70z" arabic-form="medial" glyph-name="uniFE9C" horiz-adv-x="375" unicode="ث"/>
<glyph d="M148 485h126c21 -144 30 -221 30 -288c0 -121 -75 -197 -222 -197h-82c-7 0 -10 4 -10 11v111c0 7 3 10 10 10h82c73 0 96 26 96 86c0 56 -9 125 -30 267zM27 641l93 93l79 -78l80 78l94 -93l-93 -94l-81 78l-78 -78zM130 774l69 71l71 -71l-70 -70z" arabic-form="initial" glyph-name="uniFE9B" horiz-adv-x="392" unicode="ث"/>
<glyph d="M636 370h116c0 -59 -3 -110 -10 -154c-3 -21 -8 -41 -13 -60c13 -7 27 -12 40 -15c23 -6 46 -9 69 -9c7 0 10 -3 10 -10v-111c0 -7 -3 -11 -10 -11c-37 0 -72 8 -103 25c-18 9 -36 22 -54 38c-13 -15 -27 -27 -43 -36c-23 -15 -51 -23 -84 -26c-1 -1 -3 -1 -5 -1h-12h-10 h-3h-234c-171 0 -263 88 -263 245c0 44 9 114 25 195h117c-12 -64 -19 -123 -19 -162c0 -101 38 -146 170 -146h204h3h10c18 1 33 4 44 11c14 7 25 19 33 36c17 36 22 95 22 191zM347 670h63v-98c13 15 26 28 39 37c29 22 54 33 77 33c61 0 101 -45 101 -96 c0 -65 -69 -106 -177 -106h-130l-36 68h63v162zM409 508h41c60 0 97 10 97 38c0 17 -15 28 -35 28c-25 0 -47 -15 -89 -53z" arabic-form="final" glyph-name="uniFB67" horiz-adv-x="838" unicode="ٹ"/>
<glyph d="M139 370h117c0 -54 -3 -103 -8 -146c-3 -19 -6 -36 -10 -52c19 -11 39 -21 61 -28c27 -8 52 -12 76 -12c7 0 10 -3 10 -10v-111c0 -7 -3 -11 -10 -11c-38 0 -75 10 -111 29c-23 13 -46 29 -67 49c-16 -21 -36 -37 -60 -50c-35 -19 -80 -28 -137 -28c-7 0 -10 4 -10 11 v111c0 7 3 10 10 10c59 0 94 14 113 45c24 39 26 101 26 193zM84 671h63v-98c14 15 27 28 39 37c29 22 54 33 77 33c61 0 101 -45 101 -96c0 -65 -69 -106 -177 -106h-130l-36 68h63v162zM147 509h40c60 0 97 10 97 38c0 17 -15 28 -35 28c-25 0 -48 -15 -88 -53z" arabic-form="medial" glyph-name="uniFB69" horiz-adv-x="375" unicode="ٹ"/>
<glyph d="M148 485h126c21 -144 30 -221 30 -288c0 -121 -75 -197 -222 -197h-82c-7 0 -10 4 -10 11v111c0 7 3 10 10 10h82c73 0 96 26 96 86c0 56 -9 125 -30 267zM85 768h63v-98c14 15 27 28 39 37c29 22 54 33 77 33c61 0 101 -45 101 -96c0 -65 -69 -106 -177 -106h-130 l-36 68h63v162zM148 606h40c60 0 97 10 97 38c0 17 -15 28 -35 28c-25 0 -48 -15 -88 -53z" arabic-form="initial" glyph-name="uniFB68" horiz-adv-x="383" unicode="ٹ"/>
<glyph d="M192 538c148 0 239 -165 417 -205l-36 -128c-13 0 -26 -1 -40 -2c1 -24 11 -42 30 -53c21 -12 50 -18 88 -18c7 0 10 -3 10 -10v-111c0 -7 -3 -11 -10 -11c-124 0 -190 53 -190 172v22c-21 -3 -41 -8 -62 -14c-125 -32 -247 -98 -247 -196c0 -81 59 -128 170 -128 c67 0 130 9 229 38v-122c-100 -33 -169 -47 -236 -47c-183 0 -287 86 -287 238c0 156 126 252 285 297c37 11 74 20 112 27c-14 7 -27 15 -40 23c-76 50 -132 98 -205 98c-37 0 -73 -8 -116 -24v118c36 23 85 36 128 36zM265 11l93 93l94 -93l-93 -93z" arabic-form="final" glyph-name="uniFE9E" horiz-adv-x="651" unicode="ج"/>
<glyph d="M189 492c147 0 222 -145 400 -188l-36 -128l-30 -5c4 -7 9 -12 14 -17c17 -15 49 -22 94 -22c7 0 10 -3 10 -10v-111c0 -7 -3 -11 -10 -11c-62 0 -109 15 -142 45c-26 24 -41 58 -46 101c-24 -10 -46 -21 -66 -33c-91 -51 -160 -113 -376 -113c-7 0 -11 4 -11 11v111 c0 7 4 10 11 10c190 0 277 44 367 84c19 9 40 18 63 27c-21 10 -41 20 -58 31c-71 46 -123 88 -195 88c-37 0 -73 -9 -116 -24v117c36 23 84 37 127 37zM156 -153l93 93l94 -93l-93 -93z" arabic-form="medial" glyph-name="uniFEA0" horiz-adv-x="631" unicode="ج"/>
<glyph d="M189 492c147 0 222 -145 400 -188l-36 -128c-237 -36 -228 -176 -552 -176c-7 0 -11 4 -11 11v111c0 7 4 10 11 10c190 0 277 44 367 84c19 9 40 18 63 27c-21 10 -41 20 -58 31c-71 46 -123 88 -195 88c-37 0 -73 -9 -116 -24v117c36 23 84 37 127 37zM153 -152l93 93 l94 -93l-93 -93z" arabic-form="initial" glyph-name="uniFE9F" horiz-adv-x="606" unicode="ج"/>
<glyph d="M199 538c148 0 239 -165 417 -205l-36 -128c-15 0 -30 -1 -46 -2c1 -24 11 -42 30 -53c20 -12 49 -18 87 -18c7 0 10 -3 10 -10v-111c0 -7 -3 -11 -10 -11c-123 0 -192 50 -192 169v24c-20 -4 -40 -9 -61 -14c-124 -35 -240 -103 -240 -202c0 -52 18 -93 77 -154 l-119 -44c-52 60 -81 121 -81 184c0 156 126 252 285 297c37 11 74 20 112 27c-14 7 -27 15 -40 23c-76 50 -132 98 -205 98c-37 0 -73 -8 -116 -24v118c36 23 85 36 128 36zM277 -155l93 94l81 -79l79 79l94 -94l-93 -93l-80 78l-79 -78zM381 -287l70 71l71 -71l-70 -70z " arabic-form="final" glyph-name="uniFB7B" horiz-adv-x="651" unicode="چ"/>
<glyph d="M189 492c147 0 222 -145 400 -188l-36 -128l-30 -5c4 -7 9 -12 14 -17c17 -15 49 -22 94 -22c7 0 10 -3 10 -10v-111c0 -7 -3 -11 -10 -11c-62 0 -109 15 -142 45c-26 24 -41 58 -46 101c-24 -10 -46 -21 -66 -33c-91 -51 -160 -113 -376 -113c-7 0 -11 4 -11 11v111 c0 7 4 10 11 10c190 0 277 44 367 84c19 9 40 18 63 27c-21 10 -41 20 -58 31c-71 46 -123 88 -195 88c-37 0 -73 -9 -116 -24v117c36 23 84 37 127 37zM109 -155l93 94l81 -79l79 79l94 -94l-93 -93l-80 78l-79 -78zM213 -287l70 71l71 -71l-70 -70z" arabic-form="medial" glyph-name="uniFB7D" horiz-adv-x="631" unicode="چ"/>
<glyph d="M189 492c147 0 222 -145 400 -188l-36 -128c-237 -36 -228 -176 -552 -176c-7 0 -11 4 -11 11v111c0 7 4 10 11 10c190 0 277 44 367 84c19 9 40 18 63 27c-21 10 -41 20 -58 31c-71 46 -123 88 -195 88c-37 0 -73 -9 -116 -24v117c36 23 84 37 127 37zM109 -155l93 94 l81 -79l79 79l94 -94l-93 -93l-80 78l-79 -78zM213 -287l70 71l71 -71l-70 -70z" arabic-form="initial" glyph-name="uniFB7C" horiz-adv-x="606" unicode="چ"/>
<glyph d="M192 538c148 0 239 -165 417 -205l-36 -128c-13 0 -26 -1 -40 -2c1 -24 11 -42 30 -53c21 -12 50 -18 88 -18c7 0 10 -3 10 -10v-111c0 -7 -3 -11 -10 -11c-124 0 -190 53 -190 172v22c-21 -3 -41 -8 -62 -14c-125 -32 -247 -98 -247 -196c0 -81 59 -128 170 -128 c67 0 130 9 229 38v-122c-100 -33 -169 -47 -236 -47c-183 0 -287 86 -287 238c0 156 126 252 285 297c37 11 74 20 112 27c-14 7 -27 15 -40 23c-76 50 -132 98 -205 98c-37 0 -73 -8 -116 -24v118c36 23 85 36 128 36z" arabic-form="final" glyph-name="uniFEA2" horiz-adv-x="651" unicode="ح"/>
<glyph d="M189 492c147 0 222 -145 400 -188l-36 -128l-30 -5c4 -7 9 -12 14 -17c17 -15 49 -22 94 -22c7 0 10 -3 10 -10v-111c0 -7 -3 -11 -10 -11c-62 0 -109 15 -142 45c-26 24 -41 58 -46 101c-24 -10 -46 -21 -66 -33c-91 -51 -160 -113 -376 -113c-7 0 -11 4 -11 11v111 c0 7 4 10 11 10c190 0 277 44 367 84c19 9 40 18 63 27c-21 10 -41 20 -58 31c-71 46 -123 88 -195 88c-37 0 -73 -9 -116 -24v117c36 23 84 37 127 37z" arabic-form="medial" glyph-name="uniFEA4" horiz-adv-x="631" unicode="ح"/>
<glyph d="M189 492c147 0 222 -145 400 -188l-36 -128c-237 -36 -228 -176 -552 -176c-7 0 -11 4 -11 11v111c0 7 4 10 11 10c190 0 277 44 367 84c19 9 40 18 63 27c-21 10 -41 20 -58 31c-71 46 -123 88 -195 88c-37 0 -73 -9 -116 -24v117c36 23 84 37 127 37z" arabic-form="initial" glyph-name="uniFEA3" horiz-adv-x="606" unicode="ح"/>
<glyph d="M192 538c148 0 239 -165 417 -205l-36 -128c-13 0 -26 -1 -40 -2c1 -24 11 -42 30 -53c21 -12 50 -18 88 -18c7 0 10 -3 10 -10v-111c0 -7 -3 -11 -10 -11c-124 0 -190 53 -190 172v22c-21 -3 -41 -8 -62 -14c-125 -32 -247 -98 -247 -196c0 -81 59 -128 170 -128 c67 0 130 9 229 38v-122c-100 -33 -169 -47 -236 -47c-183 0 -287 86 -287 238c0 156 126 252 285 297c37 11 74 20 112 27c-14 7 -27 15 -40 23c-76 50 -132 98 -205 98c-37 0 -73 -8 -116 -24v118c36 23 85 36 128 36zM332 633l93 93l94 -93l-93 -93z" arabic-form="final" glyph-name="uniFEA6" horiz-adv-x="651" unicode="خ"/>
<glyph d="M189 492c147 0 222 -145 400 -188l-36 -128l-30 -5c4 -7 9 -12 14 -17c17 -15 49 -22 94 -22c7 0 10 -3 10 -10v-111c0 -7 -3 -11 -10 -11c-62 0 -109 15 -142 45c-26 24 -41 58 -46 101c-24 -10 -46 -21 -66 -33c-91 -51 -160 -113 -376 -113c-7 0 -11 4 -11 11v111 c0 7 4 10 11 10c190 0 277 44 367 84c19 9 40 18 63 27c-21 10 -41 20 -58 31c-71 46 -123 88 -195 88c-37 0 -73 -9 -116 -24v117c36 23 84 37 127 37zM160 647l93 93l94 -93l-93 -93z" arabic-form="medial" glyph-name="uniFEA8" horiz-adv-x="631" unicode="خ"/>
<glyph d="M189 492c147 0 222 -145 400 -188l-36 -128c-237 -36 -228 -176 -552 -176c-7 0 -11 4 -11 11v111c0 7 4 10 11 10c190 0 277 44 367 84c19 9 40 18 63 27c-21 10 -41 20 -58 31c-71 46 -123 88 -195 88c-37 0 -73 -9 -116 -24v117c36 23 84 37 127 37zM160 647l93 93 l94 -93l-93 -93z" arabic-form="initial" glyph-name="uniFEA7" horiz-adv-x="606" unicode="خ"/>
<glyph d="M8 34v127c83 -24 126 -29 181 -29c29 0 56 2 80 5c11 1 23 3 36 6c-5 9 -9 20 -12 31c-25 73 -50 186 -73 311h130c16 -101 30 -199 53 -267c18 -57 53 -86 106 -86c7 0 10 -3 10 -10v-111c0 -7 -3 -11 -10 -11c-58 0 -106 18 -144 54c-55 -36 -115 -54 -181 -54 c-67 0 -99 7 -176 34z" arabic-form="final" glyph-name="uniFEAA" horiz-adv-x="509" unicode="د"/>
<glyph d="M8 34v127c83 -24 126 -29 181 -29c29 0 56 2 80 5c11 1 23 3 36 6c-5 9 -9 20 -12 31c-25 73 -50 186 -73 311h130c16 -101 30 -199 53 -267c18 -57 53 -86 106 -86c7 0 10 -3 10 -10v-111c0 -7 -3 -11 -10 -11c-58 0 -106 18 -144 54c-55 -36 -115 -54 -181 -54 c-67 0 -99 7 -176 34zM190 639l93 93l94 -93l-93 -93z" arabic-form="final" glyph-name="uniFEAC" horiz-adv-x="509" unicode="ذ"/>
<glyph d="M8 34v127c83 -24 126 -29 181 -29c29 0 56 2 80 5c11 1 23 3 36 6c-5 9 -9 20 -12 31c-25 73 -50 186 -73 311h130c16 -101 30 -199 53 -267c18 -57 53 -86 106 -86c7 0 10 -3 10 -10v-111c0 -7 -3 -11 -10 -11c-58 0 -106 18 -144 54c-55 -36 -115 -54 -181 -54 c-67 0 -99 7 -176 34zM152 768h63v-98c14 15 27 28 39 37c29 22 54 33 77 33c61 0 101 -45 101 -96c0 -65 -69 -106 -177 -106h-130l-36 68h63v162zM215 606h40c60 0 97 10 97 38c0 17 -15 28 -35 28c-25 0 -48 -15 -88 -53z" arabic-form="final" glyph-name="uniFB89" horiz-adv-x="509" unicode="ڈ"/>
<glyph d="M102 440h125c9 -61 18 -131 23 -203l3 -43v-3c4 -23 15 -38 32 -46c18 -9 41 -13 69 -13c7 0 10 -3 10 -10v-111c0 -7 -3 -11 -10 -11c-42 0 -73 11 -92 34l-3 3v-15c0 -157 -98 -237 -267 -237v114c87 0 146 40 146 131c0 121 -17 253 -36 410z" arabic-form="final" glyph-name="uniFEAE" horiz-adv-x="355" unicode="ر"/>
<glyph d="M102 440h125c9 -61 18 -131 23 -203l3 -44c7 -47 45 -61 101 -61c7 0 10 -3 10 -10v-111c0 -7 -3 -11 -10 -11c-42 0 -73 11 -92 34l-3 3v-15c0 -157 -98 -237 -267 -237v114c87 0 146 40 146 131c0 121 -17 253 -36 410zM62 600l93 93l94 -93l-93 -93z" arabic-form="final" glyph-name="uniFEB0" horiz-adv-x="355" unicode="ز"/>
<glyph d="M102 440h125c9 -61 18 -131 23 -203l3 -43v-1v-2c4 -23 15 -38 32 -46c18 -9 41 -13 69 -13c7 0 10 -3 10 -10v-111c0 -7 -3 -11 -10 -11c-42 0 -73 11 -92 34l-3 3v-15c0 -157 -98 -237 -267 -237v114c87 0 146 40 146 131c0 121 -17 253 -36 410zM58 725h63v-98 c13 15 26 28 39 37c29 22 54 33 77 33c61 0 101 -45 101 -96c0 -65 -69 -106 -177 -106h-130l-36 68h63v162zM120 563h41c60 0 97 10 97 38c0 17 -15 28 -35 28c-25 0 -47 -15 -89 -53z" arabic-form="final" glyph-name="uniFB8D" horiz-adv-x="355" unicode="ڑ"/>
<glyph d="M102 440h125c9 -61 18 -131 23 -203l3 -46c4 -23 15 -38 32 -46c18 -9 41 -13 69 -13c7 0 10 -3 10 -10v-111c0 -7 -3 -11 -10 -11c-42 0 -73 11 -92 34l-3 3v-15c0 -157 -98 -237 -267 -237v114c87 0 146 40 146 131c0 121 -17 253 -36 410zM-14 602l93 93l79 -78l80 78 l94 -93l-93 -94l-81 78l-78 -78zM89 735l69 71l71 -71l-70 -70z" arabic-form="final" glyph-name="uniFB8B" horiz-adv-x="355" unicode="ژ"/>
<glyph d="M435 440h126c16 -110 29 -192 33 -269l1 -14c13 -7 27 -12 42 -16c23 -6 44 -9 64 -9c45 0 72 14 87 47c17 36 22 95 22 191h117c0 -59 -3 -110 -10 -154c-3 -22 -8 -43 -14 -62c11 -5 23 -10 36 -13c23 -6 44 -9 64 -9c45 0 72 14 87 47c17 36 22 95 22 191v70h117v-70 c0 -59 -3 -110 -10 -154c-3 -19 -7 -38 -12 -55c17 -9 33 -16 49 -20c23 -6 46 -9 69 -9c7 0 10 -3 10 -10v-111c0 -7 -3 -11 -10 -11c-37 0 -72 8 -103 25c-20 11 -40 25 -60 43c-13 -17 -28 -30 -45 -41c-28 -18 -63 -27 -105 -27c-28 0 -56 6 -83 19 c-21 10 -45 24 -74 43c-11 -14 -25 -26 -40 -35c-28 -18 -63 -27 -105 -27c-28 0 -56 6 -83 19c-11 5 -22 11 -34 18c-3 -24 -9 -46 -16 -67c-38 -115 -136 -185 -283 -185c-171 0 -266 97 -266 277c0 89 17 143 44 223h117c-27 -71 -43 -138 -43 -199 c0 -99 45 -169 153 -169c117 0 175 62 175 186c0 82 -15 175 -39 337z" arabic-form="final" glyph-name="uniFEB2" horiz-adv-x="1325" unicode="س"/>
<glyph d="M98 370h117c0 -87 -8 -157 -24 -212c13 -7 28 -13 43 -17c23 -6 44 -9 64 -9c45 0 72 14 87 47c17 36 22 95 22 191h117c0 -59 -3 -110 -10 -154c-3 -22 -8 -43 -14 -62c11 -5 23 -10 35 -13c23 -6 44 -9 64 -9c45 0 72 14 87 47c17 36 22 95 22 191v70h117v-70 c0 -59 -3 -110 -10 -154c-3 -19 -7 -38 -12 -55c17 -9 34 -16 50 -20c23 -6 46 -9 69 -9c7 0 10 -3 10 -10v-111c0 -7 -3 -11 -10 -11c-37 0 -72 8 -103 25c-20 11 -40 25 -60 43c-13 -17 -29 -30 -46 -41c-28 -18 -63 -27 -105 -27c-28 0 -56 6 -83 19c-21 9 -45 23 -73 42 c-12 -13 -25 -25 -40 -34c-28 -18 -63 -27 -105 -27c-28 0 -56 6 -83 19c-22 10 -48 25 -77 45c-12 -15 -26 -27 -42 -37c-29 -18 -64 -27 -105 -27c-7 0 -10 4 -10 11v111c0 7 3 10 10 10c37 0 63 16 76 47c17 36 22 95 22 191z" arabic-form="medial" glyph-name="uniFEB4" horiz-adv-x="922" unicode="س"/>
<glyph d="M98 370h117c0 -87 -8 -157 -24 -212c13 -7 28 -13 43 -17c23 -6 44 -9 64 -9c45 0 72 14 87 47c17 36 22 95 22 191h117c0 -59 -3 -110 -10 -154c-3 -22 -8 -43 -14 -62c13 -5 26 -10 37 -13c23 -6 46 -9 69 -9c67 0 96 26 96 83c0 51 -6 106 -30 270h126 c21 -140 30 -227 30 -291c0 -114 -85 -194 -203 -194c-31 0 -65 7 -101 20c-24 9 -49 21 -75 38c-11 -12 -23 -22 -37 -31c-28 -18 -63 -27 -105 -27c-28 0 -56 6 -83 19c-22 10 -48 25 -77 45c-12 -15 -26 -27 -42 -37c-29 -18 -64 -27 -105 -27c-7 0 -10 4 -10 11v111 c0 7 3 10 10 10c37 0 63 16 76 47c17 36 22 95 22 191z" arabic-form="initial" glyph-name="uniFEB3" horiz-adv-x="876" unicode="س"/>
<glyph d="M435 440h126c16 -110 29 -192 33 -269l1 -14c13 -7 27 -12 42 -16c23 -6 44 -9 64 -9c45 0 72 14 87 47c17 36 22 95 22 191h117c0 -59 -3 -110 -10 -154c-3 -22 -8 -43 -14 -62c11 -5 23 -10 36 -13c23 -6 44 -9 64 -9c45 0 72 14 87 47c17 36 22 95 22 191v70h117v-70 c0 -59 -3 -110 -10 -154c-3 -19 -7 -38 -12 -55c17 -9 33 -16 49 -20c23 -6 46 -9 69 -9c7 0 10 -3 10 -10v-111c0 -7 -3 -11 -10 -11c-37 0 -72 8 -103 25c-20 11 -40 25 -60 43c-13 -17 -28 -30 -45 -41c-28 -18 -63 -27 -105 -27c-28 0 -56 6 -83 19 c-21 10 -45 24 -74 43c-11 -14 -25 -26 -40 -35c-28 -18 -63 -27 -105 -27c-28 0 -56 6 -83 19c-11 5 -22 11 -34 18c-3 -24 -9 -46 -16 -67c-38 -115 -136 -185 -283 -185c-171 0 -266 97 -266 277c0 89 17 143 44 223h117c-27 -71 -43 -138 -43 -199 c0 -99 45 -169 153 -169c117 0 175 62 175 186c0 82 -15 175 -39 337zM692 557l93 93l79 -78l80 78l94 -93l-93 -94l-81 78l-78 -78zM795 690l69 71l71 -71l-70 -70z" arabic-form="final" glyph-name="uniFEB6" horiz-adv-x="1325" unicode="ش"/>
<glyph d="M98 370h117c0 -87 -8 -157 -24 -212c13 -7 28 -13 43 -17c23 -6 44 -9 64 -9c45 0 72 14 87 47c17 36 22 95 22 191h117c0 -59 -3 -110 -10 -154c-3 -22 -8 -43 -14 -62c11 -5 23 -10 35 -13c23 -6 44 -9 64 -9c45 0 72 14 87 47c17 36 22 95 22 191v70h117v-70 c0 -59 -3 -110 -10 -154c-3 -19 -7 -38 -12 -55c17 -9 34 -16 50 -20c23 -6 46 -9 69 -9c7 0 10 -3 10 -10v-111c0 -7 -3 -11 -10 -11c-37 0 -72 8 -103 25c-20 11 -40 25 -60 43c-13 -17 -29 -30 -46 -41c-28 -18 -63 -27 -105 -27c-28 0 -56 6 -83 19c-21 9 -45 23 -73 42 c-12 -13 -25 -25 -40 -34c-28 -18 -63 -27 -105 -27c-28 0 -56 6 -83 19c-22 10 -48 25 -77 45c-12 -15 -26 -27 -42 -37c-29 -18 -64 -27 -105 -27c-7 0 -10 4 -10 11v111c0 7 3 10 10 10c37 0 63 16 76 47c17 36 22 95 22 191zM288 554l93 93l79 -78l80 78l94 -93l-93 -94 l-81 78l-78 -78zM391 687l69 71l71 -71l-70 -70z" arabic-form="medial" glyph-name="uniFEB8" horiz-adv-x="922" unicode="ش"/>
<glyph d="M98 370h117c0 -87 -8 -157 -24 -212c13 -7 28 -13 43 -17c23 -6 44 -9 64 -9c45 0 72 14 87 47c17 36 22 95 22 191h117c0 -59 -3 -110 -10 -154c-3 -22 -8 -43 -14 -62c13 -5 26 -10 37 -13c23 -6 46 -9 69 -9c67 0 96 26 96 83c0 51 -6 106 -30 270h126 c21 -140 30 -227 30 -291c0 -114 -85 -194 -203 -194c-31 0 -65 7 -101 20c-24 9 -49 21 -75 38c-11 -12 -23 -22 -37 -31c-28 -18 -63 -27 -105 -27c-28 0 -56 6 -83 19c-22 10 -48 25 -77 45c-12 -15 -26 -27 -42 -37c-29 -18 -64 -27 -105 -27c-7 0 -10 4 -10 11v111 c0 7 3 10 10 10c37 0 63 16 76 47c17 36 22 95 22 191zM292 555l93 93l79 -78l80 78l94 -93l-93 -94l-81 78l-78 -78zM395 688l69 71l71 -71l-70 -70z" arabic-form="initial" glyph-name="uniFEB7" horiz-adv-x="876" unicode="ش"/>
<glyph d="M435 440h126l14 -102l10 -76c35 35 67 66 97 94c131 120 229 176 332 176c128 0 220 -96 220 -223c0 -46 -10 -88 -29 -126c-5 -10 -11 -19 -17 -28c13 -6 25 -11 38 -14c23 -6 46 -9 69 -9c7 0 10 -3 10 -10v-111c0 -7 -3 -11 -10 -11c-37 0 -72 8 -103 25 c-25 13 -49 32 -74 57c-35 -25 -77 -45 -126 -60c-51 -15 -107 -22 -170 -22c-62 0 -141 11 -206 23l-25 4c-3 -20 -7 -39 -14 -57c-38 -115 -136 -185 -283 -185c-171 0 -266 97 -266 277c0 89 17 143 44 223h117c-27 -71 -43 -138 -43 -199c0 -99 45 -169 153 -169 c117 0 175 62 175 186c0 82 -15 175 -39 337zM684 138c41 -4 84 -6 128 -6c179 0 295 67 295 159c0 64 -49 109 -117 109c-71 0 -146 -42 -271 -149c-34 -29 -72 -63 -115 -102c25 -4 51 -8 80 -11z" arabic-form="final" glyph-name="uniFEBA" horiz-adv-x="1295" unicode="ص"/>
<glyph d="M139 370h114c-8 -76 -14 -126 -24 -171l-4 -20l11 -4l20 -6c53 63 100 117 141 161c146 154 236 202 338 202c127 0 219 -96 219 -223c0 -184 -160 -309 -411 -309c-148 0 -254 25 -334 53l-40 15c-10 -11 -21 -20 -34 -28c-39 -25 -87 -40 -135 -40c-7 0 -10 4 -10 11 v111c0 7 3 10 10 10c67 0 100 22 115 73c9 33 17 78 24 165zM371 144l43 -6c36 -4 75 -6 118 -6c179 0 295 67 295 159c0 64 -48 109 -116 109c-75 0 -144 -45 -263 -172zM822 104l56 71c49 -33 93 -43 140 -43c7 0 10 -3 10 -10v-111c0 -7 -3 -11 -10 -11 c-75 0 -135 32 -196 104z" arabic-form="medial" glyph-name="uniFEBC" horiz-adv-x="1018" unicode="ص"/>
<glyph d="M139 370h114c-8 -76 -14 -126 -24 -171l-4 -20l11 -4l20 -6c53 63 100 117 141 161c146 154 236 202 338 202c127 0 219 -96 219 -223c0 -184 -160 -309 -411 -309c-148 0 -254 25 -334 53l-40 15c-10 -11 -21 -20 -34 -28c-39 -25 -87 -40 -135 -40c-7 0 -10 4 -10 11 v111c0 7 3 10 10 10c67 0 100 22 115 73c9 33 17 78 24 165zM371 144l43 -6c36 -4 75 -6 118 -6c179 0 295 67 295 159c0 64 -48 109 -116 109c-75 0 -144 -45 -263 -172z" arabic-form="initial" glyph-name="uniFEBB" horiz-adv-x="991" unicode="ص"/>
<glyph d="M435 440h126l14 -102l10 -76c35 35 67 66 97 94c131 120 229 176 332 176c128 0 220 -96 220 -223c0 -46 -10 -88 -29 -126c-5 -10 -11 -19 -17 -28c13 -6 25 -11 38 -14c23 -6 46 -9 69 -9c7 0 10 -3 10 -10v-111c0 -7 -3 -11 -10 -11c-37 0 -72 8 -103 25 c-25 13 -49 32 -74 57c-35 -25 -77 -45 -126 -60c-51 -15 -107 -22 -170 -22c-62 0 -141 11 -206 23l-25 4c-3 -20 -7 -39 -14 -57c-38 -115 -136 -185 -283 -185c-171 0 -266 97 -266 277c0 89 17 143 44 223h117c-27 -71 -43 -138 -43 -199c0 -99 45 -169 153 -169 c117 0 175 62 175 186c0 82 -15 175 -39 337zM684 138c41 -4 84 -6 128 -6c179 0 295 67 295 159c0 64 -49 109 -117 109c-71 0 -146 -42 -271 -149c-34 -29 -72 -63 -115 -102c25 -4 51 -8 80 -11zM644 630l93 93l94 -93l-93 -93z" arabic-form="final" glyph-name="uniFEBE" horiz-adv-x="1295" unicode="ض"/>
<glyph d="M139 370h114c-8 -76 -14 -126 -24 -171l-4 -20l11 -4l20 -6c53 63 100 117 141 161c146 154 236 202 338 202c127 0 219 -96 219 -223c0 -184 -160 -309 -411 -309c-148 0 -254 25 -334 53l-40 15c-10 -11 -21 -20 -34 -28c-39 -25 -87 -40 -135 -40c-7 0 -10 4 -10 11 v111c0 7 3 10 10 10c67 0 100 22 115 73c9 33 17 78 24 165zM371 144l43 -6c36 -4 75 -6 118 -6c179 0 295 67 295 159c0 64 -48 109 -116 109c-75 0 -144 -45 -263 -172zM822 104l56 71c49 -33 93 -43 140 -43c7 0 10 -3 10 -10v-111c0 -7 -3 -11 -10 -11 c-75 0 -135 32 -196 104zM355 625l93 93l94 -93l-93 -93z" arabic-form="medial" glyph-name="uniFEC0" horiz-adv-x="1018" unicode="ض"/>
<glyph d="M139 370h114c-8 -76 -14 -126 -24 -171l-4 -20l11 -4l20 -6c53 63 100 117 141 161c146 154 236 202 338 202c127 0 219 -96 219 -223c0 -184 -160 -309 -411 -309c-148 0 -254 25 -334 53l-40 15c-10 -11 -21 -20 -34 -28c-39 -25 -87 -40 -135 -40c-7 0 -10 4 -10 11 v111c0 7 3 10 10 10c67 0 100 22 115 73c9 33 17 78 24 165zM371 144l43 -6c36 -4 75 -6 118 -6c179 0 295 67 295 159c0 64 -48 109 -116 109c-75 0 -144 -45 -263 -172zM355 625l93 93l94 -93l-93 -93z" arabic-form="initial" glyph-name="uniFEBF" horiz-adv-x="991" unicode="ض"/>
<glyph d="M158 725h126v-224c0 -44 -5 -92 -16 -143l-12 -53l15 17c144 156 228 210 330 210c128 0 219 -96 219 -223c0 -184 -159 -309 -411 -309c-151 0 -292 16 -401 43v128c37 -8 74 -15 113 -20l37 42v532zM399 132c179 0 295 67 295 159c0 64 -49 109 -117 109 c-74 0 -134 -44 -254 -174c-24 -25 -51 -55 -82 -89c51 -3 104 -5 158 -5zM687 104l56 71c49 -33 93 -43 140 -43c7 0 10 -3 10 -10v-111c0 -7 -3 -11 -10 -11c-75 0 -135 32 -196 104z" arabic-form="final" glyph-name="uniFEC2" horiz-adv-x="883" unicode="ط"/>
<glyph d="M100 725h126v-224c0 -44 -5 -92 -16 -143l-12 -54l4 4c141 165 234 224 333 224c127 0 219 -96 219 -223c0 -184 -160 -309 -411 -309h-343c-7 0 -10 4 -10 11v111c0 7 3 10 10 10h57c15 19 30 36 43 53v540zM177 132h155c179 0 295 67 295 159c0 64 -48 109 -116 109 c-73 0 -138 -53 -259 -186zM621 104l56 71c49 -33 93 -43 140 -43c7 0 10 -3 10 -10v-111c0 -7 -3 -11 -10 -11c-75 0 -135 32 -196 104z" arabic-form="medial" glyph-name="uniFEC4" horiz-adv-x="817" unicode="ط"/>
<glyph d="M100 725h126v-224c0 -44 -5 -92 -16 -143l-12 -54l4 4c141 165 234 224 333 224c127 0 219 -96 219 -223c0 -184 -160 -309 -411 -309h-343c-7 0 -10 4 -10 11v111c0 7 3 10 10 10h57c15 19 30 36 43 53v540zM177 132h155c179 0 295 67 295 159c0 64 -48 109 -116 109 c-73 0 -138 -53 -259 -186z" arabic-form="initial" glyph-name="uniFEC3" horiz-adv-x="792" unicode="ط"/>
<glyph d="M158 725h126v-224c0 -44 -5 -92 -16 -143l-12 -53l15 17c144 156 228 210 330 210c128 0 219 -96 219 -223c0 -184 -159 -309 -411 -309c-151 0 -292 16 -401 43v128c37 -8 74 -15 113 -20l37 42v532zM399 132c179 0 295 67 295 159c0 64 -49 109 -117 109 c-74 0 -134 -44 -254 -174c-24 -25 -51 -55 -82 -89c51 -3 104 -5 158 -5zM687 104l56 71c49 -33 93 -43 140 -43c7 0 10 -3 10 -10v-111c0 -7 -3 -11 -10 -11c-75 0 -135 32 -196 104zM358 653l93 93l94 -93l-93 -93z" arabic-form="final" glyph-name="uniFEC6" horiz-adv-x="883" unicode="ظ"/>
<glyph d="M100 725h126v-224c0 -44 -5 -92 -16 -143l-12 -54l4 4c141 165 234 224 333 224c127 0 219 -96 219 -223c0 -184 -160 -309 -411 -309h-343c-7 0 -10 4 -10 11v111c0 7 3 10 10 10h57c15 19 30 36 43 53v540zM177 132h155c179 0 295 67 295 159c0 64 -48 109 -116 109 c-73 0 -138 -53 -259 -186zM621 104l56 71c49 -33 93 -43 140 -43c7 0 10 -3 10 -10v-111c0 -7 -3 -11 -10 -11c-75 0 -135 32 -196 104zM289 653l93 93l94 -93l-93 -93z" arabic-form="medial" glyph-name="uniFEC8" horiz-adv-x="817" unicode="ظ"/>
<glyph d="M100 725h126v-224c0 -44 -5 -92 -16 -143l-12 -54l4 4c141 165 234 224 333 224c127 0 219 -96 219 -223c0 -184 -160 -309 -411 -309h-343c-7 0 -10 4 -10 11v111c0 7 3 10 10 10h57c15 19 30 36 43 53v540zM177 132h155c179 0 295 67 295 159c0 64 -48 109 -116 109 c-73 0 -138 -53 -259 -186zM289 653l93 93l94 -93l-93 -93z" arabic-form="initial" glyph-name="uniFEC7" horiz-adv-x="792" unicode="ظ"/>
<glyph d="M319 538c133 0 226 -82 226 -183c0 -80 -52 -141 -119 -188l-13 -9l17 -6c49 -14 91 -20 161 -20c7 0 10 -3 10 -10v-111c0 -7 -3 -11 -10 -11c-104 0 -171 21 -240 64l-43 28l-25 -15c-68 -39 -124 -83 -124 -132c0 -59 63 -90 171 -90c73 0 133 10 229 37v-121 c-99 -33 -168 -46 -236 -46c-191 0 -287 69 -287 202c0 80 63 148 139 196l38 25l-31 51c-29 49 -57 87 -85 119l-23 25c-14 -6 -28 -13 -42 -20v119c84 58 198 96 287 96zM316 211c62 38 107 72 107 111c0 52 -44 87 -116 87c-37 0 -80 -8 -129 -24l-1 -1 c21 -21 41 -46 60 -73c22 -31 45 -66 69 -107c3 3 7 5 10 7z" arabic-form="final" glyph-name="uniFECA" horiz-adv-x="591" unicode="ع"/>
<glyph d="M318 505c134 0 227 -82 227 -183c0 -56 -22 -120 -87 -181l-2 -2l21 -2c35 -4 69 -5 113 -5c7 0 10 -3 10 -10v-111c0 -7 -3 -11 -10 -11c-70 0 -130 7 -179 22c-29 9 -57 20 -83 32l-39 -15c-82 -31 -156 -39 -289 -39c-7 1 -10 5 -10 11v111c0 7 3 10 10 10 c48 0 90 1 126 3c23 1 46 4 69 7c-5 9 -10 17 -15 24c-31 49 -58 87 -86 119c-7 8 -15 16 -22 25c-14 -7 -28 -13 -41 -20v118c85 58 200 97 287 97zM311 155l18 9c57 31 93 79 93 125c0 52 -44 86 -116 86c-37 0 -80 -8 -129 -24h-1c20 -21 39 -45 57 -71 c25 -35 51 -77 78 -125z" arabic-form="medial" glyph-name="uniFECC" horiz-adv-x="592" unicode="ع"/>
<glyph d="M525 174l-26 -131c-134 -24 -275 -43 -499 -43c-7 0 -10 4 -10 11v111c0 7 3 10 10 10c41 0 79 0 114 1c-49 39 -73 91 -73 154c0 120 97 213 231 213c43 0 105 -13 174 -40v-117c-63 19 -116 29 -158 29c-76 0 -125 -39 -125 -99c0 -64 68 -133 183 -125l-2 -1l53 7 c39 5 82 12 128 20z" arabic-form="initial" glyph-name="uniFECB" horiz-adv-x="543" unicode="ع"/>
<glyph d="M319 538c133 0 226 -82 226 -183c0 -80 -52 -141 -119 -188l-13 -9l17 -6c49 -14 91 -20 161 -20c7 0 10 -3 10 -10v-111c0 -7 -3 -11 -10 -11c-104 0 -171 21 -240 64l-43 28l-25 -15c-68 -39 -124 -83 -124 -132c0 -59 63 -90 171 -90c73 0 133 10 229 37v-121 c-99 -33 -168 -46 -236 -46c-191 0 -287 69 -287 202c0 80 63 148 139 196l38 25l-31 51c-29 49 -57 87 -85 119l-23 25c-14 -6 -28 -13 -42 -20v119c84 58 198 96 287 96zM316 211c62 38 107 72 107 111c0 52 -44 87 -116 87c-37 0 -80 -8 -129 -24l-1 -1 c21 -21 41 -46 60 -73c22 -31 45 -66 69 -107c3 3 7 5 10 7zM214 683l93 93l94 -93l-93 -93z" arabic-form="final" glyph-name="uniFECE" horiz-adv-x="591" unicode="غ"/>
<glyph d="M318 505c134 0 227 -82 227 -183c0 -56 -22 -120 -87 -181l-2 -2l21 -2c35 -4 69 -5 113 -5c7 0 10 -3 10 -10v-111c0 -7 -3 -11 -10 -11c-70 0 -130 7 -179 22c-29 9 -57 20 -83 32l-39 -15c-82 -31 -156 -39 -289 -39c-7 1 -10 5 -10 11v111c0 7 3 10 10 10 c48 0 90 1 126 3c23 1 46 4 69 7c-5 9 -10 17 -15 24c-31 49 -58 87 -86 119c-7 8 -15 16 -22 25c-14 -7 -28 -13 -41 -20v118c85 58 200 97 287 97zM311 155l18 9c57 31 93 79 93 125c0 52 -44 86 -116 86c-37 0 -80 -8 -129 -24h-1c20 -21 39 -45 57 -71 c25 -35 51 -77 78 -125zM203 647l93 93l94 -93l-93 -93z" arabic-form="medial" glyph-name="uniFED0" horiz-adv-x="592" unicode="غ"/>
<glyph d="M525 174l-26 -131c-134 -24 -275 -43 -499 -43c-7 0 -10 4 -10 11v111c0 7 3 10 10 10c41 0 79 0 114 1c-49 39 -73 91 -73 154c0 120 97 213 231 213c43 0 105 -13 174 -40v-117c-63 19 -116 29 -158 29c-76 0 -125 -39 -125 -99c0 -64 68 -133 183 -125l-2 -1l53 7 c39 5 82 12 128 20zM164 643l93 93l94 -93l-93 -93z" arabic-form="initial" glyph-name="uniFECF" horiz-adv-x="543" unicode="غ"/>
<glyph d="M683 502c129 0 223 -95 223 -225c0 -45 -18 -87 -46 -124c-4 -5 -8 -11 -13 -16l9 -1c25 -3 56 -4 94 -4c7 0 10 -3 10 -10v-111c0 -7 -3 -11 -10 -11c-53 0 -114 8 -173 20c-29 5 -56 12 -82 20l-11 -3c-74 -23 -176 -37 -269 -37c-7 1 -10 5 -10 11v111c0 7 3 10 10 10 c39 0 73 1 100 4c-5 5 -9 10 -13 15c-29 36 -44 78 -44 126c0 121 93 225 225 225zM756 186c17 23 26 48 26 76c0 67 -43 111 -104 111c-60 0 -101 -44 -101 -108c0 -28 9 -54 26 -77c17 -22 41 -39 73 -50c37 11 64 27 80 48zM47 388h118c-9 -44 -15 -82 -15 -110 c0 -101 38 -146 170 -146h110c7 0 10 -3 10 -10v-111c0 -7 -3 -11 -10 -11h-139c-171 0 -262 86 -262 243c0 49 6 89 18 145zM586 644l93 93l94 -93l-93 -93z" arabic-form="final" glyph-name="uniFED2" horiz-adv-x="950" unicode="ف"/>
<glyph d="M268 502c129 0 223 -95 223 -225c0 -45 -18 -87 -46 -124c-4 -5 -8 -11 -13 -16l9 -1c25 -3 56 -4 94 -4c7 0 10 -3 10 -10v-111c0 -7 -3 -11 -10 -11c-53 0 -114 8 -173 20c-29 5 -56 12 -82 20l-11 -3c-74 -23 -176 -37 -269 -37c-7 1 -10 5 -10 11v111c0 7 3 10 10 10 c39 0 73 1 100 4c-5 5 -9 10 -13 15c-29 36 -44 78 -44 126c0 121 93 225 225 225zM341 186c17 23 26 48 26 76c0 67 -43 111 -104 111c-60 0 -101 -44 -101 -108c0 -28 9 -54 26 -77c17 -22 41 -39 73 -50c37 11 64 27 80 48zM175 644l93 93l94 -93l-93 -93z" arabic-form="medial" glyph-name="uniFED4" horiz-adv-x="535" unicode="ف"/>
<glyph d="M264 502c129 0 226 -100 226 -234c0 -161 -105 -268 -266 -268h-224c-7 1 -10 5 -10 11v111c0 7 3 10 10 10h92l-14 21c-32 45 -45 82 -45 130c0 123 99 219 231 219zM213 132h13c84 0 137 48 137 129c0 64 -44 113 -104 113c-64 0 -106 -49 -106 -109 c0 -29 10 -53 35 -90c9 -15 18 -29 25 -43zM170 644l93 93l94 -93l-93 -93z" arabic-form="initial" glyph-name="uniFED3" horiz-adv-x="527" unicode="ف"/>
<glyph d="M683 502c129 0 223 -95 223 -225c0 -45 -18 -87 -46 -124c-4 -5 -8 -11 -13 -16l9 -1c25 -3 56 -4 94 -4c7 0 10 -3 10 -10v-111c0 -7 -3 -11 -10 -11c-53 0 -114 8 -173 20c-29 5 -56 12 -82 20l-11 -3c-74 -23 -176 -37 -269 -37c-7 1 -10 5 -10 11v111c0 7 3 10 10 10 c39 0 73 1 100 4c-5 5 -9 10 -13 15c-29 36 -44 78 -44 126c0 121 93 225 225 225zM756 186c17 23 26 48 26 76c0 67 -43 111 -104 111c-60 0 -101 -44 -101 -108c0 -28 9 -54 26 -77c17 -22 41 -39 73 -50c37 11 64 27 80 48zM47 388h118c-9 -44 -15 -82 -15 -110 c0 -101 38 -146 170 -146h110c7 0 10 -3 10 -10v-111c0 -7 -3 -11 -10 -11h-139c-171 0 -262 86 -262 243c0 49 6 89 18 145zM511 636l93 93l79 -78l80 78l94 -93l-93 -94l-81 78l-78 -78zM614 769l69 71l71 -71l-70 -70z" arabic-form="final" glyph-name="uniFB6B" horiz-adv-x="950" unicode="ڤ"/>
<glyph d="M268 502c129 0 223 -95 223 -225c0 -45 -18 -87 -46 -124c-4 -5 -8 -11 -13 -16l9 -1c25 -3 56 -4 94 -4c7 0 10 -3 10 -10v-111c0 -7 -3 -11 -10 -11c-53 0 -114 8 -173 20c-29 5 -56 12 -82 20l-11 -3c-74 -23 -176 -37 -269 -37c-7 1 -10 5 -10 11v111c0 7 3 10 10 10 c39 0 73 1 100 4c-5 5 -9 10 -13 15c-29 36 -44 78 -44 126c0 121 93 225 225 225zM341 186c17 23 26 48 26 76c0 67 -43 111 -104 111c-60 0 -101 -44 -101 -108c0 -28 9 -54 26 -77c17 -22 41 -39 73 -50c37 11 64 27 80 48zM98 636l93 93l79 -78l80 78l94 -93l-93 -94 l-81 78l-78 -78zM201 769l69 71l71 -71l-70 -70z" arabic-form="medial" glyph-name="uniFB6D" horiz-adv-x="535" unicode="ڤ"/>
<glyph d="M264 502c129 0 226 -100 226 -234c0 -161 -105 -268 -266 -268h-224c-7 1 -10 5 -10 11v111c0 7 3 10 10 10h92l-14 21c-32 45 -45 82 -45 130c0 123 99 219 231 219zM213 132h13c84 0 137 48 137 129c0 64 -44 113 -104 113c-64 0 -106 -49 -106 -109 c0 -29 10 -53 35 -90c9 -15 18 -29 25 -43zM94 636l93 93l79 -78l80 78l94 -93l-93 -94l-81 78l-78 -78zM197 769l69 71l71 -71l-70 -70z" arabic-form="initial" glyph-name="uniFB6C" horiz-adv-x="527" unicode="ڤ"/>
<glyph d="M264 502c129 0 226 -100 226 -234c0 -161 -105 -268 -266 -268h-224c-7 1 -10 5 -10 11v111c0 7 3 10 10 10h92l-14 21c-32 45 -45 82 -45 130c0 123 99 219 231 219zM213 132h13c84 0 137 48 137 129c0 64 -44 113 -104 113c-64 0 -106 -49 -106 -109 c0 -29 10 -53 35 -90c9 -15 18 -29 25 -43z" glyph-name="uni06A1.init" horiz-adv-x="527" unicode="ڡ"/>
<glyph d="M268 502c129 0 223 -95 223 -225c0 -45 -18 -87 -46 -124c-4 -5 -8 -11 -13 -16l9 -1c25 -3 56 -4 94 -4c7 0 10 -3 10 -10v-111c0 -7 -3 -11 -10 -11c-53 0 -114 8 -173 20c-29 5 -56 12 -82 20l-11 -3c-74 -23 -176 -37 -269 -37c-7 1 -10 5 -10 11v111c0 7 3 10 10 10 c39 0 73 1 100 4c-5 5 -9 10 -13 15c-29 36 -44 78 -44 126c0 121 93 225 225 225zM341 186c17 23 26 48 26 76c0 67 -43 111 -104 111c-60 0 -101 -44 -101 -108c0 -28 9 -54 26 -77c17 -22 41 -39 73 -50c37 11 64 27 80 48z" glyph-name="uni06A1.medi" horiz-adv-x="535" unicode="ڡ"/>
<glyph d="M683 502c129 0 223 -95 223 -225c0 -45 -18 -87 -46 -124c-4 -5 -8 -11 -13 -16l9 -1c25 -3 56 -4 94 -4c7 0 10 -3 10 -10v-111c0 -7 -3 -11 -10 -11c-53 0 -114 8 -173 20c-29 5 -56 12 -82 20l-11 -3c-74 -23 -176 -37 -269 -37c-7 1 -10 5 -10 11v111c0 7 3 10 10 10 c39 0 73 1 100 4c-5 5 -9 10 -13 15c-29 36 -44 78 -44 126c0 121 93 225 225 225zM756 186c17 23 26 48 26 76c0 67 -43 111 -104 111c-60 0 -101 -44 -101 -108c0 -28 9 -54 26 -77c17 -22 41 -39 73 -50c37 11 64 27 80 48zM47 388h118c-9 -44 -15 -82 -15 -110 c0 -101 38 -146 170 -146h110c7 0 10 -3 10 -10v-111c0 -7 -3 -11 -10 -11h-139c-171 0 -262 86 -262 243c0 49 6 89 18 145z" glyph-name="uni06A1.fina" horiz-adv-x="950" unicode="ڡ"/>
<glyph d="M501 492c125 0 210 -84 218 -235c1 -25 3 -50 3 -82c1 -13 1 -28 1 -43h57c7 0 10 -3 10 -10v-111c0 -7 -3 -11 -10 -11h-59c-10 -58 -38 -106 -85 -143c-61 -48 -152 -72 -275 -72c-229 0 -333 93 -333 277c0 89 17 143 44 223h117c-27 -71 -43 -138 -43 -199 c0 -124 66 -179 237 -179c110 0 179 34 207 80c3 5 5 9 6 13h-67c-159 0 -262 91 -262 240c0 145 100 252 234 252zM600 153l-6 94c-6 77 -39 115 -99 115s-107 -48 -107 -118c0 -77 55 -115 156 -115c27 0 42 1 57 1c-1 8 -1 16 -1 23z" glyph-name="uni066F.fina" horiz-adv-x="780" unicode="ٯ"/>
<glyph d="M501 492c125 0 210 -84 218 -235c1 -25 3 -50 3 -82c1 -13 1 -28 1 -43h57c7 0 10 -3 10 -10v-111c0 -7 -3 -11 -10 -11h-59c-10 -58 -38 -106 -85 -143c-61 -48 -152 -72 -275 -72c-229 0 -333 93 -333 277c0 89 17 143 44 223h117c-27 -71 -43 -138 -43 -199 c0 -124 66 -179 237 -179c110 0 179 34 207 80c3 5 5 9 6 13h-67c-159 0 -262 91 -262 240c0 145 100 252 234 252zM600 153l-6 94c-6 77 -39 115 -99 115s-107 -48 -107 -118c0 -77 55 -115 156 -115c27 0 42 1 57 1c-1 8 -1 16 -1 23zM328 645l93 94l77 -75l75 75l94 -94 l-92 -93l-77 74l-76 -74z" arabic-form="final" glyph-name="uniFED6" horiz-adv-x="780" unicode="ق"/>
<glyph d="M268 502c129 0 223 -95 223 -225c0 -45 -18 -87 -46 -124c-4 -5 -8 -11 -13 -16l9 -1c25 -3 56 -4 94 -4c7 0 10 -3 10 -10v-111c0 -7 -3 -11 -10 -11c-53 0 -114 8 -173 20c-29 5 -56 12 -82 20l-11 -3c-74 -23 -176 -37 -269 -37c-7 1 -10 5 -10 11v111c0 7 3 10 10 10 c39 0 73 1 100 4c-5 5 -9 10 -13 15c-29 36 -44 78 -44 126c0 121 93 225 225 225zM341 186c17 23 26 48 26 76c0 67 -43 111 -104 111c-60 0 -101 -44 -101 -108c0 -28 9 -54 26 -77c17 -22 41 -39 73 -50c37 11 64 27 80 48zM95 645l93 94l77 -75l75 75l94 -94l-92 -93 l-77 74l-76 -74z" arabic-form="medial" glyph-name="uniFED8" horiz-adv-x="535" unicode="ق"/>
<glyph d="M264 502c129 0 226 -100 226 -234c0 -161 -105 -268 -266 -268h-224c-7 1 -10 5 -10 11v111c0 7 3 10 10 10h92l-14 21c-32 45 -45 82 -45 130c0 123 99 219 231 219zM213 132h13c84 0 137 48 137 129c0 64 -44 113 -104 113c-64 0 -106 -49 -106 -109 c0 -29 10 -53 35 -90c9 -15 18 -29 25 -43zM95 645l93 94l77 -75l75 75l94 -94l-92 -93l-77 74l-76 -74z" arabic-form="initial" glyph-name="uniFED7" horiz-adv-x="527" unicode="ق"/>
<glyph d="M46 388h118c-9 -44 -15 -82 -15 -110c0 -101 38 -146 170 -146h103c105 0 185 13 240 38c-1 9 -1 18 -1 27v528h126v-507c0 -60 23 -86 96 -86c7 0 10 -3 10 -10v-111c0 -7 -3 -11 -10 -11c-73 0 -129 18 -166 53c-7 6 -13 12 -18 18c-33 -21 -68 -38 -107 -49 c-47 -14 -102 -21 -163 -22h-139c-171 0 -262 86 -262 243c0 49 6 89 18 145zM460 436h93l-29 -95h-130c-33 0 -58 -2 -106 -17v92l31 10c8 3 16 5 24 6l-1 1c-13 14 -20 32 -20 55c0 57 43 104 116 104c21 0 46 -7 75 -21v-86c-32 11 -48 14 -71 14c-27 0 -44 -13 -44 -32 c0 -23 23 -31 62 -31z" arabic-form="final" glyph-name="uniFEDA" horiz-adv-x="883" unicode="ك"/>
<glyph d="M370 795h182v-5l-345 -286l160 -70c124 -53 186 -128 186 -223c0 -131 -100 -211 -264 -211h-289c-7 0 -10 4 -10 11v111c0 7 3 10 10 10h297c77 0 130 30 130 74s-34 77 -123 116l-250 110v88zM455 104l56 71c49 -33 93 -43 140 -43c7 0 10 -3 10 -10v-111 c0 -7 -3 -11 -10 -11c-75 0 -135 32 -196 104z" arabic-form="medial" glyph-name="uniFEDC" horiz-adv-x="651" unicode="ك"/>
<glyph d="M370 795h182v-5l-345 -286l160 -70c124 -53 186 -128 186 -223c0 -131 -100 -211 -264 -211h-289c-7 0 -10 4 -10 11v111c0 7 3 10 10 10h297c77 0 130 30 130 74s-34 77 -123 116l-250 110v88z" arabic-form="initial" glyph-name="uniFEDB" horiz-adv-x="581" unicode="ك"/>
<glyph d="M53 440h117c-12 -64 -19 -123 -19 -162c0 -101 38 -146 170 -146h229c7 0 10 -3 10 -10v-111c0 -7 -3 -11 -10 -11h-259c-171 0 -263 88 -263 245c0 44 9 114 25 195zM697 795h182v-5l-345 -286l160 -70c124 -53 186 -128 186 -223c0 -131 -100 -211 -264 -211h-289 c-7 0 -10 4 -10 11v111c0 7 3 10 10 10h297c77 0 130 30 130 74s-34 77 -123 116l-250 110v88zM802 104l56 71c49 -33 93 -43 140 -43c7 0 10 -3 10 -10v-111c0 -7 -3 -11 -10 -11c-75 0 -135 32 -196 104z" arabic-form="final" glyph-name="uniFB8F" horiz-adv-x="998" unicode="ک"/>
<glyph d="M370 795h182v-5l-345 -286l160 -70c124 -53 186 -128 186 -223c0 -131 -100 -211 -264 -211h-289c-7 0 -10 4 -10 11v111c0 7 3 10 10 10h297c77 0 130 30 130 74s-34 77 -123 116l-250 110v88zM455 104l56 71c49 -33 93 -43 140 -43c7 0 10 -3 10 -10v-111 c0 -7 -3 -11 -10 -11c-75 0 -135 32 -196 104z" arabic-form="medial" glyph-name="uniFB91" horiz-adv-x="651" unicode="ک"/>
<glyph d="M370 795h182v-5l-345 -286l160 -70c124 -53 186 -128 186 -223c0 -131 -100 -211 -264 -211h-289c-7 0 -10 4 -10 11v111c0 7 3 10 10 10h297c77 0 130 30 130 74s-34 77 -123 116l-250 110v88z" arabic-form="initial" glyph-name="uniFB90" horiz-adv-x="581" unicode="ک"/>
<glyph d="M53 440h117c-12 -64 -19 -123 -19 -162c0 -101 38 -146 170 -146h229c7 0 10 -3 10 -10v-111c0 -7 -3 -11 -10 -11h-259c-171 0 -263 88 -263 245c0 44 9 114 25 195zM697 795h182v-5l-345 -286l160 -70c124 -53 186 -128 186 -223c0 -131 -100 -211 -264 -211h-289 c-7 0 -10 4 -10 11v111c0 7 3 10 10 10h297c77 0 130 30 130 74s-34 77 -123 116l-250 110v88zM802 104l56 71c49 -33 93 -43 140 -43c7 0 10 -3 10 -10v-111c0 -7 -3 -11 -10 -11c-75 0 -135 32 -196 104zM545 795v-4l-223 -207l-46 49l164 162h105z" arabic-form="final" glyph-name="uniFB93" horiz-adv-x="998" unicode="گ"/>
<glyph d="M532 795h182v-5l-345 -286l160 -70c124 -53 186 -128 186 -223c0 -131 -100 -211 -264 -211h-289c-7 0 -10 4 -10 11v111c0 7 3 10 10 10h297c77 0 130 30 130 74s-34 77 -123 116l-250 110v88zM617 104l56 71c49 -33 93 -43 140 -43c7 0 10 -3 10 -10v-111 c0 -7 -3 -11 -10 -11c-75 0 -135 32 -196 104zM349 795v-4l-223 -207l-46 49l164 162h105zM0 132h194c7 0 10 -3 10 -10v-111c0 -7 -3 -11 -10 -11h-194c-7 0 -10 4 -10 11v111c0 7 3 10 10 10z" arabic-form="medial" glyph-name="uniFB95" horiz-adv-x="813" unicode="گ"/>
<glyph d="M520 795h182v-5l-345 -286l160 -70c124 -53 186 -128 186 -223c0 -131 -100 -211 -264 -211h-289c-7 0 -10 4 -10 11v111c0 7 3 10 10 10h297c77 0 130 30 130 74s-34 77 -123 116l-250 110v88zM337 795v-4l-223 -207l-46 49l164 162h105zM0 132h194c7 0 10 -3 10 -10 v-111c0 -7 -3 -11 -10 -11h-194c-7 0 -10 4 -10 11v111c0 7 3 10 10 10z" arabic-form="initial" glyph-name="uniFB94" horiz-adv-x="731" unicode="گ"/>
<glyph d="M471 725h126v-515c0 -55 38 -78 102 -78c7 0 10 -3 10 -10v-111c0 -7 -3 -11 -10 -11c-45 0 -80 13 -106 38c-3 -24 -8 -46 -15 -67c-38 -115 -132 -186 -280 -186c-171 0 -270 97 -270 277c0 89 17 143 44 223h117c-27 -71 -43 -138 -43 -199c0 -99 49 -169 157 -169 c119 0 168 61 168 186v622z" arabic-form="final" glyph-name="uniFEDE" horiz-adv-x="698" unicode="ل"/>
<glyph d="M99 725h126v-507c0 -60 23 -86 96 -86c7 0 10 -3 10 -10v-111c0 -7 -3 -11 -10 -11c-73 0 -129 18 -166 53l-8 7l-5 -4c-36 -34 -77 -56 -142 -56c-7 0 -10 4 -10 11v111c0 7 3 10 10 10c27 0 50 4 70 11c11 5 22 10 31 17c-1 11 -2 24 -2 37v528z" arabic-form="medial" glyph-name="uniFEE0" horiz-adv-x="321" unicode="ل"/>
<glyph d="M96 725h126v-528c0 -121 -75 -197 -222 -197c-7 0 -10 4 -10 11v111c0 7 3 10 10 10c73 0 96 26 96 86v507z" arabic-form="initial" glyph-name="uniFEDF" horiz-adv-x="300" unicode="ل"/>
<glyph d="M394 476c84 0 137 -50 168 -151l24 -83c21 -76 41 -110 80 -110c7 0 10 -3 10 -10v-111c0 -7 -3 -11 -10 -11c-57 0 -96 23 -125 58c-7 9 -14 19 -20 29l-21 -87c-115 0 -212 17 -275 60c-11 7 -21 16 -30 25c-27 -12 -41 -39 -41 -81c0 -63 9 -139 30 -279h-126 c-24 149 -30 228 -30 289c0 90 46 159 116 189l19 7l5 24c23 107 101 242 226 242zM479 193l-18 61c-19 63 -45 94 -78 94c-44 0 -94 -58 -122 -162c44 -26 95 -45 176 -53c19 -2 41 -3 64 -4c-8 21 -15 42 -22 64z" arabic-form="final" glyph-name="uniFEE2" horiz-adv-x="667" unicode="م"/>
<glyph d="M290 476c84 0 137 -50 168 -151l24 -83c21 -76 41 -110 80 -110c7 0 10 -3 10 -10v-111c0 -7 -3 -11 -10 -11c-57 0 -96 23 -125 58c-7 9 -14 19 -20 29l-21 -87c-57 0 -110 5 -157 14c-42 8 -78 21 -107 38l-27 -21c-29 -19 -62 -31 -105 -31c-7 0 -10 4 -10 11v111 c0 7 3 10 10 10c23 0 43 2 61 7c-3 11 -4 23 -4 35c0 108 83 302 233 302zM375 193l-18 61c-19 63 -45 94 -78 94c-44 0 -94 -58 -122 -162c44 -26 95 -45 176 -53c19 -2 41 -3 64 -4c-8 21 -15 42 -22 64z" arabic-form="medial" glyph-name="uniFEE4" horiz-adv-x="563" unicode="م"/>
<glyph d="M313 476c121 0 192 -111 211 -348l-87 -141c-67 0 -131 6 -192 18c-50 10 -96 25 -139 44l-2 -3c-27 -32 -59 -46 -104 -46c-7 1 -10 5 -10 11v111c0 7 3 10 10 10c40 0 51 31 99 152c49 125 111 192 214 192zM281 130c45 -7 87 -10 127 -10c-4 75 -15 131 -33 168 c-19 40 -42 60 -69 60c-52 0 -84 -37 -124 -144l-16 -40c37 -17 76 -28 115 -34z" arabic-form="initial" glyph-name="uniFEE3" horiz-adv-x="552" unicode="م"/>
<glyph d="M435 440h126c11 -73 19 -134 26 -190c2 -17 4 -33 5 -50l1 -6c7 -48 45 -62 101 -62c7 0 10 -3 10 -10v-111c0 -7 -3 -11 -10 -11c-42 0 -73 11 -92 34l-8 10c-3 -27 -9 -51 -17 -74c-38 -115 -136 -185 -283 -185c-171 0 -266 97 -266 277c0 89 17 143 44 223h117 c-27 -71 -43 -138 -43 -199c0 -99 45 -169 153 -169c117 0 175 62 175 186c0 82 -15 175 -39 337zM204 479l93 93l94 -93l-93 -93z" arabic-form="final" glyph-name="uniFEE6" horiz-adv-x="694" unicode="ن"/>
<glyph d="M109 370h116c0 -59 -3 -110 -10 -154c-3 -21 -8 -41 -13 -60c13 -7 27 -12 40 -15c23 -6 46 -9 69 -9c7 0 10 -3 10 -10v-111c0 -7 -3 -11 -10 -11c-37 0 -72 8 -103 25c-18 9 -36 22 -54 38c-13 -15 -27 -27 -43 -36c-29 -18 -66 -27 -111 -27c-7 0 -10 4 -10 11v111 c0 7 3 10 10 10c45 0 71 14 87 47c17 36 22 95 22 191zM69 534l93 93l94 -93l-93 -93z" arabic-form="medial" glyph-name="uniFEE8" horiz-adv-x="311" unicode="ن"/>
<glyph d="M67 485h125c21 -145 30 -221 30 -288c0 -121 -75 -197 -222 -197c-7 0 -10 4 -10 11v111c0 7 3 10 10 10c73 0 97 26 97 86c0 56 -9 125 -30 267zM31 639l93 93l94 -93l-93 -93z" arabic-form="initial" glyph-name="uniFEE7" horiz-adv-x="270" unicode="ن"/>
<glyph d="M435 440h126c11 -73 19 -134 26 -190c2 -17 4 -33 5 -50l1 -6c7 -48 45 -62 101 -62c7 0 10 -3 10 -10v-111c0 -7 -3 -11 -10 -11c-42 0 -73 11 -92 34l-8 10c-3 -27 -9 -51 -17 -74c-38 -115 -136 -185 -283 -185c-171 0 -266 97 -266 277c0 89 17 143 44 223h117 c-27 -71 -43 -138 -43 -199c0 -99 45 -169 153 -169c117 0 175 62 175 186c0 82 -15 175 -39 337z" arabic-form="final" glyph-name="uniFB9F" horiz-adv-x="694" unicode="ں"/>
<glyph d="M307 565v125c308 0 488 -142 488 -386c0 -51 -16 -127 -43 -203l-119 -114c-89 0 -164 16 -247 46l-27 10l-22 -8c-68 -22 -138 -35 -192 -35c-43 0 -88 8 -135 23v127c43 -11 89 -18 129 -18c11 0 22 0 33 1l-16 18c-29 36 -44 78 -44 126c0 121 93 225 225 225 c129 0 223 -95 223 -225c0 -45 -18 -87 -47 -124c-5 -7 -11 -15 -18 -22c11 -2 21 -4 31 -5c33 -5 65 -7 105 -7c27 64 40 128 40 179c0 151 -127 267 -364 267zM409 186c17 23 26 48 26 76c0 67 -42 111 -103 111c-60 0 -102 -44 -102 -108c0 -28 9 -54 26 -77 c17 -22 42 -39 74 -50c37 11 63 27 79 48z" arabic-form="isolated" glyph-name="uniFEE9" horiz-adv-x="833" unicode="ه"/>
<glyph d="M342 538h126v-336c0 -44 16 -70 69 -70c7 0 10 -3 10 -10v-111c0 -7 -3 -11 -10 -11c-33 0 -62 5 -87 15c-22 9 -40 20 -55 35c-23 -13 -45 -24 -66 -33c-27 -11 -57 -17 -89 -17c-131 0 -212 77 -212 201c0 89 51 188 188 249c36 15 78 27 126 34v54zM214 324 c-42 -29 -63 -66 -63 -111c0 -53 32 -84 91 -84c23 0 46 3 67 8c13 3 25 6 38 11c-3 19 -5 39 -5 60v164c-53 -10 -96 -26 -128 -48z" arabic-form="final" glyph-name="uniFEEA" horiz-adv-x="537" unicode="ه"/>
<glyph d="M257 572h102c89 -80 145 -179 145 -279c0 -50 -13 -93 -40 -130c-5 -7 -11 -14 -17 -21l24 -4c27 -4 53 -6 80 -6c7 0 10 -4 10 -11v-111c0 -7 -3 -10 -10 -10c-15 0 -29 1 -43 4c-11 2 -23 6 -38 11c10 -13 18 -26 23 -38c6 -15 9 -30 9 -45c0 -88 -69 -147 -174 -147 c-141 0 -228 80 -264 197l-6 19c-19 -1 -38 -1 -58 -1c-7 0 -10 4 -10 11v111c0 7 3 10 10 10h46c1 37 6 73 14 109c30 129 97 247 197 331zM162 141l15 3c146 24 201 79 201 146c0 40 -10 75 -29 106c-15 24 -34 47 -57 69c-16 -15 -31 -33 -45 -53 c-36 -52 -62 -114 -75 -181c-6 -31 -9 -61 -10 -90zM195 18l-12 -3c7 -17 16 -31 25 -44c29 -39 68 -59 111 -59s73 16 73 52c0 19 -5 38 -16 56c-7 14 -18 29 -33 45c-43 -21 -92 -36 -148 -47z" arabic-form="medial" glyph-name="uniFEEC" horiz-adv-x="551" unicode="ه"/>
<glyph d="M238 565v125c308 0 488 -142 488 -386c0 -51 -15 -127 -43 -203l-119 -114c-89 0 -164 16 -247 46c-9 3 -18 7 -28 10l-20 -6c-74 -23 -176 -37 -269 -37c-7 1 -10 5 -10 11v111c0 7 3 10 10 10c39 0 73 1 100 4c-5 5 -9 10 -13 15c-29 36 -44 78 -44 126 c0 121 93 225 225 225c129 0 223 -95 223 -225c0 -44 -18 -87 -46 -124c-6 -7 -12 -15 -19 -22c11 -2 21 -4 31 -5c33 -5 65 -7 105 -7c27 64 40 128 40 179c0 151 -127 267 -364 267zM341 186c17 23 26 48 26 76c0 67 -43 111 -104 111c-60 0 -101 -44 -101 -108 c0 -28 9 -54 26 -77c17 -22 41 -39 73 -50c37 11 64 27 80 48z" arabic-form="initial" glyph-name="uniFEEB" horiz-adv-x="764" unicode="ه"/>
<glyph d="M304 445c87 0 142 -49 202 -168c32 -61 59 -145 123 -145c7 0 10 -3 10 -10v-111c0 -7 -3 -11 -10 -11c-96 0 -155 47 -208 178c-37 90 -61 134 -117 134c-49 0 -80 -35 -131 -151l-37 -84l-108 50l37 84c75 171 138 234 239 234z" arabic-form="final" glyph-name="uniFBA7" horiz-adv-x="629" unicode="ہ"/>
<glyph d="M110 370h128v-330c0 -63 15 -108 44 -137c27 -27 69 -41 125 -44v40c0 149 73 233 205 233h124c7 0 10 -4 10 -11v-111c0 -7 -3 -10 -10 -10h-119c-68 0 -96 -36 -96 -120v-51l-98 -104c-107 0 -186 26 -237 77c-50 51 -75 128 -76 233l-2 -1c-28 -21 -63 -34 -108 -34 c-7 0 -10 4 -10 11v111c0 7 3 10 10 10c55 0 110 15 110 82v156zM613 -45h94l-47 -102h63l-20 -128h-140v126z" arabic-form="medial" glyph-name="uniFBA9" horiz-adv-x="736" unicode="ہ"/>
<glyph d="M83 -45h94l-47 -102h63l-20 -128h-140v126zM67 485h125c21 -145 30 -221 30 -288c0 -121 -75 -197 -222 -197c-7 0 -10 4 -10 11v111c0 7 3 10 10 10c73 0 97 26 97 86c0 56 -9 125 -30 267z" arabic-form="initial" glyph-name="uniFBA8" horiz-adv-x="274" unicode="ہ"/>
<glyph d="M342 538h126v-336c0 -44 16 -70 69 -70c7 0 10 -3 10 -10v-111c0 -7 -3 -11 -10 -11c-33 0 -62 5 -87 15c-22 9 -40 20 -55 35c-23 -13 -45 -24 -66 -33c-27 -11 -57 -17 -89 -17c-131 0 -212 77 -212 201c0 89 51 188 188 249c36 15 78 27 126 34v54zM214 324 c-42 -29 -63 -66 -63 -111c0 -53 32 -84 91 -84c23 0 46 3 67 8c13 3 25 6 38 11c-3 19 -5 39 -5 60v164c-53 -10 -96 -26 -128 -48zM410 676h110l-20 -75h-167c-23 0 -40 -1 -75 -12v73c17 6 30 10 40 11l22 3c-15 14 -22 32 -22 54c0 52 43 92 97 92c36 0 66 -9 87 -20 v-70c-32 12 -47 16 -66 16c-25 0 -47 -15 -47 -39c0 -11 5 -19 14 -25c7 -5 16 -7 27 -8z" glyph-name="uni06C2.fina" horiz-adv-x="537" unicode="ۂ"/>
<glyph d="M329 575h102c91 -80 146 -182 146 -282c0 -58 -19 -108 -58 -150c9 -2 17 -4 26 -5c27 -4 53 -6 80 -6c7 0 10 -4 10 -11v-111c0 -7 -3 -10 -10 -10c-15 0 -30 1 -44 4c-11 2 -23 6 -37 11c10 -13 18 -26 23 -38c6 -15 9 -30 9 -45c0 -88 -70 -147 -174 -147 c-95 0 -165 37 -212 97c-13 17 -25 36 -35 57c-24 -17 -49 -37 -76 -59l-71 93c38 35 76 65 114 91c-1 19 -2 38 -2 57c0 168 70 334 209 454zM240 128l56 22c107 33 156 80 156 140c0 40 -10 76 -30 107c-16 26 -36 50 -59 71c-15 -15 -28 -31 -41 -50 c-51 -75 -82 -175 -82 -277v-13zM339 34c-25 -9 -49 -18 -72 -29c5 -11 11 -22 18 -31c28 -40 66 -62 107 -62c44 0 73 16 73 52c0 19 -5 38 -16 56c-8 14 -19 29 -34 46c-23 -12 -49 -23 -76 -32z" arabic-form="final" glyph-name="uniFBAB" horiz-adv-x="624" unicode="ھ"/>
<glyph d="M257 572h102c89 -80 145 -179 145 -279c0 -50 -13 -93 -40 -130c-5 -7 -11 -14 -17 -21l24 -4c27 -4 53 -6 80 -6c7 0 10 -4 10 -11v-111c0 -7 -3 -10 -10 -10c-15 0 -29 1 -43 4c-11 2 -23 6 -38 11c10 -13 18 -26 23 -38c6 -15 9 -30 9 -45c0 -88 -69 -147 -174 -147 c-141 0 -228 80 -264 197l-6 19c-19 -1 -38 -1 -58 -1c-7 0 -10 4 -10 11v111c0 7 3 10 10 10h46c1 37 6 73 14 109c30 129 97 247 197 331zM162 141l15 3c146 24 201 79 201 146c0 40 -10 75 -29 106c-15 24 -34 47 -57 69c-16 -15 -31 -33 -45 -53 c-36 -52 -62 -114 -75 -181c-6 -31 -9 -61 -10 -90zM195 18l-12 -3c7 -17 16 -31 25 -44c29 -39 68 -59 111 -59s73 16 73 52c0 19 -5 38 -16 56c-7 14 -18 29 -33 45c-43 -21 -92 -36 -148 -47z" arabic-form="medial" glyph-name="uniFBAD" horiz-adv-x="551" unicode="ھ"/>
<glyph d="M238 565v125c308 0 488 -142 488 -386c0 -51 -15 -127 -43 -203l-119 -114c-89 0 -164 16 -247 46c-9 3 -18 7 -28 10l-20 -6c-74 -23 -176 -37 -269 -37c-7 1 -10 5 -10 11v111c0 7 3 10 10 10c39 0 73 1 100 4c-5 5 -9 10 -13 15c-29 36 -44 78 -44 126 c0 121 93 225 225 225c129 0 223 -95 223 -225c0 -44 -18 -87 -46 -124c-6 -7 -12 -15 -19 -22c11 -2 21 -4 31 -5c33 -5 65 -7 105 -7c27 64 40 128 40 179c0 151 -127 267 -364 267zM341 186c17 23 26 48 26 76c0 67 -43 111 -104 111c-60 0 -101 -44 -101 -108 c0 -28 9 -54 26 -77c17 -22 41 -39 73 -50c37 11 64 27 80 48z" arabic-form="initial" glyph-name="uniFBAC" horiz-adv-x="764" unicode="ھ"/>
<glyph d="M342 538h126v-336c0 -44 16 -70 69 -70c7 0 10 -3 10 -10v-111c0 -7 -3 -11 -10 -11c-33 0 -62 5 -87 15c-22 9 -40 20 -55 35c-23 -13 -45 -24 -66 -33c-27 -11 -57 -17 -89 -17c-131 0 -212 77 -212 201c0 89 51 188 188 249c36 15 78 27 126 34v54zM214 324 c-42 -29 -63 -66 -63 -111c0 -53 32 -84 91 -84c23 0 46 3 67 8c13 3 25 6 38 11c-3 19 -5 39 -5 60v164c-53 -10 -96 -26 -128 -48zM198 693l93 94l77 -75l75 75l94 -94l-92 -93l-77 74l-76 -74z" arabic-form="final" glyph-name="uniFE94" horiz-adv-x="537" unicode="ة"/>
<glyph d="M304 445c87 0 142 -49 202 -168c32 -61 59 -145 123 -145c7 0 10 -3 10 -10v-111c0 -7 -3 -11 -10 -11c-96 0 -155 47 -208 178c-37 90 -61 134 -117 134c-49 0 -80 -35 -131 -151l-37 -84l-108 50l37 84c75 171 138 234 239 234zM128 609l93 94l77 -75l75 75l94 -94 l-92 -93l-77 74l-76 -74z" glyph-name="uni06C3.fina" horiz-adv-x="629" unicode="ۃ"/>
<glyph d="M272 492c125 0 210 -84 218 -235l3 -84c1 -13 1 -26 1 -41h57c7 0 10 -3 10 -10v-111c0 -7 -3 -11 -10 -11h-58c-3 -20 -8 -39 -15 -58c-37 -96 -148 -157 -355 -157v114c83 0 146 12 188 37c29 17 48 39 57 64h-68c-159 0 -262 91 -262 240c0 145 100 252 234 252z M371 155l-6 92c-5 79 -39 115 -99 115s-107 -47 -107 -118c0 -77 55 -115 156 -115c27 0 42 1 57 1c-1 9 -1 18 -1 25z" arabic-form="final" glyph-name="uniFEEE" horiz-adv-x="551" unicode="و"/>
<glyph d="M272 492c125 0 210 -84 218 -235l3 -84c1 -13 1 -26 1 -41h57c7 0 10 -3 10 -10v-111c0 -7 -3 -11 -10 -11h-58c-3 -20 -8 -39 -15 -58c-37 -96 -148 -157 -355 -157v114c83 0 146 12 188 37c29 17 48 39 57 64h-68c-159 0 -262 91 -262 240c0 145 100 252 234 252z M371 155l-6 92c-5 79 -39 115 -99 115s-107 -47 -107 -118c0 -77 55 -115 156 -115c27 0 42 1 57 1c-1 9 -1 18 -1 25zM304 659h93l-29 -95h-130c-33 0 -58 -2 -106 -17v92c24 8 40 13 55 16l-1 1c-13 14 -20 32 -20 55c0 57 43 104 116 104c21 0 46 -7 75 -21v-86 c-32 11 -48 14 -71 14c-27 0 -44 -13 -44 -32c0 -23 23 -31 62 -31z" arabic-form="final" glyph-name="uniFE86" horiz-adv-x="551" unicode="ؤ"/>
<glyph d="M474 40v126c112 -29 149 -34 204 -34c7 0 10 -3 10 -10v-111c0 -7 -3 -11 -10 -11h-2c-29 -65 -71 -116 -126 -152c-63 -42 -143 -63 -238 -63c-170 0 -284 98 -284 277c0 89 17 143 44 223h117c-27 -71 -43 -138 -43 -199c0 -119 66 -169 190 -169c63 0 117 12 162 37 c29 16 52 36 69 59l-30 8z" arabic-form="final" glyph-name="uniFEF0" horiz-adv-x="679" unicode="ى"/>
<glyph d="M474 40v126c112 -29 149 -34 204 -34c7 0 10 -3 10 -10v-111c0 -7 -3 -11 -10 -11h-2c-29 -65 -71 -116 -126 -152c-63 -42 -143 -63 -238 -63c-170 0 -284 98 -284 277c0 89 17 143 44 223h117c-27 -71 -43 -138 -43 -199c0 -119 66 -169 190 -169c63 0 117 12 162 37 c29 16 52 36 69 59l-30 8zM228 -351l93 93l75 -72l73 72l94 -93l-93 -93l-74 73l-73 -73z" arabic-form="final" glyph-name="uniFEF2" horiz-adv-x="679" unicode="ي"/>
<glyph d="M139 370h117c0 -54 -3 -103 -8 -146c-3 -19 -6 -36 -10 -52c19 -11 39 -21 61 -28c27 -8 52 -12 76 -12c7 0 10 -3 10 -10v-111c0 -7 -3 -11 -10 -11c-38 0 -75 10 -111 29c-23 13 -46 29 -67 49c-16 -21 -36 -37 -60 -50c-35 -19 -80 -28 -137 -28c-7 0 -10 4 -10 11 v111c0 7 3 10 10 10c59 0 94 14 113 45c24 39 26 101 26 193zM3 -154l93 93l75 -72l73 72l94 -93l-93 -93l-74 73l-73 -73z" arabic-form="medial" glyph-name="uniFEF4" horiz-adv-x="375" unicode="ي"/>
<glyph d="M148 485h126c21 -144 30 -221 30 -288c0 -121 -75 -197 -222 -197h-82c-7 0 -10 4 -10 11v111c0 7 3 10 10 10h82c73 0 96 26 96 86c0 56 -9 125 -30 267zM-20 -153l93 93l75 -72l73 72l94 -93l-93 -93l-74 73l-73 -73z" arabic-form="initial" glyph-name="uniFEF3" horiz-adv-x="348" unicode="ي"/>
<glyph d="M474 40v126c112 -29 149 -34 204 -34c7 0 10 -3 10 -10v-111c0 -7 -3 -11 -10 -11h-2c-29 -65 -71 -116 -126 -152c-63 -42 -143 -63 -238 -63c-170 0 -284 98 -284 277c0 89 17 143 44 223h117c-27 -71 -43 -138 -43 -199c0 -119 66 -169 190 -169c63 0 117 12 162 37 c29 16 52 36 69 59l-30 8zM531 353h93l-29 -95h-130c-33 0 -58 -2 -106 -17v92c24 8 40 13 55 16l-1 1c-13 14 -20 32 -20 55c0 57 43 104 116 104c21 0 46 -7 75 -21v-86c-32 11 -48 14 -71 14c-27 0 -44 -13 -44 -32c0 -23 23 -31 62 -31z" arabic-form="final" glyph-name="uniFE8A" horiz-adv-x="679" unicode="ئ"/>
<glyph d="M139 370h117c0 -54 -3 -103 -8 -146c-3 -19 -6 -36 -10 -52c19 -11 39 -21 61 -28c27 -8 52 -12 76 -12c7 0 10 -3 10 -10v-111c0 -7 -3 -11 -10 -11c-38 0 -75 10 -111 29c-23 13 -46 29 -67 49c-16 -21 -36 -37 -60 -50c-35 -19 -80 -28 -137 -28c-7 0 -10 4 -10 11 v111c0 7 3 10 10 10c59 0 94 14 113 45c24 39 26 101 26 193zM244 537h93l-29 -95h-130c-33 0 -58 -2 -106 -17v92c24 8 40 13 55 16l-1 1c-13 14 -20 32 -20 55c0 57 43 104 116 104c21 0 46 -7 75 -21v-86c-32 11 -48 14 -71 14c-27 0 -44 -13 -44 -32 c0 -23 23 -31 62 -31z" arabic-form="medial" glyph-name="uniFE8C" horiz-adv-x="375" unicode="ئ"/>
<glyph d="M148 485h126c21 -144 30 -221 30 -288c0 -121 -75 -197 -222 -197h-82c-7 0 -10 4 -10 11v111c0 7 3 10 10 10h82c73 0 96 26 96 86c0 56 -9 125 -30 267zM249 634h93l-29 -95h-130c-33 0 -58 -2 -106 -17v92c24 8 40 13 55 16l-1 1c-13 14 -20 32 -20 55 c0 57 43 104 116 104c21 0 46 -7 75 -21v-86c-32 11 -48 14 -71 14c-27 0 -44 -13 -44 -32c0 -23 23 -31 62 -31z" arabic-form="initial" glyph-name="uniFE8B" horiz-adv-x="348" unicode="ئ"/>
<glyph d="M474 40v126c112 -29 149 -34 204 -34c7 0 10 -3 10 -10v-111c0 -7 -3 -11 -10 -11h-2c-29 -65 -71 -116 -126 -152c-63 -42 -143 -63 -238 -63c-170 0 -284 98 -284 277c0 89 17 143 44 223h117c-27 -71 -43 -138 -43 -199c0 -119 66 -169 190 -169c63 0 117 12 162 37 c29 16 52 36 69 59l-30 8z" arabic-form="final" glyph-name="uniFBFD" horiz-adv-x="679" unicode="ی"/>
<glyph d="M139 370h117c0 -54 -3 -103 -8 -146c-3 -19 -6 -36 -10 -52c19 -11 39 -21 61 -28c27 -8 52 -12 76 -12c7 0 10 -3 10 -10v-111c0 -7 -3 -11 -10 -11c-38 0 -75 10 -111 29c-23 13 -46 29 -67 49c-16 -21 -36 -37 -60 -50c-35 -19 -80 -28 -137 -28c-7 0 -10 4 -10 11 v111c0 7 3 10 10 10c59 0 94 14 113 45c24 39 26 101 26 193zM3 -154l93 93l75 -72l73 72l94 -93l-93 -93l-74 73l-73 -73z" arabic-form="medial" glyph-name="uniFBFF" horiz-adv-x="375" unicode="ی"/>
<glyph d="M148 485h126c21 -144 30 -221 30 -288c0 -121 -75 -197 -222 -197h-82c-7 0 -10 4 -10 11v111c0 7 3 10 10 10h82c73 0 96 26 96 86c0 56 -9 125 -30 267zM-20 -153l93 93l75 -72l73 72l94 -93l-93 -93l-74 73l-73 -73z" arabic-form="initial" glyph-name="uniFBFE" horiz-adv-x="348" unicode="ی"/>
<glyph d="M279 134h464c7 0 10 -3 10 -10v-113c0 -7 -3 -11 -10 -11h-493c-56 0 -84 -15 -84 -44c0 -33 43 -45 106 -45h364l-52 -126h-287c-173 0 -259 56 -259 168c0 121 80 181 241 181z" arabic-form="final" glyph-name="uniFBAF" horiz-adv-x="742" unicode="ے"/>
<glyph d="M279 134h464c7 0 10 -3 10 -10v-113c0 -7 -3 -11 -10 -11h-493c-56 0 -84 -15 -84 -44c0 -33 43 -45 106 -45h364l-52 -126h-287c-173 0 -259 56 -259 168c0 121 80 181 241 181zM375 332h93l-29 -95h-130c-33 0 -58 -2 -106 -17v92c24 8 40 13 55 16l-1 1 c-13 14 -20 32 -20 55c0 57 43 104 116 104c21 0 46 -7 75 -21v-86c-32 11 -48 14 -71 14c-27 0 -44 -13 -44 -32c0 -23 23 -31 62 -31z" arabic-form="final" glyph-name="uniFBB1" horiz-adv-x="742" unicode="ۓ"/>
<glyph d="M443 461l107 -60c-13 -56 -21 -117 -21 -161c0 -68 25 -108 81 -108c7 0 10 -3 10 -10v-111c0 -7 -3 -11 -10 -11c-133 0 -196 59 -196 184c0 27 1 54 4 81l9 63c-30 -15 -59 -28 -86 -38c-29 -10 -60 -18 -95 -24c2 -17 4 -32 5 -47c6 -59 8 -116 8 -197 c0 -156 -107 -237 -267 -237v114c77 0 146 41 146 131c0 109 -7 165 -26 328l10 12c129 11 226 44 321 91zM304 -153l93 93l94 -93l-93 -93z" arabic-form="final" glyph-name="uniFC6A" horiz-adv-x="610" unicode="ﱪ"/>
<glyph d="M443 461l107 -60c-13 -56 -21 -117 -21 -161c0 -68 25 -108 81 -108c7 0 10 -3 10 -10v-111c0 -7 -3 -11 -10 -11c-133 0 -196 59 -196 184c0 27 1 54 4 81l9 63c-30 -15 -59 -28 -86 -38c-29 -10 -60 -18 -95 -24c2 -17 4 -32 5 -47c6 -59 8 -116 8 -197 c0 -156 -107 -237 -267 -237v114c77 0 146 41 146 131c0 109 -7 165 -26 328l10 12c129 11 226 44 321 91zM46 552l93 93l94 -93l-93 -93zM304 -153l93 93l94 -93l-93 -93z" arabic-form="final" glyph-name="uniFC6B" horiz-adv-x="610" unicode="ﱫ"/>
<glyph d="M395 532h10l79 -77c-63 -60 -89 -104 -89 -157c0 -35 12 -65 35 -92c20 -23 48 -46 83 -71l19 -13l-67 -118c-33 4 -64 14 -92 31c-21 13 -39 27 -54 42c-12 4 -23 7 -34 9c-19 4 -36 6 -52 6c-53 0 -79 -29 -79 -88c0 -63 9 -139 30 -279h-126c-24 149 -30 228 -30 289 c0 121 81 208 195 208c15 0 32 -1 49 -4c8 -1 16 -2 25 -4c-19 34 -28 70 -28 107c0 76 46 152 126 211zM244 -153l93 93l94 -93l-93 -93z" arabic-form="isolated" glyph-name="uniFC08" horiz-adv-x="560" unicode="ﰈ"/>
<glyph d="M781 461l107 -60c-15 -56 -22 -117 -21 -161c0 -68 25 -108 81 -108c7 0 10 -3 10 -10v-111c0 -7 -3 -11 -10 -11c-136 0 -197 59 -197 184c0 27 2 54 5 81c2 21 5 41 9 62c-28 -14 -55 -26 -81 -35c-29 -11 -62 -20 -98 -27l7 -80c3 -29 4 -58 4 -88 c0 -187 -106 -312 -303 -312c-171 0 -266 97 -266 277c0 89 17 143 44 223h117c-27 -71 -43 -138 -43 -199c0 -99 45 -169 153 -169c119 0 172 61 172 186c0 79 -6 135 -22 255l10 12c129 10 227 43 322 91zM616 -154l93 93l94 -93l-93 -93zM201 479l93 93l94 -93l-93 -93z " arabic-form="final" glyph-name="uniFC6D" horiz-adv-x="948" unicode="ﱭ"/>
<glyph d="M661 485h126c21 -144 29 -221 29 -288c0 -64 -19 -113 -57 -147c-25 -22 -58 -37 -97 -44c-28 -68 -69 -121 -124 -158c-61 -42 -139 -63 -234 -63c-171 0 -276 98 -276 277c0 89 17 143 44 223h117c-27 -71 -43 -138 -43 -199c0 -119 59 -169 182 -169 c63 0 115 12 158 37c22 13 41 28 56 46l-35 2c-32 3 -65 6 -93 10l15 129c48 -5 119 -9 166 -9c73 0 96 26 96 86c0 56 -9 125 -30 267zM641 -153l93 93l94 -93l-93 -93z" arabic-form="isolated" glyph-name="uniFC09" horiz-adv-x="876" unicode="ﰉ"/>
<glyph d="M697 500l113 -66c-17 -73 -30 -147 -30 -194c0 -68 40 -108 120 -108c7 0 10 -3 10 -10v-111c0 -7 -3 -11 -10 -11c-144 0 -236 77 -236 205c0 26 2 55 5 88c3 26 7 52 12 77c-38 -3 -71 -9 -100 -16c-96 -24 -140 -68 -140 -104c0 -27 14 -45 69 -80l35 -24 c72 -48 103 -96 103 -159c0 -117 -121 -202 -305 -202c-215 0 -315 92 -315 277c0 89 17 143 44 223h117c-27 -71 -43 -138 -43 -199c0 -120 63 -171 230 -171c85 0 154 26 154 63c0 23 -29 47 -70 75l-48 34c-60 43 -89 90 -89 155c0 108 101 231 374 258zM679 -153l93 93 l94 -93l-93 -93z" arabic-form="final" glyph-name="uniFC6E" horiz-adv-x="899" unicode="ﱮ"/>
<glyph d="M661 485h126c21 -144 29 -221 29 -288c0 -64 -19 -113 -57 -147c-25 -22 -58 -37 -97 -44c-28 -68 -69 -121 -124 -158c-61 -42 -139 -63 -234 -63c-171 0 -276 98 -276 277c0 89 17 143 44 223h117c-27 -71 -43 -138 -43 -199c0 -119 59 -169 182 -169 c63 0 115 12 158 37c22 13 41 28 56 46l-35 2c-32 3 -65 6 -93 10l15 129c48 -5 119 -9 166 -9c73 0 96 26 96 86c0 56 -9 125 -30 267zM641 -153l93 93l94 -93l-93 -93zM240 -355l93 93l75 -72l73 72l94 -93l-93 -93l-74 73l-73 -73z" arabic-form="isolated" glyph-name="uniFC0A" horiz-adv-x="876" unicode="ﰊ"/>
<glyph d="M697 500l113 -66c-17 -73 -30 -147 -30 -194c0 -68 40 -108 120 -108c7 0 10 -3 10 -10v-111c0 -7 -3 -11 -10 -11c-144 0 -236 77 -236 205c0 26 2 55 5 88c3 26 7 52 12 77c-38 -3 -71 -9 -100 -16c-96 -24 -140 -68 -140 -104c0 -27 14 -45 69 -80l35 -24 c72 -48 103 -96 103 -159c0 -117 -121 -202 -305 -202c-215 0 -315 92 -315 277c0 89 17 143 44 223h117c-27 -71 -43 -138 -43 -199c0 -120 63 -171 230 -171c85 0 154 26 154 63c0 23 -29 47 -70 75l-48 34c-60 43 -89 90 -89 155c0 108 101 231 374 258zM679 -153l93 93 l94 -93l-93 -93zM240 -355l93 93l75 -72l73 72l94 -93l-93 -93l-74 73l-73 -73z" arabic-form="final" glyph-name="uniFC6F" horiz-adv-x="899" unicode="ﱯ"/>
<glyph d="M443 461l107 -60c-13 -56 -21 -117 -21 -161c0 -68 25 -108 81 -108c7 0 10 -3 10 -10v-111c0 -7 -3 -11 -10 -11c-133 0 -196 59 -196 184c0 27 1 54 4 81l9 63c-30 -15 -59 -28 -86 -38c-29 -10 -60 -18 -95 -24c2 -17 4 -32 5 -47c6 -59 8 -116 8 -197 c0 -156 -107 -237 -267 -237v114c77 0 146 41 146 131c0 109 -7 165 -26 328l10 12c129 11 226 44 321 91zM267 632l93 94l77 -75l75 75l94 -94l-92 -93l-77 74l-76 -74z" arabic-form="final" glyph-name="uniFC70" horiz-adv-x="610" unicode="ﱰ"/>
<glyph d="M443 461l107 -60c-13 -56 -21 -117 -21 -161c0 -68 25 -108 81 -108c7 0 10 -3 10 -10v-111c0 -7 -3 -11 -10 -11c-133 0 -196 59 -196 184c0 27 1 54 4 81l9 63c-30 -15 -59 -28 -86 -38c-29 -10 -60 -18 -95 -24c2 -17 4 -32 5 -47c6 -59 8 -116 8 -197 c0 -156 -107 -237 -267 -237v114c77 0 146 41 146 131c0 109 -7 165 -26 328l10 12c129 11 226 44 321 91zM46 552l93 93l94 -93l-93 -93zM285 632l93 94l77 -75l75 75l94 -94l-92 -93l-77 74l-76 -74z" arabic-form="final" glyph-name="uniFC71" horiz-adv-x="610" unicode="ﱱ"/>
<glyph d="M395 532h10l79 -77c-63 -60 -89 -104 -89 -157c0 -35 12 -65 35 -92c20 -23 48 -46 83 -71l19 -13l-67 -118c-33 4 -64 14 -92 31c-21 13 -39 27 -54 42c-12 4 -23 7 -34 9c-19 4 -36 6 -52 6c-53 0 -79 -29 -79 -88c0 -63 9 -139 30 -279h-126c-24 149 -30 228 -30 289 c0 121 81 208 195 208c15 0 32 -1 49 -4c8 -1 16 -2 25 -4c-19 34 -28 70 -28 107c0 76 46 152 126 211zM234 671l93 94l77 -75l75 75l94 -94l-92 -93l-77 74l-76 -74z" arabic-form="isolated" glyph-name="uniFC0E" horiz-adv-x="560" unicode="ﰎ"/>
<glyph d="M781 461l107 -60c-15 -56 -22 -117 -21 -161c0 -68 25 -108 81 -108c7 0 10 -3 10 -10v-111c0 -7 -3 -11 -10 -11c-136 0 -197 59 -197 184c0 27 2 54 5 81c2 21 5 41 9 62c-28 -14 -55 -26 -81 -35c-29 -11 -62 -20 -98 -27l7 -80c3 -29 4 -58 4 -88 c0 -187 -106 -312 -303 -312c-171 0 -266 97 -266 277c0 89 17 143 44 223h117c-27 -71 -43 -138 -43 -199c0 -99 45 -169 153 -169c119 0 172 61 172 186c0 79 -6 135 -22 255l10 12c129 10 227 43 322 91zM600 633l93 94l77 -75l75 75l94 -94l-92 -93l-77 74l-76 -74z M201 479l93 93l94 -93l-93 -93z" arabic-form="final" glyph-name="uniFC73" horiz-adv-x="948" unicode="ﱳ"/>
<glyph d="M661 485h126c21 -144 29 -221 29 -288c0 -64 -19 -113 -57 -147c-25 -22 -58 -37 -97 -44c-28 -68 -69 -121 -124 -158c-61 -42 -139 -63 -234 -63c-171 0 -276 98 -276 277c0 89 17 143 44 223h117c-27 -71 -43 -138 -43 -199c0 -119 59 -169 182 -169 c63 0 115 12 158 37c22 13 41 28 56 46l-35 2c-32 3 -65 6 -93 10l15 129c48 -5 119 -9 166 -9c73 0 96 26 96 86c0 56 -9 125 -30 267zM552 644l93 94l77 -75l75 75l94 -94l-92 -93l-77 74l-76 -74z" arabic-form="isolated" glyph-name="uniFC0F" horiz-adv-x="911" unicode="ﰏ"/>
<glyph d="M697 500l113 -66c-17 -73 -30 -147 -30 -194c0 -68 40 -108 120 -108c7 0 10 -3 10 -10v-111c0 -7 -3 -11 -10 -11c-144 0 -236 77 -236 205c0 26 2 55 5 88c3 26 7 52 12 77c-38 -3 -71 -9 -100 -16c-96 -24 -140 -68 -140 -104c0 -27 14 -45 69 -80l35 -24 c72 -48 103 -96 103 -159c0 -117 -121 -202 -305 -202c-215 0 -315 92 -315 277c0 89 17 143 44 223h117c-27 -71 -43 -138 -43 -199c0 -120 63 -171 230 -171c85 0 154 26 154 63c0 23 -29 47 -70 75l-48 34c-60 43 -89 90 -89 155c0 108 101 231 374 258zM508 664l93 94 l77 -75l75 75l94 -94l-92 -93l-77 74l-76 -74z" arabic-form="final" glyph-name="uniFC74" horiz-adv-x="899" unicode="ﱴ"/>
<glyph d="M661 485h126c21 -144 29 -221 29 -288c0 -64 -19 -113 -57 -147c-25 -22 -58 -37 -97 -44c-28 -68 -69 -121 -124 -158c-61 -42 -139 -63 -234 -63c-171 0 -276 98 -276 277c0 89 17 143 44 223h117c-27 -71 -43 -138 -43 -199c0 -119 59 -169 182 -169 c63 0 115 12 158 37c22 13 41 28 56 46l-35 2c-32 3 -65 6 -93 10l15 129c48 -5 119 -9 166 -9c73 0 96 26 96 86c0 56 -9 125 -30 267zM552 644l93 94l77 -75l75 75l94 -94l-92 -93l-77 74l-76 -74zM240 -355l93 93l75 -72l73 72l94 -93l-93 -93l-74 73l-73 -73z" arabic-form="isolated" glyph-name="uniFC10" horiz-adv-x="911" unicode="ﰐ"/>
<glyph d="M697 500l113 -66c-17 -73 -30 -147 -30 -194c0 -68 40 -108 120 -108c7 0 10 -3 10 -10v-111c0 -7 -3 -11 -10 -11c-144 0 -236 77 -236 205c0 26 2 55 5 88c3 26 7 52 12 77c-38 -3 -71 -9 -100 -16c-96 -24 -140 -68 -140 -104c0 -27 14 -45 69 -80l35 -24 c72 -48 103 -96 103 -159c0 -117 -121 -202 -305 -202c-215 0 -315 92 -315 277c0 89 17 143 44 223h117c-27 -71 -43 -138 -43 -199c0 -120 63 -171 230 -171c85 0 154 26 154 63c0 23 -29 47 -70 75l-48 34c-60 43 -89 90 -89 155c0 108 101 231 374 258zM508 664l93 94 l77 -75l75 75l94 -94l-92 -93l-77 74l-76 -74zM241 -355l93 93l75 -72l73 72l94 -93l-93 -93l-74 73l-73 -73z" arabic-form="final" glyph-name="uniFC75" horiz-adv-x="899" unicode="ﱵ"/>
<glyph d="M443 461l107 -60c-13 -56 -21 -117 -21 -161c0 -68 25 -108 81 -108c7 0 10 -3 10 -10v-111c0 -7 -3 -11 -10 -11c-133 0 -196 59 -196 184c0 27 1 54 4 81l9 63c-30 -15 -59 -28 -86 -38c-29 -10 -60 -18 -95 -24c2 -17 4 -32 5 -47c6 -59 8 -116 8 -197 c0 -156 -107 -237 -267 -237v114c77 0 146 41 146 131c0 109 -7 165 -26 328l10 12c129 11 226 44 321 91zM265 632l93 93l79 -78l80 78l94 -93l-93 -94l-81 78l-78 -78zM368 765l69 71l71 -71l-70 -70z" arabic-form="final" glyph-name="uniFC76" horiz-adv-x="610" unicode="ﱶ"/>
<glyph d="M443 461l107 -60c-13 -56 -21 -117 -21 -161c0 -68 25 -108 81 -108c7 0 10 -3 10 -10v-111c0 -7 -3 -11 -10 -11c-133 0 -196 59 -196 184c0 27 1 54 4 81l9 63c-30 -15 -59 -28 -86 -38c-29 -10 -60 -18 -95 -24c2 -17 4 -32 5 -47c6 -59 8 -116 8 -197 c0 -156 -107 -237 -267 -237v114c77 0 146 41 146 131c0 109 -7 165 -26 328l10 12c129 11 226 44 321 91zM46 552l93 93l94 -93l-93 -93zM280 632l93 93l79 -78l80 78l94 -93l-93 -94l-81 78l-78 -78zM383 765l69 71l71 -71l-70 -70z" arabic-form="final" glyph-name="uniFC77" horiz-adv-x="610" unicode="ﱷ"/>
<glyph d="M395 532h10l79 -77c-63 -60 -89 -104 -89 -157c0 -35 12 -65 35 -92c20 -23 48 -46 83 -71l19 -13l-67 -118c-33 4 -64 14 -92 31c-21 13 -39 27 -54 42c-12 4 -23 7 -34 9c-19 4 -36 6 -52 6c-53 0 -79 -29 -79 -88c0 -63 9 -139 30 -279h-126c-24 149 -30 228 -30 289 c0 121 81 208 195 208c15 0 32 -1 49 -4c8 -1 16 -2 25 -4c-19 34 -28 70 -28 107c0 76 46 152 126 211zM236 680l93 93l79 -78l80 78l94 -93l-93 -94l-81 78l-78 -78zM339 813l69 71l71 -71l-70 -70z" arabic-form="isolated" glyph-name="uniFC12" horiz-adv-x="560" unicode="ﰒ"/>
<glyph d="M781 461l107 -60c-15 -56 -22 -117 -21 -161c0 -68 25 -108 81 -108c7 0 10 -3 10 -10v-111c0 -7 -3 -11 -10 -11c-136 0 -197 59 -197 184c0 27 2 54 5 81c2 21 5 41 9 62c-28 -14 -55 -26 -81 -35c-29 -11 -62 -20 -98 -27l7 -80c3 -29 4 -58 4 -88 c0 -187 -106 -312 -303 -312c-171 0 -266 97 -266 277c0 89 17 143 44 223h117c-27 -71 -43 -138 -43 -199c0 -99 45 -169 153 -169c119 0 172 61 172 186c0 79 -6 135 -22 255l10 12c129 10 227 43 322 91zM599 633l93 93l79 -78l80 78l94 -93l-93 -94l-81 78l-78 -78z M201 479l93 93l94 -93l-93 -93zM702 766l69 71l71 -71l-70 -70z" arabic-form="final" glyph-name="uniFC79" horiz-adv-x="948" unicode="ﱹ"/>
<glyph d="M661 485h126c21 -144 29 -221 29 -288c0 -64 -19 -113 -57 -147c-25 -22 -58 -37 -97 -44c-28 -68 -69 -121 -124 -158c-61 -42 -139 -63 -234 -63c-171 0 -276 98 -276 277c0 89 17 143 44 223h117c-27 -71 -43 -138 -43 -199c0 -119 59 -169 182 -169 c63 0 115 12 158 37c22 13 41 28 56 46l-35 2c-32 3 -65 6 -93 10l15 129c48 -5 119 -9 166 -9c73 0 96 26 96 86c0 56 -9 125 -30 267zM553 632l93 93l79 -78l80 78l94 -93l-93 -94l-81 78l-78 -78zM656 765l69 71l71 -71l-70 -70z" arabic-form="isolated" glyph-name="uniFC13" horiz-adv-x="918" unicode="ﰓ"/>
<glyph d="M697 500l113 -66c-17 -73 -30 -147 -30 -194c0 -68 40 -108 120 -108c7 0 10 -3 10 -10v-111c0 -7 -3 -11 -10 -11c-144 0 -236 77 -236 205c0 26 2 55 5 88c3 26 7 52 12 77c-38 -3 -71 -9 -100 -16c-96 -24 -140 -68 -140 -104c0 -27 14 -45 69 -80l35 -24 c72 -48 103 -96 103 -159c0 -117 -121 -202 -305 -202c-215 0 -315 92 -315 277c0 89 17 143 44 223h117c-27 -71 -43 -138 -43 -199c0 -120 63 -171 230 -171c85 0 154 26 154 63c0 23 -29 47 -70 75l-48 34c-60 43 -89 90 -89 155c0 108 101 231 374 258zM512 643l93 93 l79 -78l80 78l94 -93l-93 -94l-81 78l-78 -78zM615 776l69 71l71 -71l-70 -70z" arabic-form="final" glyph-name="uniFC7A" horiz-adv-x="899" unicode="ﱺ"/>
<glyph d="M661 485h126c21 -144 29 -221 29 -288c0 -64 -19 -113 -57 -147c-25 -22 -58 -37 -97 -44c-28 -68 -69 -121 -124 -158c-61 -42 -139 -63 -234 -63c-171 0 -276 98 -276 277c0 89 17 143 44 223h117c-27 -71 -43 -138 -43 -199c0 -119 59 -169 182 -169 c63 0 115 12 158 37c22 13 41 28 56 46l-35 2c-32 3 -65 6 -93 10l15 129c48 -5 119 -9 166 -9c73 0 96 26 96 86c0 56 -9 125 -30 267zM553 632l93 93l79 -78l80 78l94 -93l-93 -94l-81 78l-78 -78zM656 765l69 71l71 -71l-70 -70zM240 -355l93 93l75 -72l73 72l94 -93 l-93 -93l-74 73l-73 -73z" arabic-form="isolated" glyph-name="uniFC14" horiz-adv-x="918" unicode="ﰔ"/>
<glyph d="M697 500l113 -66c-17 -73 -30 -147 -30 -194c0 -68 40 -108 120 -108c7 0 10 -3 10 -10v-111c0 -7 -3 -11 -10 -11c-144 0 -236 77 -236 205c0 26 2 55 5 88c3 26 7 52 12 77c-38 -3 -71 -9 -100 -16c-96 -24 -140 -68 -140 -104c0 -27 14 -45 69 -80l35 -24 c72 -48 103 -96 103 -159c0 -117 -121 -202 -305 -202c-215 0 -315 92 -315 277c0 89 17 143 44 223h117c-27 -71 -43 -138 -43 -199c0 -120 63 -171 230 -171c85 0 154 26 154 63c0 23 -29 47 -70 75l-48 34c-60 43 -89 90 -89 155c0 108 101 231 374 258zM512 643l93 93 l79 -78l80 78l94 -93l-93 -94l-81 78l-78 -78zM615 776l69 71l71 -71l-70 -70zM240 -355l93 93l75 -72l73 72l94 -93l-93 -93l-74 73l-73 -73z" arabic-form="final" glyph-name="uniFC7B" horiz-adv-x="899" unicode="ﱻ"/>
<glyph d="M440 495h118c-32 -133 -40 -184 -40 -226c0 -96 37 -137 126 -137c46 0 77 16 92 47c17 36 22 95 22 191h116c0 -59 -3 -110 -10 -154c-3 -22 -8 -43 -14 -62c13 -5 26 -10 38 -13c23 -6 46 -9 69 -9c67 0 96 26 96 83c0 51 -6 106 -30 270h126c21 -140 30 -227 30 -291 c0 -114 -85 -194 -203 -194c-31 0 -65 7 -101 20c-25 9 -50 22 -76 39c-13 -13 -27 -23 -43 -32c-33 -18 -71 -27 -114 -27c-157 0 -241 86 -241 239c0 23 1 47 4 70l1 11c-24 -5 -47 -11 -69 -16c-35 -9 -65 -18 -92 -27c2 -20 4 -38 5 -55c6 -62 9 -115 9 -200 c0 -156 -107 -237 -267 -237v114c77 0 146 41 146 131c0 101 -4 156 -20 277l89 90c45 10 88 19 131 27c31 6 61 11 89 15l1 2c5 20 9 38 12 54z" arabic-form="isolated" glyph-name="uniFD0E" horiz-adv-x="1227" unicode="ﴎ"/>
<glyph d="M441 495h118c-32 -133 -40 -184 -40 -226c1 -100 42 -137 122 -137c45 0 71 14 87 47c17 36 22 95 22 191h116c0 -59 -3 -110 -10 -154c-3 -22 -8 -43 -14 -62c11 -5 23 -10 36 -13c23 -6 44 -9 64 -9c45 0 72 14 87 47c17 36 22 95 22 191v70h117v-70 c0 -59 -3 -110 -10 -154c-3 -19 -7 -38 -12 -55c17 -9 33 -16 49 -20c23 -6 46 -9 69 -9c7 0 10 -3 10 -10v-111c0 -7 -3 -11 -10 -11c-37 0 -72 8 -103 25c-20 11 -40 25 -60 43c-13 -17 -28 -30 -45 -41c-28 -18 -63 -27 -105 -27c-28 0 -56 6 -83 19 c-21 10 -46 24 -74 43c-13 -14 -28 -26 -45 -35c-31 -18 -68 -27 -109 -27c-147 0 -237 80 -238 239c0 23 1 47 4 70l1 11l-70 -16c-35 -9 -65 -18 -92 -27c2 -20 4 -38 5 -55c6 -62 9 -115 9 -200c0 -156 -107 -237 -267 -237v114c77 0 146 41 146 131 c0 101 -4 156 -20 277l89 90c45 10 88 19 131 27c32 6 62 11 90 15l1 2c5 20 9 38 12 54z" arabic-form="final" glyph-name="uniFD2A" horiz-adv-x="1264" unicode="ﴪ"/>
<glyph d="M1284 485h126c21 -140 30 -227 30 -291c0 -114 -85 -194 -203 -194c-31 0 -65 7 -101 20c-25 9 -50 23 -77 40c-13 -13 -29 -24 -46 -33c-35 -18 -74 -27 -118 -27c-139 0 -231 77 -231 205c0 26 2 55 5 88c3 26 7 52 12 77c-38 -3 -71 -9 -100 -16 c-96 -24 -140 -68 -140 -104c0 -27 14 -45 69 -80l35 -24c72 -48 103 -96 103 -159c0 -117 -121 -202 -305 -202c-215 0 -315 92 -315 277c0 89 17 143 44 223h117c-27 -71 -43 -138 -43 -199c0 -120 63 -171 230 -171c85 0 154 26 154 63c0 23 -29 47 -70 75l-48 34 c-60 43 -89 90 -89 155c0 108 101 231 374 258l113 -66c-17 -73 -30 -147 -30 -194c0 -68 42 -108 117 -108c51 0 85 16 100 47c17 36 22 95 22 191h116c0 -59 -3 -110 -10 -154c-3 -22 -8 -43 -14 -62c13 -5 26 -10 38 -13c23 -6 46 -9 69 -9c67 0 96 26 96 83 c0 51 -6 106 -30 270z" arabic-form="isolated" glyph-name="uniFCFB" horiz-adv-x="1487" unicode="ﳻ"/>
<glyph d="M1311 440h117v-70c0 -59 -3 -110 -10 -154c-3 -19 -7 -38 -12 -55c17 -9 34 -16 50 -20c23 -6 46 -9 69 -9c7 0 10 -3 10 -10v-111c0 -7 -3 -11 -10 -11c-37 0 -72 8 -103 25c-20 11 -40 25 -60 43c-13 -17 -29 -30 -46 -41c-28 -18 -63 -27 -105 -27c-28 0 -56 6 -83 19 c-21 10 -46 24 -74 43c-13 -14 -28 -26 -45 -35c-31 -18 -68 -27 -109 -27c-146 0 -236 81 -236 205c0 26 2 55 5 88c3 26 7 52 12 77c-38 -3 -71 -9 -100 -16c-96 -24 -140 -68 -140 -104c0 -27 14 -45 69 -80l35 -24c72 -48 103 -96 103 -159c0 -117 -121 -202 -305 -202 c-215 0 -315 92 -315 277c0 89 17 143 44 223h117c-27 -71 -43 -138 -43 -199c0 -120 63 -171 230 -171c85 0 154 26 154 63c0 23 -29 47 -70 75l-48 34c-60 43 -89 90 -89 155c0 108 101 231 374 258l113 -66c-16 -69 -30 -148 -30 -194c0 -68 41 -108 121 -108 c43 0 72 16 87 47c17 36 22 95 22 191h116c0 -59 -3 -110 -10 -154c-3 -22 -8 -43 -14 -62c11 -5 23 -10 36 -13c23 -6 44 -9 64 -9c45 0 72 14 87 47c17 36 22 95 22 191v70z" arabic-form="final" glyph-name="uniFD17" horiz-adv-x="1525" unicode="ﴗ"/>
<glyph d="M1284 485h126c21 -140 30 -227 30 -291c0 -114 -85 -194 -203 -194c-31 0 -65 7 -101 20c-25 9 -50 23 -77 40c-13 -13 -29 -24 -46 -33c-35 -18 -74 -27 -118 -27c-139 0 -231 77 -231 205c0 26 2 55 5 88c3 26 7 52 12 77c-38 -3 -71 -9 -100 -16 c-96 -24 -140 -68 -140 -104c0 -27 14 -45 69 -80l35 -24c72 -48 103 -96 103 -159c0 -117 -121 -202 -305 -202c-215 0 -315 92 -315 277c0 89 17 143 44 223h117c-27 -71 -43 -138 -43 -199c0 -120 63 -171 230 -171c85 0 154 26 154 63c0 23 -29 47 -70 75l-48 34 c-60 43 -89 90 -89 155c0 108 101 231 374 258l113 -66c-17 -73 -30 -147 -30 -194c0 -68 42 -108 117 -108c51 0 85 16 100 47c17 36 22 95 22 191h116c0 -59 -3 -110 -10 -154c-3 -22 -8 -43 -14 -62c13 -5 26 -10 38 -13c23 -6 46 -9 69 -9c67 0 96 26 96 83 c0 51 -6 106 -30 270zM240 -355l93 93l75 -72l73 72l94 -93l-93 -93l-74 73l-73 -73z" arabic-form="isolated" glyph-name="uniFCFC" horiz-adv-x="1487" unicode="ﳼ"/>
<glyph d="M1311 440h117v-70c0 -59 -3 -110 -10 -154c-3 -19 -7 -38 -12 -55c17 -9 34 -16 50 -20c23 -6 46 -9 69 -9c7 0 10 -3 10 -10v-111c0 -7 -3 -11 -10 -11c-37 0 -72 8 -103 25c-20 11 -40 25 -60 43c-13 -17 -29 -30 -46 -41c-28 -18 -63 -27 -105 -27c-28 0 -56 6 -83 19 c-21 10 -46 24 -74 43c-13 -14 -28 -26 -45 -35c-31 -18 -68 -27 -109 -27c-146 0 -236 81 -236 205c0 26 2 55 5 88c3 26 7 52 12 77c-38 -3 -71 -9 -100 -16c-96 -24 -140 -68 -140 -104c0 -27 14 -45 69 -80l35 -24c72 -48 103 -96 103 -159c0 -117 -121 -202 -305 -202 c-215 0 -315 92 -315 277c0 89 17 143 44 223h117c-27 -71 -43 -138 -43 -199c0 -120 63 -171 230 -171c85 0 154 26 154 63c0 23 -29 47 -70 75l-48 34c-60 43 -89 90 -89 155c0 108 101 231 374 258l113 -66c-16 -69 -30 -148 -30 -194c0 -68 41 -108 121 -108 c43 0 72 16 87 47c17 36 22 95 22 191h116c0 -59 -3 -110 -10 -154c-3 -22 -8 -43 -14 -62c11 -5 23 -10 36 -13c23 -6 44 -9 64 -9c45 0 72 14 87 47c17 36 22 95 22 191v70zM240 -356l93 93l75 -72l73 72l94 -93l-93 -93l-74 73l-73 -73z" arabic-form="final" glyph-name="uniFD18" horiz-adv-x="1525" unicode="ﴘ"/>
<glyph d="M440 495h118c-32 -133 -40 -184 -40 -226c0 -96 37 -137 126 -137c46 0 77 16 92 47c17 36 22 95 22 191h116c0 -59 -3 -110 -10 -154c-3 -22 -8 -43 -14 -62c13 -5 26 -10 38 -13c23 -6 46 -9 69 -9c67 0 96 26 96 83c0 51 -6 106 -30 270h126c21 -140 30 -227 30 -291 c0 -114 -85 -194 -203 -194c-31 0 -65 7 -101 20c-25 9 -50 22 -76 39c-13 -13 -27 -23 -43 -32c-33 -18 -71 -27 -114 -27c-157 0 -241 86 -241 239c0 23 1 47 4 70l1 11c-24 -5 -47 -11 -69 -16c-35 -9 -65 -18 -92 -27c2 -20 4 -38 5 -55c6 -62 9 -115 9 -200 c0 -156 -107 -237 -267 -237v114c77 0 146 41 146 131c0 101 -4 156 -20 277l89 90c45 10 88 19 131 27c31 6 61 11 89 15l1 2c5 20 9 38 12 54zM645 553l93 93l79 -78l80 78l94 -93l-93 -94l-81 78l-78 -78zM748 686l69 71l71 -71l-70 -70z" arabic-form="isolated" glyph-name="uniFD0D" horiz-adv-x="1227" unicode="ﴍ"/>
<glyph d="M441 495h118c-32 -133 -40 -184 -40 -226c1 -100 42 -137 122 -137c45 0 71 14 87 47c17 36 22 95 22 191h116c0 -59 -3 -110 -10 -154c-3 -22 -8 -43 -14 -62c11 -5 23 -10 36 -13c23 -6 44 -9 64 -9c45 0 72 14 87 47c17 36 22 95 22 191v70h117v-70 c0 -59 -3 -110 -10 -154c-3 -19 -7 -38 -12 -55c17 -9 33 -16 49 -20c23 -6 46 -9 69 -9c7 0 10 -3 10 -10v-111c0 -7 -3 -11 -10 -11c-37 0 -72 8 -103 25c-20 11 -40 25 -60 43c-13 -17 -28 -30 -45 -41c-28 -18 -63 -27 -105 -27c-28 0 -56 6 -83 19 c-21 10 -46 24 -74 43c-13 -14 -28 -26 -45 -35c-31 -18 -68 -27 -109 -27c-147 0 -237 80 -238 239c0 23 1 47 4 70l1 11l-70 -16c-35 -9 -65 -18 -92 -27c2 -20 4 -38 5 -55c6 -62 9 -115 9 -200c0 -156 -107 -237 -267 -237v114c77 0 146 41 146 131 c0 101 -4 156 -20 277l89 90c45 10 88 19 131 27c32 6 62 11 90 15l1 2c5 20 9 38 12 54zM635 552l93 93l79 -78l80 78l94 -93l-93 -94l-81 78l-78 -78zM738 685l69 71l71 -71l-70 -70z" arabic-form="final" glyph-name="uniFD29" horiz-adv-x="1264" unicode="ﴩ"/>
<glyph d="M1284 485h126c21 -140 30 -227 30 -291c0 -114 -85 -194 -203 -194c-31 0 -65 7 -101 20c-25 9 -50 23 -77 40c-13 -13 -29 -24 -46 -33c-35 -18 -74 -27 -118 -27c-139 0 -231 77 -231 205c0 26 2 55 5 88c3 26 7 52 12 77c-38 -3 -71 -9 -100 -16 c-96 -24 -140 -68 -140 -104c0 -27 14 -45 69 -80l35 -24c72 -48 103 -96 103 -159c0 -117 -121 -202 -305 -202c-215 0 -315 92 -315 277c0 89 17 143 44 223h117c-27 -71 -43 -138 -43 -199c0 -120 63 -171 230 -171c85 0 154 26 154 63c0 23 -29 47 -70 75l-48 34 c-60 43 -89 90 -89 155c0 108 101 231 374 258l113 -66c-17 -73 -30 -147 -30 -194c0 -68 42 -108 117 -108c51 0 85 16 100 47c17 36 22 95 22 191h116c0 -59 -3 -110 -10 -154c-3 -22 -8 -43 -14 -62c13 -5 26 -10 38 -13c23 -6 46 -9 69 -9c67 0 96 26 96 83 c0 51 -6 106 -30 270zM916 554l93 93l79 -78l80 78l94 -93l-93 -94l-81 78l-78 -78zM1019 687l69 71l71 -71l-70 -70z" arabic-form="isolated" glyph-name="uniFCFD" horiz-adv-x="1487" unicode="ﳽ"/>
<glyph d="M1311 440h117v-70c0 -59 -3 -110 -10 -154c-3 -19 -7 -38 -12 -55c17 -9 34 -16 50 -20c23 -6 46 -9 69 -9c7 0 10 -3 10 -10v-111c0 -7 -3 -11 -10 -11c-37 0 -72 8 -103 25c-20 11 -40 25 -60 43c-13 -17 -29 -30 -46 -41c-28 -18 -63 -27 -105 -27c-28 0 -56 6 -83 19 c-21 10 -46 24 -74 43c-13 -14 -28 -26 -45 -35c-31 -18 -68 -27 -109 -27c-146 0 -236 81 -236 205c0 26 2 55 5 88c3 26 7 52 12 77c-38 -3 -71 -9 -100 -16c-96 -24 -140 -68 -140 -104c0 -27 14 -45 69 -80l35 -24c72 -48 103 -96 103 -159c0 -117 -121 -202 -305 -202 c-215 0 -315 92 -315 277c0 89 17 143 44 223h117c-27 -71 -43 -138 -43 -199c0 -120 63 -171 230 -171c85 0 154 26 154 63c0 23 -29 47 -70 75l-48 34c-60 43 -89 90 -89 155c0 108 101 231 374 258l113 -66c-16 -69 -30 -148 -30 -194c0 -68 41 -108 121 -108 c43 0 72 16 87 47c17 36 22 95 22 191h116c0 -59 -3 -110 -10 -154c-3 -22 -8 -43 -14 -62c11 -5 23 -10 36 -13c23 -6 44 -9 64 -9c45 0 72 14 87 47c17 36 22 95 22 191v70zM896 553l93 93l79 -78l80 78l94 -93l-93 -94l-81 78l-78 -78zM999 686l69 71l71 -71l-70 -70z " arabic-form="final" glyph-name="uniFD19" horiz-adv-x="1525" unicode="ﴙ"/>
<glyph d="M1284 485h126c21 -140 30 -227 30 -291c0 -114 -85 -194 -203 -194c-31 0 -65 7 -101 20c-25 9 -50 23 -77 40c-13 -13 -29 -24 -46 -33c-35 -18 -74 -27 -118 -27c-139 0 -231 77 -231 205c0 26 2 55 5 88c3 26 7 52 12 77c-38 -3 -71 -9 -100 -16 c-96 -24 -140 -68 -140 -104c0 -27 14 -45 69 -80l35 -24c72 -48 103 -96 103 -159c0 -117 -121 -202 -305 -202c-215 0 -315 92 -315 277c0 89 17 143 44 223h117c-27 -71 -43 -138 -43 -199c0 -120 63 -171 230 -171c85 0 154 26 154 63c0 23 -29 47 -70 75l-48 34 c-60 43 -89 90 -89 155c0 108 101 231 374 258l113 -66c-17 -73 -30 -147 -30 -194c0 -68 42 -108 117 -108c51 0 85 16 100 47c17 36 22 95 22 191h116c0 -59 -3 -110 -10 -154c-3 -22 -8 -43 -14 -62c13 -5 26 -10 38 -13c23 -6 46 -9 69 -9c67 0 96 26 96 83 c0 51 -6 106 -30 270zM240 -355l93 93l75 -72l73 72l94 -93l-93 -93l-74 73l-73 -73zM905 554l93 93l79 -78l80 78l94 -93l-93 -94l-81 78l-78 -78zM1008 687l69 71l71 -71l-70 -70z" arabic-form="isolated" glyph-name="uniFCFE" horiz-adv-x="1487" unicode="ﳾ"/>
<glyph d="M1311 440h117v-70c0 -59 -3 -110 -10 -154c-3 -19 -7 -38 -12 -55c17 -9 34 -16 50 -20c23 -6 46 -9 69 -9c7 0 10 -3 10 -10v-111c0 -7 -3 -11 -10 -11c-37 0 -72 8 -103 25c-20 11 -40 25 -60 43c-13 -17 -29 -30 -46 -41c-28 -18 -63 -27 -105 -27c-28 0 -56 6 -83 19 c-21 10 -46 24 -74 43c-13 -14 -28 -26 -45 -35c-31 -18 -68 -27 -109 -27c-146 0 -236 81 -236 205c0 26 2 55 5 88c3 26 7 52 12 77c-38 -3 -71 -9 -100 -16c-96 -24 -140 -68 -140 -104c0 -27 14 -45 69 -80l35 -24c72 -48 103 -96 103 -159c0 -117 -121 -202 -305 -202 c-215 0 -315 92 -315 277c0 89 17 143 44 223h117c-27 -71 -43 -138 -43 -199c0 -120 63 -171 230 -171c85 0 154 26 154 63c0 23 -29 47 -70 75l-48 34c-60 43 -89 90 -89 155c0 108 101 231 374 258l113 -66c-16 -69 -30 -148 -30 -194c0 -68 41 -108 121 -108 c43 0 72 16 87 47c17 36 22 95 22 191h116c0 -59 -3 -110 -10 -154c-3 -22 -8 -43 -14 -62c11 -5 23 -10 36 -13c23 -6 44 -9 64 -9c45 0 72 14 87 47c17 36 22 95 22 191v70zM889 553l93 93l79 -78l80 78l94 -93l-93 -94l-81 78l-78 -78zM240 -356l93 93l75 -72l73 72 l94 -93l-93 -93l-74 73l-73 -73zM992 686l69 71l71 -71l-70 -70z" arabic-form="final" glyph-name="uniFD1A" horiz-adv-x="1525" unicode="ﴚ"/>
<glyph d="M1030 539c128 0 220 -97 220 -222c0 -193 -160 -317 -411 -317h-111c-218 0 -327 80 -327 239c0 23 1 47 4 70l1 11c-24 -5 -47 -11 -69 -16c-35 -9 -65 -18 -92 -27c2 -20 4 -38 5 -55c6 -62 9 -115 9 -200c0 -156 -107 -237 -267 -237v114c77 0 146 41 146 131 c0 101 -4 156 -20 277l89 90c45 10 88 19 131 27c31 6 61 11 89 15l1 2c5 20 9 38 12 54h118c-32 -133 -40 -184 -40 -226c0 -25 4 -46 11 -63c6 -14 15 -26 27 -36c52 64 98 118 139 162c146 158 236 207 335 207zM735 132h93c179 0 295 67 295 167c0 64 -49 109 -117 109 c-75 0 -142 -46 -259 -177c-25 -28 -54 -60 -85 -96c21 -2 46 -3 73 -3z" arabic-form="isolated" glyph-name="uniFD0F" horiz-adv-x="1288" unicode="ﴏ"/>
<glyph d="M1030 539c128 0 220 -97 220 -222c0 -193 -160 -317 -411 -317h-111c-218 0 -327 80 -327 239c0 23 1 47 4 70l1 11c-24 -5 -47 -11 -69 -16c-35 -9 -65 -18 -92 -27c2 -20 4 -38 5 -55c6 -62 9 -115 9 -200c0 -156 -107 -237 -267 -237v114c77 0 146 41 146 131 c0 101 -4 156 -20 277l89 90c45 10 88 19 131 27c31 6 61 11 89 15l1 2c5 20 9 38 12 54h118c-32 -133 -40 -184 -40 -226c0 -25 4 -46 11 -63c6 -14 15 -26 27 -36c52 64 98 118 139 162c146 158 236 207 335 207zM735 132h93c179 0 295 67 295 167c0 64 -49 109 -117 109 c-75 0 -142 -46 -259 -177c-25 -28 -54 -60 -85 -96c21 -2 46 -3 73 -3zM1116 104l56 71c49 -33 93 -43 140 -43c7 0 10 -3 10 -10v-111c0 -7 -3 -11 -10 -11c-75 0 -135 32 -196 104z" arabic-form="final" glyph-name="uniFD2B" horiz-adv-x="1312" unicode="ﴫ"/>
<glyph d="M1257 539c128 0 219 -97 219 -222c0 -193 -159 -317 -411 -317h-159c-156 0 -242 72 -242 205c0 26 2 55 5 88c3 26 7 52 12 77c-38 -3 -71 -9 -100 -16c-96 -24 -140 -68 -140 -104c0 -27 14 -45 69 -80l35 -24c72 -48 103 -96 103 -159c0 -117 -121 -202 -305 -202 c-215 0 -315 92 -315 277c0 89 17 143 44 223h117c-27 -71 -43 -138 -43 -199c0 -120 63 -171 230 -171c85 0 154 26 154 63c0 23 -29 47 -70 75l-48 34c-60 43 -89 90 -89 155c0 108 101 231 374 258l113 -66c-24 -104 -30 -141 -30 -191c0 -23 3 -41 8 -56l2 -7 c49 60 92 111 131 152c146 158 234 207 336 207zM885 132h23h147c177 0 294 67 294 167c0 64 -48 109 -116 109c-75 0 -141 -44 -260 -176z" arabic-form="isolated" glyph-name="uniFD05" horiz-adv-x="1514" unicode="ﴅ"/>
<glyph d="M1257 539c128 0 219 -97 219 -222c0 -193 -159 -317 -411 -317h-159c-156 0 -242 72 -242 205c0 26 2 55 5 88c3 26 7 52 12 77c-38 -3 -71 -9 -100 -16c-96 -24 -140 -68 -140 -104c0 -27 14 -45 69 -80l35 -24c72 -48 103 -96 103 -159c0 -117 -121 -202 -305 -202 c-215 0 -315 92 -315 277c0 89 17 143 44 223h117c-27 -71 -43 -138 -43 -199c0 -120 63 -171 230 -171c85 0 154 26 154 63c0 23 -29 47 -70 75l-48 34c-60 43 -89 90 -89 155c0 108 101 231 374 258l113 -66c-24 -104 -30 -141 -30 -191c0 -23 3 -41 8 -56l2 -7 c49 60 92 111 131 152c146 158 234 207 336 207zM885 132h23h147c177 0 294 67 294 167c0 64 -48 109 -116 109c-75 0 -141 -44 -260 -176zM1355 104l56 71c49 -33 93 -43 140 -43c7 0 10 -3 10 -10v-111c0 -7 -3 -11 -10 -11c-75 0 -135 32 -196 104z" arabic-form="final" glyph-name="uniFD21" horiz-adv-x="1551" unicode="ﴡ"/>
<glyph d="M1257 539c128 0 219 -97 219 -222c0 -193 -159 -317 -411 -317h-159c-156 0 -242 72 -242 205c0 26 2 55 5 88c3 26 7 52 12 77c-38 -3 -71 -9 -100 -16c-96 -24 -140 -68 -140 -104c0 -27 14 -45 69 -80l35 -24c72 -48 103 -96 103 -159c0 -117 -121 -202 -305 -202 c-215 0 -315 92 -315 277c0 89 17 143 44 223h117c-27 -71 -43 -138 -43 -199c0 -120 63 -171 230 -171c85 0 154 26 154 63c0 23 -29 47 -70 75l-48 34c-60 43 -89 90 -89 155c0 108 101 231 374 258l113 -66c-24 -104 -30 -141 -30 -191c0 -23 3 -41 8 -56l2 -7 c49 60 92 111 131 152c146 158 234 207 336 207zM885 132h23h147c177 0 294 67 294 167c0 64 -48 109 -116 109c-75 0 -141 -44 -260 -176zM240 -355l93 93l75 -72l73 72l94 -93l-93 -93l-74 73l-73 -73z" arabic-form="isolated" glyph-name="uniFD06" horiz-adv-x="1514" unicode="ﴆ"/>
<glyph d="M1257 539c128 0 219 -97 219 -222c0 -193 -159 -317 -411 -317h-159c-156 0 -242 72 -242 205c0 26 2 55 5 88c3 26 7 52 12 77c-38 -3 -71 -9 -100 -16c-96 -24 -140 -68 -140 -104c0 -27 14 -45 69 -80l35 -24c72 -48 103 -96 103 -159c0 -117 -121 -202 -305 -202 c-215 0 -315 92 -315 277c0 89 17 143 44 223h117c-27 -71 -43 -138 -43 -199c0 -120 63 -171 230 -171c85 0 154 26 154 63c0 23 -29 47 -70 75l-48 34c-60 43 -89 90 -89 155c0 108 101 231 374 258l113 -66c-24 -104 -30 -141 -30 -191c0 -23 3 -41 8 -56l2 -7 c49 60 92 111 131 152c146 158 234 207 336 207zM885 132h23h147c177 0 294 67 294 167c0 64 -48 109 -116 109c-75 0 -141 -44 -260 -176zM1355 104l56 71c49 -33 93 -43 140 -43c7 0 10 -3 10 -10v-111c0 -7 -3 -11 -10 -11c-75 0 -135 32 -196 104zM240 -355l93 93 l75 -72l73 72l94 -93l-93 -93l-74 73l-73 -73z" arabic-form="final" glyph-name="uniFD22" horiz-adv-x="1551" unicode="ﴢ"/>
<glyph d="M1030 539c128 0 220 -97 220 -222c0 -193 -160 -317 -411 -317h-111c-218 0 -327 80 -327 239c0 23 1 47 4 70l1 11c-24 -5 -47 -11 -69 -16c-35 -9 -65 -18 -92 -27c2 -20 4 -38 5 -55c6 -62 9 -115 9 -200c0 -156 -107 -237 -267 -237v114c77 0 146 41 146 131 c0 101 -4 156 -20 277l89 90c45 10 88 19 131 27c31 6 61 11 89 15l1 2c5 20 9 38 12 54h118c-32 -133 -40 -184 -40 -226c0 -25 4 -46 11 -63c6 -14 15 -26 27 -36c52 64 98 118 139 162c146 158 236 207 335 207zM735 132h93c179 0 295 67 295 167c0 64 -49 109 -117 109 c-75 0 -142 -46 -259 -177c-25 -28 -54 -60 -85 -96c21 -2 46 -3 73 -3zM659 626l93 93l94 -93l-93 -93z" arabic-form="isolated" glyph-name="uniFD10" horiz-adv-x="1288" unicode="ﴐ"/>
<glyph d="M1030 539c128 0 220 -97 220 -222c0 -193 -160 -317 -411 -317h-111c-218 0 -327 80 -327 239c0 23 1 47 4 70l1 11c-24 -5 -47 -11 -69 -16c-35 -9 -65 -18 -92 -27c2 -20 4 -38 5 -55c6 -62 9 -115 9 -200c0 -156 -107 -237 -267 -237v114c77 0 146 41 146 131 c0 101 -4 156 -20 277l89 90c45 10 88 19 131 27c31 6 61 11 89 15l1 2c5 20 9 38 12 54h118c-32 -133 -40 -184 -40 -226c0 -25 4 -46 11 -63c6 -14 15 -26 27 -36c52 64 98 118 139 162c146 158 236 207 335 207zM735 132h93c179 0 295 67 295 167c0 64 -49 109 -117 109 c-75 0 -142 -46 -259 -177c-25 -28 -54 -60 -85 -96c21 -2 46 -3 73 -3zM1116 104l56 71c49 -33 93 -43 140 -43c7 0 10 -3 10 -10v-111c0 -7 -3 -11 -10 -11c-75 0 -135 32 -196 104zM659 626l93 93l94 -93l-93 -93z" arabic-form="final" glyph-name="uniFD2C" horiz-adv-x="1312" unicode="ﴬ"/>
<glyph d="M1257 539c128 0 219 -97 219 -222c0 -193 -159 -317 -411 -317h-159c-156 0 -242 72 -242 205c0 26 2 55 5 88c3 26 7 52 12 77c-38 -3 -71 -9 -100 -16c-96 -24 -140 -68 -140 -104c0 -27 14 -45 69 -80l35 -24c72 -48 103 -96 103 -159c0 -117 -121 -202 -305 -202 c-215 0 -315 92 -315 277c0 89 17 143 44 223h117c-27 -71 -43 -138 -43 -199c0 -120 63 -171 230 -171c85 0 154 26 154 63c0 23 -29 47 -70 75l-48 34c-60 43 -89 90 -89 155c0 108 101 231 374 258l113 -66c-24 -104 -30 -141 -30 -191c0 -23 3 -41 8 -56l2 -7 c49 60 92 111 131 152c146 158 234 207 336 207zM885 132h23h147c177 0 294 67 294 167c0 64 -48 109 -116 109c-75 0 -141 -44 -260 -176zM922 638l93 93l94 -93l-93 -93z" arabic-form="isolated" glyph-name="uniFD07" horiz-adv-x="1514" unicode="ﴇ"/>
<glyph d="M1257 539c128 0 219 -97 219 -222c0 -193 -159 -317 -411 -317h-159c-156 0 -242 72 -242 205c0 26 2 55 5 88c3 26 7 52 12 77c-38 -3 -71 -9 -100 -16c-96 -24 -140 -68 -140 -104c0 -27 14 -45 69 -80l35 -24c72 -48 103 -96 103 -159c0 -117 -121 -202 -305 -202 c-215 0 -315 92 -315 277c0 89 17 143 44 223h117c-27 -71 -43 -138 -43 -199c0 -120 63 -171 230 -171c85 0 154 26 154 63c0 23 -29 47 -70 75l-48 34c-60 43 -89 90 -89 155c0 108 101 231 374 258l113 -66c-24 -104 -30 -141 -30 -191c0 -23 3 -41 8 -56l2 -7 c49 60 92 111 131 152c146 158 234 207 336 207zM885 132h23h147c177 0 294 67 294 167c0 64 -48 109 -116 109c-75 0 -141 -44 -260 -176zM1355 104l56 71c49 -33 93 -43 140 -43c7 0 10 -3 10 -10v-111c0 -7 -3 -11 -10 -11c-75 0 -135 32 -196 104zM922 638l93 93l94 -93 l-93 -93z" arabic-form="final" glyph-name="uniFD23" horiz-adv-x="1551" unicode="ﴣ"/>
<glyph d="M1257 539c128 0 219 -97 219 -222c0 -193 -159 -317 -411 -317h-159c-156 0 -242 72 -242 205c0 26 2 55 5 88c3 26 7 52 12 77c-38 -3 -71 -9 -100 -16c-96 -24 -140 -68 -140 -104c0 -27 14 -45 69 -80l35 -24c72 -48 103 -96 103 -159c0 -117 -121 -202 -305 -202 c-215 0 -315 92 -315 277c0 89 17 143 44 223h117c-27 -71 -43 -138 -43 -199c0 -120 63 -171 230 -171c85 0 154 26 154 63c0 23 -29 47 -70 75l-48 34c-60 43 -89 90 -89 155c0 108 101 231 374 258l113 -66c-24 -104 -30 -141 -30 -191c0 -23 3 -41 8 -56l2 -7 c49 60 92 111 131 152c146 158 234 207 336 207zM885 132h23h147c177 0 294 67 294 167c0 64 -48 109 -116 109c-75 0 -141 -44 -260 -176zM240 -355l93 93l75 -72l73 72l94 -93l-93 -93l-74 73l-73 -73zM922 638l93 93l94 -93l-93 -93z" arabic-form="isolated" glyph-name="uniFD08" horiz-adv-x="1514" unicode="ﴈ"/>
<glyph d="M1257 539c128 0 219 -97 219 -222c0 -193 -159 -317 -411 -317h-159c-156 0 -242 72 -242 205c0 26 2 55 5 88c3 26 7 52 12 77c-38 -3 -71 -9 -100 -16c-96 -24 -140 -68 -140 -104c0 -27 14 -45 69 -80l35 -24c72 -48 103 -96 103 -159c0 -117 -121 -202 -305 -202 c-215 0 -315 92 -315 277c0 89 17 143 44 223h117c-27 -71 -43 -138 -43 -199c0 -120 63 -171 230 -171c85 0 154 26 154 63c0 23 -29 47 -70 75l-48 34c-60 43 -89 90 -89 155c0 108 101 231 374 258l113 -66c-24 -104 -30 -141 -30 -191c0 -23 3 -41 8 -56l2 -7 c49 60 92 111 131 152c146 158 234 207 336 207zM885 132h23h147c177 0 294 67 294 167c0 64 -48 109 -116 109c-75 0 -141 -44 -260 -176zM1355 104l56 71c49 -33 93 -43 140 -43c7 0 10 -3 10 -10v-111c0 -7 -3 -11 -10 -11c-75 0 -135 32 -196 104zM240 -355l93 93 l75 -72l73 72l94 -93l-93 -93l-74 73l-73 -73zM922 638l93 93l94 -93l-93 -93z" arabic-form="final" glyph-name="uniFD24" horiz-adv-x="1551" unicode="ﴤ"/>
<glyph d="M610 600c124 0 211 -82 219 -231c3 -51 6 -95 5 -150c0 -100 -55 -176 -168 -205c-60 -151 -178 -229 -362 -229c-171 0 -276 98 -276 277c0 89 17 143 44 223h117c-27 -71 -43 -138 -43 -199c0 -119 59 -169 182 -169c95 0 169 30 214 86c-55 3 -95 5 -138 9l15 119 c48 -6 95 -9 142 -9c97 0 141 23 149 83c-33 -15 -68 -23 -105 -23c-129 0 -205 74 -205 197c0 128 90 221 210 221zM602 472c-47 0 -82 -38 -82 -91c-1 -60 36 -95 97 -95c33 0 63 4 88 13l-4 60c-5 77 -43 113 -99 113zM518 747l93 93l94 -93l-93 -93z" arabic-form="isolated" glyph-name="uniFC31" horiz-adv-x="872" unicode="ﰱ"/>
<glyph d="M610 600c124 0 211 -82 219 -231c3 -51 6 -95 5 -150c0 -100 -55 -176 -168 -205c-60 -151 -178 -229 -362 -229c-171 0 -276 98 -276 277c0 89 17 143 44 223h117c-27 -71 -43 -138 -43 -199c0 -119 59 -169 182 -169c95 0 169 30 214 86c-55 3 -95 5 -138 9l15 119 c48 -6 95 -9 142 -9c97 0 141 23 149 83c-33 -15 -68 -23 -105 -23c-129 0 -205 74 -205 197c0 128 90 221 210 221zM602 472c-47 0 -82 -38 -82 -91c-1 -60 36 -95 97 -95c33 0 63 4 88 13l-4 60c-5 77 -43 113 -99 113zM510 747l93 93l94 -93l-93 -93zM212 -355l93 93 l75 -72l73 72l94 -93l-93 -93l-74 73l-73 -73z" arabic-form="isolated" glyph-name="uniFC32" horiz-adv-x="872" unicode="ﰲ"/>
<glyph d="M610 600c124 0 211 -82 219 -231c3 -51 6 -95 5 -150c0 -100 -55 -176 -168 -205c-60 -151 -178 -229 -362 -229c-171 0 -276 98 -276 277c0 89 17 143 44 223h117c-27 -71 -43 -138 -43 -199c0 -119 59 -169 182 -169c95 0 169 30 214 86c-55 3 -95 5 -138 9l15 119 c48 -6 95 -9 142 -9c97 0 141 23 149 83c-33 -15 -68 -23 -105 -23c-129 0 -205 74 -205 197c0 128 90 221 210 221zM602 472c-47 0 -82 -38 -82 -91c-1 -60 36 -95 97 -95c33 0 63 4 88 13l-4 60c-5 77 -43 113 -99 113zM444 747l93 94l77 -75l75 75l94 -94l-92 -93l-77 74 l-76 -74z" arabic-form="isolated" glyph-name="uniFC35" horiz-adv-x="872" unicode="ﰵ"/>
<glyph d="M610 600c124 0 211 -82 219 -231c3 -51 6 -95 5 -150c0 -100 -55 -176 -168 -205c-60 -151 -178 -229 -362 -229c-171 0 -276 98 -276 277c0 89 17 143 44 223h117c-27 -71 -43 -138 -43 -199c0 -119 59 -169 182 -169c95 0 169 30 214 86c-55 3 -95 5 -138 9l15 119 c48 -6 95 -9 142 -9c97 0 141 23 149 83c-33 -15 -68 -23 -105 -23c-129 0 -205 74 -205 197c0 128 90 221 210 221zM602 472c-47 0 -82 -38 -82 -91c-1 -60 36 -95 97 -95c33 0 63 4 88 13l-4 60c-5 77 -43 113 -99 113zM444 747l93 94l77 -75l75 75l94 -94l-92 -93l-77 74 l-76 -74zM230 -355l93 93l75 -72l73 72l94 -93l-93 -93l-74 73l-73 -73z" arabic-form="isolated" glyph-name="uniFC36" horiz-adv-x="872" unicode="ﰶ"/>
<glyph d="M1228 795h181v-5l-344 -286l160 -70c124 -53 186 -128 186 -223c0 -131 -101 -211 -265 -211h-247h-2h-1c-72 0 -129 18 -170 54c-41 37 -62 87 -62 151c0 26 2 55 5 88c3 26 7 52 12 77c-38 -3 -71 -9 -100 -16c-96 -24 -140 -68 -140 -104c0 -27 14 -45 69 -80l35 -24 c72 -48 103 -96 103 -159c0 -117 -121 -202 -305 -202c-215 0 -315 92 -315 277c0 89 17 143 44 223h117c-27 -71 -43 -138 -43 -199c0 -120 63 -171 230 -171c85 0 154 26 154 63c0 23 -29 47 -70 75l-48 34c-60 43 -89 90 -89 155c0 108 101 231 374 258l112 -78 c-16 -73 -29 -135 -29 -182c0 -34 10 -61 30 -80c20 -18 48 -27 83 -28h3h1h2h255c77 0 131 30 131 74s-35 77 -124 116l-249 110v88z" arabic-form="isolated" glyph-name="uniFC3D" horiz-adv-x="1440" unicode="ﰽ"/>
<glyph d="M1228 795h181v-5l-344 -286l160 -70c124 -53 186 -128 186 -223c0 -131 -101 -211 -265 -211h-247h-2h-1c-72 0 -129 18 -170 54c-41 37 -62 87 -62 151c0 26 2 55 5 88c3 26 7 52 12 77c-38 -3 -71 -9 -100 -16c-96 -24 -140 -68 -140 -104c0 -27 14 -45 69 -80l35 -24 c72 -48 103 -96 103 -159c0 -117 -121 -202 -305 -202c-215 0 -315 92 -315 277c0 89 17 143 44 223h117c-27 -71 -43 -138 -43 -199c0 -120 63 -171 230 -171c85 0 154 26 154 63c0 23 -29 47 -70 75l-48 34c-60 43 -89 90 -89 155c0 108 101 231 374 258l112 -78 c-16 -73 -29 -135 -29 -182c0 -34 10 -61 30 -80c20 -18 48 -27 83 -28h3h1h2h255c77 0 131 30 131 74s-35 77 -124 116l-249 110v88zM1325 104l56 71c49 -33 93 -43 140 -43c7 0 10 -3 10 -10v-111c0 -7 -3 -11 -10 -11c-75 0 -135 32 -196 104z" arabic-form="final" glyph-name="uniFC83" horiz-adv-x="1521" unicode="ﲃ"/>
<glyph d="M1228 795h181v-5l-344 -286l160 -70c124 -53 186 -128 186 -223c0 -131 -101 -211 -265 -211h-247h-2h-1c-72 0 -129 18 -170 54c-41 37 -62 87 -62 151c0 26 2 55 5 88c3 26 7 52 12 77c-38 -3 -71 -9 -100 -16c-96 -24 -140 -68 -140 -104c0 -27 14 -45 69 -80l35 -24 c72 -48 103 -96 103 -159c0 -117 -121 -202 -305 -202c-215 0 -315 92 -315 277c0 89 17 143 44 223h117c-27 -71 -43 -138 -43 -199c0 -120 63 -171 230 -171c85 0 154 26 154 63c0 23 -29 47 -70 75l-48 34c-60 43 -89 90 -89 155c0 108 101 231 374 258l112 -78 c-16 -73 -29 -135 -29 -182c0 -34 10 -61 30 -80c20 -18 48 -27 83 -28h3h1h2h255c77 0 131 30 131 74s-35 77 -124 116l-249 110v88zM240 -355l93 93l75 -72l73 72l94 -93l-93 -93l-74 73l-73 -73z" arabic-form="isolated" glyph-name="uniFC3E" horiz-adv-x="1440" unicode="ﰾ"/>
<glyph d="M1228 795h181v-5l-344 -286l160 -70c124 -53 186 -128 186 -223c0 -131 -101 -211 -265 -211h-247h-2h-1c-72 0 -129 18 -170 54c-41 37 -62 87 -62 151c0 26 2 55 5 88c3 26 7 52 12 77c-38 -3 -71 -9 -100 -16c-96 -24 -140 -68 -140 -104c0 -27 14 -45 69 -80l35 -24 c72 -48 103 -96 103 -159c0 -117 -121 -202 -305 -202c-215 0 -315 92 -315 277c0 89 17 143 44 223h117c-27 -71 -43 -138 -43 -199c0 -120 63 -171 230 -171c85 0 154 26 154 63c0 23 -29 47 -70 75l-48 34c-60 43 -89 90 -89 155c0 108 101 231 374 258l112 -78 c-16 -73 -29 -135 -29 -182c0 -34 10 -61 30 -80c20 -18 48 -27 83 -28h3h1h2h255c77 0 131 30 131 74s-35 77 -124 116l-249 110v88zM1325 104l56 71c49 -33 93 -43 140 -43c7 0 10 -3 10 -10v-111c0 -7 -3 -11 -10 -11c-75 0 -135 32 -196 104zM240 -355l93 93l75 -72 l73 72l94 -93l-93 -93l-74 73l-73 -73z" arabic-form="final" glyph-name="uniFC84" horiz-adv-x="1521" unicode="ﲄ"/>
<glyph d="M290 725h126v-528c11 -5 23 -10 36 -17c29 -15 61 -35 95 -58l-67 -118c-33 4 -64 14 -92 31c-21 13 -39 27 -54 42c-12 4 -23 7 -34 9c-19 4 -36 6 -52 6c-53 0 -79 -29 -79 -88c0 -63 9 -139 30 -279h-126c-24 149 -30 228 -30 289c0 121 81 208 195 208 c15 0 32 -1 49 -4c3 -1 7 -1 11 -1c-3 15 -5 31 -6 46c-1 18 -2 34 -2 49v413z" arabic-form="isolated" glyph-name="uniFC42" horiz-adv-x="548" unicode="ﱂ"/>
<glyph d="M0 132c23 0 45 -1 66 -3c11 -1 23 -3 35 -5l-2 10c-5 36 -9 73 -9 102v489h126v-623l28 -14c29 -15 60 -34 92 -58l-64 -114c-32 7 -62 17 -90 31c-21 10 -39 22 -54 37l-15 3c-42 10 -85 13 -113 13c-7 0 -10 3 -10 10v111c0 7 3 11 10 11z" arabic-form="initial" glyph-name="uniFCCC" horiz-adv-x="313" unicode="ﳌ"/>
<glyph d="M665 725h126v-528c0 -61 -19 -109 -56 -144c-19 -18 -42 -31 -70 -40c-28 -71 -70 -126 -127 -165c-61 -42 -139 -63 -234 -63c-171 0 -276 98 -276 277c0 89 17 143 44 223h117c-27 -71 -43 -138 -43 -199c0 -119 59 -169 182 -169c63 0 115 12 158 37 c22 13 41 28 56 46l-48 2c-25 2 -51 5 -80 10l15 129c48 -6 95 -9 140 -9c73 0 96 26 96 86v507zM209 -351l93 93l75 -72l73 72l94 -93l-93 -93l-74 73l-73 -73z" arabic-form="isolated" glyph-name="uniFC44" horiz-adv-x="868" unicode="ﱄ"/>
<glyph d="M667 725h126v-507c0 -60 23 -86 96 -86c7 0 10 -3 10 -10v-111c0 -7 -3 -11 -10 -11c-73 0 -129 18 -166 53l-8 7l-5 -4c-12 -11 -25 -21 -39 -30l-1 -1c-28 -77 -72 -136 -132 -177c-61 -42 -139 -63 -234 -63c-171 0 -276 98 -276 277c0 89 17 143 44 223h117 c-27 -71 -43 -138 -43 -199c0 -119 59 -169 182 -169c63 0 115 12 158 37c22 13 41 28 56 46l-48 2c-25 2 -51 5 -80 10l15 129c48 -6 95 -9 140 -9c25 0 48 4 69 11c11 5 22 10 31 16c-1 12 -2 25 -2 38v528zM228 -351l93 93l75 -72l73 72l94 -93l-93 -93l-74 73l-73 -73z " arabic-form="final" glyph-name="uniFC87" horiz-adv-x="889" unicode="ﲇ"/>
<glyph d="M443 461l107 -60c-13 -56 -21 -117 -21 -161c0 -68 25 -108 81 -108c7 0 10 -3 10 -10v-111c0 -7 -3 -11 -10 -11c-133 0 -196 59 -196 184c0 27 1 54 4 81l9 63c-30 -15 -59 -28 -86 -38c-29 -10 -60 -18 -95 -24c2 -17 4 -32 5 -47c6 -59 8 -116 8 -197 c0 -156 -107 -237 -267 -237v114c77 0 146 41 146 131c0 109 -7 165 -26 328l10 12c129 11 226 44 321 91zM355 633l93 93l94 -93l-93 -93z" arabic-form="final" glyph-name="uniFC8A" horiz-adv-x="610" unicode="ﲊ"/>
<glyph d="M443 461l107 -60c-13 -56 -21 -117 -21 -161c0 -68 25 -108 81 -108c7 0 10 -3 10 -10v-111c0 -7 -3 -11 -10 -11c-133 0 -196 59 -196 184c0 27 1 54 4 81l9 63c-30 -15 -59 -28 -86 -38c-29 -10 -60 -18 -95 -24c2 -17 4 -32 5 -47c6 -59 8 -116 8 -197 c0 -156 -107 -237 -267 -237v114c77 0 146 41 146 131c0 109 -7 165 -26 328l10 12c129 11 226 44 321 91zM46 552l93 93l94 -93l-93 -93zM355 633l93 93l94 -93l-93 -93z" arabic-form="final" glyph-name="uniFC8B" horiz-adv-x="610" unicode="ﲋ"/>
<glyph d="M395 532h10l79 -77c-63 -60 -89 -104 -89 -157c0 -35 12 -65 35 -92c20 -23 48 -46 83 -71l19 -13l-67 -118c-33 4 -64 14 -92 31c-21 13 -39 27 -54 42c-12 4 -23 7 -34 9c-19 4 -36 6 -52 6c-53 0 -79 -29 -79 -88c0 -63 9 -139 30 -279h-126c-24 149 -30 228 -30 289 c0 121 81 208 195 208c15 0 32 -1 49 -4c8 -1 16 -2 25 -4c-19 34 -28 70 -28 107c0 76 46 152 126 211zM313 688l93 93l94 -93l-93 -93z" arabic-form="isolated" glyph-name="uniFC4E" horiz-adv-x="560" unicode="ﱎ"/>
<glyph d="M781 461l107 -60c-15 -56 -22 -117 -21 -161c0 -68 25 -108 81 -108c7 0 10 -3 10 -10v-111c0 -7 -3 -11 -10 -11c-136 0 -197 59 -197 184c0 27 2 54 5 81c2 21 5 41 9 62c-28 -14 -55 -26 -81 -35c-29 -11 -62 -20 -98 -27l7 -80c3 -29 4 -58 4 -88 c0 -187 -106 -312 -303 -312c-171 0 -266 97 -266 277c0 89 17 143 44 223h117c-27 -71 -43 -138 -43 -199c0 -99 45 -169 153 -169c119 0 172 61 172 186c0 79 -6 135 -22 255l10 12c129 10 227 43 322 91zM683 652l93 93l94 -93l-93 -93zM201 479l93 93l94 -93l-93 -93z " arabic-form="final" glyph-name="uniFC8D" horiz-adv-x="948" unicode="ﲍ"/>
<glyph d="M661 485h126c21 -144 29 -221 29 -288c0 -64 -19 -113 -57 -147c-25 -22 -58 -37 -97 -44c-28 -68 -69 -121 -124 -158c-61 -42 -139 -63 -234 -63c-171 0 -276 98 -276 277c0 89 17 143 44 223h117c-27 -71 -43 -138 -43 -199c0 -119 59 -169 182 -169 c63 0 115 12 158 37c22 13 41 28 56 46l-35 2c-32 3 -65 6 -93 10l15 129c48 -5 119 -9 166 -9c73 0 96 26 96 86c0 56 -9 125 -30 267zM623 639l93 93l94 -93l-93 -93z" arabic-form="isolated" glyph-name="uniFC4F" horiz-adv-x="864" unicode="ﱏ"/>
<glyph d="M697 500l113 -66c-17 -73 -30 -147 -30 -194c0 -68 40 -108 120 -108c7 0 10 -3 10 -10v-111c0 -7 -3 -11 -10 -11c-144 0 -236 77 -236 205c0 26 2 55 5 88c3 26 7 52 12 77c-38 -3 -71 -9 -100 -16c-96 -24 -140 -68 -140 -104c0 -27 14 -45 69 -80l35 -24 c72 -48 103 -96 103 -159c0 -117 -121 -202 -305 -202c-215 0 -315 92 -315 277c0 89 17 143 44 223h117c-27 -71 -43 -138 -43 -199c0 -120 63 -171 230 -171c85 0 154 26 154 63c0 23 -29 47 -70 75l-48 34c-60 43 -89 90 -89 155c0 108 101 231 374 258zM598 685l93 93 l94 -93l-93 -93z" arabic-form="final" glyph-name="uniFC8E" horiz-adv-x="899" unicode="ﲎ"/>
<glyph d="M661 485h126c21 -144 29 -221 29 -288c0 -64 -19 -113 -57 -147c-25 -22 -58 -37 -97 -44c-28 -68 -69 -121 -124 -158c-61 -42 -139 -63 -234 -63c-171 0 -276 98 -276 277c0 89 17 143 44 223h117c-27 -71 -43 -138 -43 -199c0 -119 59 -169 182 -169 c63 0 115 12 158 37c22 13 41 28 56 46l-35 2c-32 3 -65 6 -93 10l15 129c48 -5 119 -9 166 -9c73 0 96 26 96 86c0 56 -9 125 -30 267zM623 639l93 93l94 -93l-93 -93zM240 -355l93 93l75 -72l73 72l94 -93l-93 -93l-74 73l-73 -73z" arabic-form="isolated" glyph-name="uniFC50" horiz-adv-x="864" unicode="ﱐ"/>
<glyph d="M697 500l113 -66c-17 -73 -30 -147 -30 -194c0 -68 40 -108 120 -108c7 0 10 -3 10 -10v-111c0 -7 -3 -11 -10 -11c-144 0 -236 77 -236 205c0 26 2 55 5 88c3 26 7 52 12 77c-38 -3 -71 -9 -100 -16c-96 -24 -140 -68 -140 -104c0 -27 14 -45 69 -80l35 -24 c72 -48 103 -96 103 -159c0 -117 -121 -202 -305 -202c-215 0 -315 92 -315 277c0 89 17 143 44 223h117c-27 -71 -43 -138 -43 -199c0 -120 63 -171 230 -171c85 0 154 26 154 63c0 23 -29 47 -70 75l-48 34c-60 43 -89 90 -89 155c0 108 101 231 374 258zM598 685l93 93 l94 -93l-93 -93zM240 -355l93 93l75 -72l73 72l94 -93l-93 -93l-74 73l-73 -73z" arabic-form="final" glyph-name="uniFC8F" horiz-adv-x="899" unicode="ﲏ"/>
<glyph d="M443 461l107 -60c-13 -56 -21 -117 -21 -161c0 -68 25 -108 81 -108c7 0 10 -3 10 -10v-111c0 -7 -3 -11 -10 -11c-133 0 -196 59 -196 184c0 27 1 54 4 81l9 63c-30 -15 -59 -28 -86 -38c-29 -10 -60 -18 -95 -24c2 -17 4 -32 5 -47c6 -59 8 -116 8 -197 c0 -156 -107 -237 -267 -237v114c77 0 146 41 146 131c0 109 -7 165 -26 328l10 12c129 11 226 44 321 91zM249 -148l93 93l75 -72l73 72l94 -93l-93 -93l-74 73l-73 -73z" arabic-form="final" glyph-name="uniFC91" horiz-adv-x="610" unicode="ﲑ"/>
<glyph d="M443 461l107 -60c-13 -56 -21 -117 -21 -161c0 -68 25 -108 81 -108c7 0 10 -3 10 -10v-111c0 -7 -3 -11 -10 -11c-133 0 -196 59 -196 184c0 27 1 54 4 81l9 63c-30 -15 -59 -28 -86 -38c-29 -10 -60 -18 -95 -24c2 -17 4 -32 5 -47c6 -59 8 -116 8 -197 c0 -156 -107 -237 -267 -237v114c77 0 146 41 146 131c0 109 -7 165 -26 328l10 12c129 11 226 44 321 91zM46 552l93 93l94 -93l-93 -93zM249 -148l93 93l75 -72l73 72l94 -93l-93 -93l-74 73l-73 -73z" arabic-form="final" glyph-name="uniFC92" horiz-adv-x="610" unicode="ﲒ"/>
<glyph d="M395 532h10l79 -77c-63 -60 -89 -104 -89 -157c0 -35 12 -65 35 -92c20 -23 48 -46 83 -71l19 -13l-67 -118c-33 4 -64 14 -92 31c-21 13 -39 27 -54 42c-12 4 -23 7 -34 9c-19 4 -36 6 -52 6c-53 0 -79 -29 -79 -88c0 -63 9 -139 30 -279h-126c-24 149 -30 228 -30 289 c0 121 81 208 195 208c15 0 32 -1 49 -4c8 -1 16 -2 25 -4c-19 34 -28 70 -28 107c0 76 46 152 126 211zM203 -148l93 93l75 -72l73 72l94 -93l-93 -93l-74 73l-73 -73z" arabic-form="isolated" glyph-name="uniFC58" horiz-adv-x="560" unicode="ﱘ"/>
<glyph d="M781 461l107 -60c-15 -56 -22 -117 -21 -161c0 -68 25 -108 81 -108c7 0 10 -3 10 -10v-111c0 -7 -3 -11 -10 -11c-136 0 -197 59 -197 184c0 27 2 54 5 81c2 21 5 41 9 62c-28 -14 -55 -26 -81 -35c-29 -11 -62 -20 -98 -27l7 -80c3 -29 4 -58 4 -88 c0 -187 -106 -312 -303 -312c-171 0 -266 97 -266 277c0 89 17 143 44 223h117c-27 -71 -43 -138 -43 -199c0 -99 45 -169 153 -169c119 0 172 61 172 186c0 79 -6 135 -22 255l10 12c129 10 227 43 322 91zM573 -148l93 93l75 -72l73 72l94 -93l-93 -93l-74 73l-73 -73z M201 479l93 93l94 -93l-93 -93z" arabic-form="final" glyph-name="uniFC94" horiz-adv-x="948" unicode="ﲔ"/>
<glyph d="M443 461l107 -60c-13 -56 -21 -117 -21 -161c0 -68 25 -108 81 -108c7 0 10 -3 10 -10v-111c0 -7 -3 -11 -10 -11c-133 0 -196 59 -196 184c0 27 1 54 4 81l9 63c-30 -15 -59 -28 -86 -38c-29 -10 -60 -18 -95 -24c2 -17 4 -32 5 -47c6 -59 8 -116 8 -197 c0 -156 -107 -237 -267 -237v114c77 0 146 41 146 131c0 109 -7 165 -26 328l10 12c129 11 226 44 321 91zM497 642h93l-29 -95h-130c-33 0 -58 -2 -106 -17v92c24 8 40 13 55 16l-1 1c-13 14 -20 32 -20 55c0 57 43 104 116 104c21 0 46 -7 75 -21v-86 c-32 11 -48 14 -71 14c-27 0 -44 -13 -44 -32c0 -23 23 -31 62 -31z" arabic-form="final" glyph-name="uniFC64" horiz-adv-x="610" unicode="ﱤ"/>
<glyph d="M443 461l107 -60c-13 -56 -21 -117 -21 -161c0 -68 25 -108 81 -108c7 0 10 -3 10 -10v-111c0 -7 -3 -11 -10 -11c-133 0 -196 59 -196 184c0 27 1 54 4 81l9 63c-30 -15 -59 -28 -86 -38c-29 -10 -60 -18 -95 -24c2 -17 4 -32 5 -47c6 -59 8 -116 8 -197 c0 -156 -107 -237 -267 -237v114c77 0 146 41 146 131c0 109 -7 165 -26 328l10 12c129 11 226 44 321 91zM46 552l93 93l94 -93l-93 -93zM512 642h93l-29 -95h-130c-33 0 -58 -2 -106 -17v92c24 8 40 13 55 16l-1 1c-13 14 -20 32 -20 55c0 57 43 104 116 104 c21 0 46 -7 75 -21v-86c-32 11 -48 14 -71 14c-27 0 -44 -13 -44 -32c0 -23 23 -31 62 -31z" arabic-form="final" glyph-name="uniFC65" horiz-adv-x="610" unicode="ﱥ"/>
<glyph d="M395 532h10l79 -77c-63 -60 -89 -104 -89 -157c0 -35 12 -65 35 -92c20 -23 48 -46 83 -71l19 -13l-67 -118c-33 4 -64 14 -92 31c-21 13 -39 27 -54 42c-12 4 -23 7 -34 9c-19 4 -36 6 -52 6c-53 0 -79 -29 -79 -88c0 -63 9 -139 30 -279h-126c-24 149 -30 228 -30 289 c0 121 81 208 195 208c15 0 32 -1 49 -4c8 -1 16 -2 25 -4c-19 34 -28 70 -28 107c0 76 46 152 126 211zM434 692h93l-29 -95h-130c-33 0 -58 -2 -106 -17v92c24 8 40 13 55 16l-1 1c-13 14 -20 32 -20 55c0 57 43 104 116 104c21 0 46 -7 75 -21v-86c-32 11 -48 14 -71 14 c-27 0 -44 -13 -44 -32c0 -23 23 -31 62 -31z" arabic-form="isolated" glyph-name="uniFC02" horiz-adv-x="560" unicode="ﰂ"/>
<glyph d="M781 461l107 -60c-15 -56 -22 -117 -21 -161c0 -68 25 -108 81 -108c7 0 10 -3 10 -10v-111c0 -7 -3 -11 -10 -11c-136 0 -197 59 -197 184c0 27 2 54 5 81c2 21 5 41 9 62c-28 -14 -55 -26 -81 -35c-29 -11 -62 -20 -98 -27l7 -80c3 -29 4 -58 4 -88 c0 -187 -106 -312 -303 -312c-171 0 -266 97 -266 277c0 89 17 143 44 223h117c-27 -71 -43 -138 -43 -199c0 -99 45 -169 153 -169c119 0 172 61 172 186c0 79 -6 135 -22 255l10 12c129 10 227 43 322 91zM826 640h93l-29 -95h-130c-33 0 -58 -2 -106 -17v92l31 10 c8 3 16 5 24 6l-1 1c-13 14 -20 32 -20 55c0 57 43 104 116 104c21 0 46 -7 75 -21v-86c-32 11 -48 14 -71 14c-27 0 -44 -13 -44 -32c0 -23 23 -31 62 -31zM201 479l93 93l94 -93l-93 -93z" arabic-form="final" glyph-name="uniFC67" horiz-adv-x="948" unicode="ﱧ"/>
<glyph d="M661 485h126c21 -144 29 -221 29 -288c0 -64 -19 -113 -57 -147c-25 -22 -58 -37 -97 -44c-28 -68 -69 -121 -124 -158c-61 -42 -139 -63 -234 -63c-171 0 -276 98 -276 277c0 89 17 143 44 223h117c-27 -71 -43 -138 -43 -199c0 -119 59 -169 182 -169 c63 0 115 12 158 37c22 13 41 28 56 46l-35 2c-32 3 -65 6 -93 10l15 129c48 -5 119 -9 166 -9c73 0 96 26 96 86c0 56 -9 125 -30 267zM764 632h93l-29 -95h-130c-33 0 -58 -2 -106 -17v92c24 8 40 13 55 16l-1 1c-13 14 -20 32 -20 55c0 57 43 104 116 104 c21 0 46 -7 75 -21v-86c-32 11 -48 14 -71 14c-27 0 -44 -13 -44 -32c0 -23 23 -31 62 -31z" arabic-form="isolated" glyph-name="uniFC03" horiz-adv-x="876" unicode="ﰃ"/>
<glyph d="M697 500l113 -66c-17 -73 -30 -147 -30 -194c0 -68 40 -108 120 -108c7 0 10 -3 10 -10v-111c0 -7 -3 -11 -10 -11c-144 0 -236 77 -236 205c0 26 2 55 5 88c3 26 7 52 12 77c-38 -3 -71 -9 -100 -16c-96 -24 -140 -68 -140 -104c0 -27 14 -45 69 -80l35 -24 c72 -48 103 -96 103 -159c0 -117 -121 -202 -305 -202c-215 0 -315 92 -315 277c0 89 17 143 44 223h117c-27 -71 -43 -138 -43 -199c0 -120 63 -171 230 -171c85 0 154 26 154 63c0 23 -29 47 -70 75l-48 34c-60 43 -89 90 -89 155c0 108 101 231 374 258zM731 675h93 l-29 -95h-130c-33 0 -58 -2 -106 -17v92c24 8 40 13 55 16l-1 1c-13 14 -20 32 -20 55c0 57 43 104 116 104c21 0 46 -7 75 -21v-86c-32 11 -48 14 -71 14c-27 0 -44 -13 -44 -32c0 -23 23 -31 62 -31z" arabic-form="final" glyph-name="uniFC68" horiz-adv-x="899" unicode="ﱨ"/>
<glyph d="M661 485h126c21 -144 29 -221 29 -288c0 -64 -19 -113 -57 -147c-25 -22 -58 -37 -97 -44c-28 -68 -69 -121 -124 -158c-61 -42 -139 -63 -234 -63c-171 0 -276 98 -276 277c0 89 17 143 44 223h117c-27 -71 -43 -138 -43 -199c0 -119 59 -169 182 -169 c63 0 115 12 158 37c22 13 41 28 56 46l-35 2c-32 3 -65 6 -93 10l15 129c48 -5 119 -9 166 -9c73 0 96 26 96 86c0 56 -9 125 -30 267zM764 632h93l-29 -95h-130c-33 0 -58 -2 -106 -17v92c24 8 40 13 55 16l-1 1c-13 14 -20 32 -20 55c0 57 43 104 116 104 c21 0 46 -7 75 -21v-86c-32 11 -48 14 -71 14c-27 0 -44 -13 -44 -32c0 -23 23 -31 62 -31zM240 -355l93 93l75 -72l73 72l94 -93l-93 -93l-74 73l-73 -73z" arabic-form="isolated" glyph-name="uniFC04" horiz-adv-x="876" unicode="ﰄ"/>
<glyph d="M697 500l113 -66c-17 -73 -30 -147 -30 -194c0 -68 40 -108 120 -108c7 0 10 -3 10 -10v-111c0 -7 -3 -11 -10 -11c-144 0 -236 77 -236 205c0 26 2 55 5 88c3 26 7 52 12 77c-38 -3 -71 -9 -100 -16c-96 -24 -140 -68 -140 -104c0 -27 14 -45 69 -80l35 -24 c72 -48 103 -96 103 -159c0 -117 -121 -202 -305 -202c-215 0 -315 92 -315 277c0 89 17 143 44 223h117c-27 -71 -43 -138 -43 -199c0 -120 63 -171 230 -171c85 0 154 26 154 63c0 23 -29 47 -70 75l-48 34c-60 43 -89 90 -89 155c0 108 101 231 374 258zM731 675h93 l-29 -95h-130c-33 0 -58 -2 -106 -17v92c24 8 40 13 55 16l-1 1c-13 14 -20 32 -20 55c0 57 43 104 116 104c21 0 46 -7 75 -21v-86c-32 11 -48 14 -71 14c-27 0 -44 -13 -44 -32c0 -23 23 -31 62 -31zM240 -355l93 93l75 -72l73 72l94 -93l-93 -93l-74 73l-73 -73z" arabic-form="final" glyph-name="uniFC69" horiz-adv-x="899" unicode="ﱩ"/>
<glyph d="M254 725h169l-271 -282h369c148 0 251 -86 251 -218c0 -139 -89 -225 -229 -225h-543c-7 0 -10 4 -10 11v111c0 7 3 10 10 10h534c72 0 113 33 113 90c0 61 -45 96 -121 96h-435l-71 125z" glyph-name="uni06AA.init" horiz-adv-x="810" unicode="ڪ"/>
<glyph d="M254 725h169l-271 -282h369c148 0 251 -86 251 -218c0 -139 -89 -225 -229 -225h-543c-7 0 -10 4 -10 11v111c0 7 3 10 10 10h534c72 0 113 33 113 90c0 61 -45 96 -121 96h-435l-71 125zM655 104l56 71c49 -33 93 -43 140 -43c7 0 10 -3 10 -10v-111 c0 -7 -3 -11 -10 -11c-75 0 -135 32 -196 104z" glyph-name="uni06AA.medi" horiz-adv-x="851" unicode="ڪ"/>
<glyph d="M357 725h169l-271 -282h362c149 0 252 -86 252 -218c0 -139 -91 -225 -230 -225h-391c-88 0 -149 19 -226 70l57 114c65 -39 113 -52 176 -52h375c72 0 113 33 113 90c0 61 -45 96 -121 96h-428l-71 125zM749 104l56 71c49 -33 93 -43 140 -43c7 0 10 -3 10 -10v-111 c0 -7 -3 -11 -10 -11c-75 0 -135 32 -196 104z" glyph-name="uni06AA.fina" horiz-adv-x="945" unicode="ڪ"/>
<glyph d="M0 0v725h500v-725h-500zM239 362l-220 334v-667zM260 362l221 -333v667zM250 346l-217 -327h433zM33 706l217 -328l216 328h-433z" glyph-name=".notdef" horiz-adv-x="500"/>
<glyph glyph-name="NULL"/>
<glyph glyph-name="CR" horiz-adv-x="226"/>
<glyph glyph-name="space" horiz-adv-x="226" unicode=" "/>
<glyph d="M172 214h-91l-25 325v186h138v-186zM199 0h-148v150h148v-150z" glyph-name="exclam" horiz-adv-x="250" unicode="!"/>
<glyph d="M182 725h145l-20 -259h-106zM14 725h145l-20 -259h-106z" glyph-name="quotedbl" horiz-adv-x="341" unicode='"'/>
<glyph d="M57 557h140l23 168h124l-23 -168h133l23 168h124l-23 -168h138l-13 -107h-140l-21 -151h137l-11 -106h-141l-26 -193h-124l26 193h-133l-26 -193h-124l26 193h-137l13 106h139l21 151h-136zM306 450l-21 -151h133l21 151h-133z" glyph-name="numbersign" horiz-adv-x="725" unicode="#"/>
<glyph d="M280 810h57v-74c145 -13 239 -108 239 -241h-134c0 83 -48 124 -105 135v-201l8 -2c108 -27 241 -72 241 -219c0 -140 -118 -212 -249 -220v-84h-57v85c-146 11 -249 111 -246 252h135c0 -93 51 -139 111 -147v224l-38 9c-99 24 -197 78 -197 207c0 136 120 195 235 203 v73zM457 199c0 59 -45 85 -120 105v-211c63 3 120 34 120 106zM174 541c0 -55 42 -84 98 -97l8 -2v190c-53 -3 -106 -30 -106 -91z" glyph-name="dollar" horiz-adv-x="624" unicode="$"/>
<glyph d="M207 310c-117 0 -178 79 -178 212c0 132 61 210 178 210c116 0 176 -78 176 -210c0 -133 -60 -212 -176 -212zM207 380c45 0 78 42 78 142c0 99 -33 139 -78 139c-47 0 -79 -40 -79 -139c0 -100 32 -142 79 -142zM354 0h-142l501 725h142zM862 -7 c-117 0 -178 79 -178 212c0 132 61 210 178 210c116 0 176 -78 176 -210c0 -133 -60 -212 -176 -212zM862 63c45 0 78 42 78 142c0 99 -33 139 -78 139c-47 0 -79 -40 -79 -139c0 -100 32 -142 79 -142z" glyph-name="percent" horiz-adv-x="1067" unicode="%"/>
<glyph d="M253 -13c-144 0 -243 93 -243 216c0 110 84 177 171 209c-44 55 -74 108 -74 165c0 100 89 161 208 161c93 0 199 -42 199 -162c0 -81 -59 -152 -135 -187l96 -106c15 43 21 85 24 124h136c-8 -72 -32 -150 -72 -221l170 -186h-184l-70 78c-60 -56 -134 -91 -226 -91z M273 91c53 0 98 27 133 68l-154 173c-65 -27 -101 -67 -101 -122c0 -69 50 -119 122 -119zM248 580c0 -40 32 -82 64 -117l1 -1c55 28 70 73 70 108c0 44 -29 69 -68 69c-36 0 -67 -24 -67 -59z" glyph-name="ampersand" horiz-adv-x="692" unicode="&amp;"/>
<glyph d="M14 725h145l-20 -259h-106z" glyph-name="quotesingle" horiz-adv-x="173" unicode="'"/>
<glyph d="M18 275c0 201 80 362 138 450h126c-67 -111 -122 -267 -122 -450c0 -184 55 -340 122 -450h-126c-59 88 -138 251 -138 450z" glyph-name="parenleft" horiz-adv-x="267" unicode="("/>
<glyph d="M246 275c0 -200 -79 -361 -138 -450h-126c67 110 122 266 122 450c0 183 -55 339 -122 450h126c59 -88 138 -249 138 -450z" glyph-name="parenright" horiz-adv-x="267" unicode=")"/>
<glyph d="M236 725v-104l99 38l33 -87l-102 -35l61 -85l-72 -54l-65 87l-59 -87l-78 53l61 85l-100 36l32 87l97 -38v104h93z" glyph-name="asterisk" horiz-adv-x="382" unicode="*"/>
<glyph d="M402 0h-125v207h-216v120h216v211h125v-211h215v-120h-215v-207z" glyph-name="plus" horiz-adv-x="678" unicode="+"/>
<glyph d="M51 0v150h155v-161l-82 -159h-79l74 170h-68z" glyph-name="comma" horiz-adv-x="257" unicode=","/>
<glyph d="M374 207h-331v120h331v-120z" glyph-name="hyphen" horiz-adv-x="418" unicode="-"/>
<glyph d="M199 0h-148v150h148v-150z" glyph-name="period" horiz-adv-x="250" unicode="."/>
<glyph d="M123 0h-128l280 725h128z" glyph-name="slash" horiz-adv-x="397" unicode="/"/>
<glyph d="M332 -13c-194 0 -292 157 -292 377s98 374 292 374c192 0 291 -154 291 -374s-99 -377 -291 -377zM332 91c99 0 150 98 150 273s-51 270 -150 270s-151 -95 -151 -270s52 -273 151 -273z" glyph-name="zero" horiz-adv-x="663" unicode="0"/>
<glyph d="M294 0h-138v542h-156v94c104 3 155 10 189 89h105v-725z" glyph-name="one" horiz-adv-x="369" unicode="1"/>
<glyph d="M301 738c145 0 238 -68 238 -195c0 -135 -132 -278 -355 -427h372v-116h-533v112c233 187 377 309 377 424c0 64 -39 100 -107 100c-61 0 -123 -37 -123 -145h-134c-3 149 105 247 265 247z" glyph-name="two" horiz-adv-x="579" unicode="2"/>
<glyph d="M299 91c76 0 136 45 136 113c0 85 -79 119 -182 119h-29v108h24c104 0 169 38 169 106c0 63 -55 97 -115 97c-84 0 -136 -52 -143 -128h-131c16 145 115 232 282 232c121 0 246 -58 246 -195c0 -71 -42 -128 -98 -159c75 -32 117 -103 117 -176 c0 -147 -127 -221 -280 -221c-166 0 -265 108 -273 241h130c11 -73 56 -137 147 -137z" glyph-name="three" horiz-adv-x="614" unicode="3"/>
<glyph d="M366 550l-207 -259h207v259zM627 291v-117h-124v-174h-137v174h-358v108l360 443h135v-434h124z" glyph-name="four" horiz-adv-x="634" unicode="4"/>
<glyph d="M312 91c76 0 131 55 131 147c0 100 -67 148 -134 148c-64 0 -109 -31 -124 -66l-126 6l48 399h447v-116h-334l-20 -155c31 23 76 40 144 40c124 0 239 -88 239 -255c0 -160 -124 -252 -273 -252c-170 0 -260 116 -268 241h130c8 -75 51 -137 140 -137z" glyph-name="five" horiz-adv-x="623" unicode="5"/>
<glyph d="M186 235c0 -87 57 -144 133 -144c75 0 130 56 130 144c0 85 -55 141 -130 141c-76 0 -133 -56 -133 -141zM325 633c-92 0 -147 -85 -147 -221c31 39 89 69 165 69c134 0 246 -91 246 -248c0 -149 -113 -246 -270 -246c-194 0 -279 156 -279 359c0 208 77 392 294 392 c158 0 232 -107 240 -200h-135c-7 60 -54 95 -114 95z" glyph-name="six" horiz-adv-x="628" unicode="6"/>
<glyph d="M-3 609v116h533v-116c-189 -191 -282 -349 -295 -609h-152c11 250 146 458 308 609h-394z" glyph-name="seven" horiz-adv-x="510" unicode="7"/>
<glyph d="M320 738c154 0 253 -79 253 -186c0 -65 -25 -125 -88 -164c81 -47 110 -110 110 -181c0 -141 -121 -220 -275 -220c-152 0 -274 79 -274 220c0 71 30 136 111 181c-60 35 -89 99 -89 163c0 108 100 187 252 187zM320 332c-81 0 -133 -47 -133 -119s52 -122 133 -122 c83 0 134 50 134 122s-51 119 -134 119zM439 535c0 60 -47 99 -119 99s-118 -39 -118 -99s46 -104 118 -104s119 44 119 104z" glyph-name="eight" horiz-adv-x="641" unicode="8"/>
<glyph d="M435 491c0 86 -57 142 -132 142c-76 0 -130 -54 -130 -142c0 -85 55 -141 130 -141s132 56 132 141zM297 93c92 0 147 85 147 220c-31 -39 -89 -69 -166 -69c-133 0 -245 92 -245 248c0 149 113 246 270 246c194 0 279 -156 279 -359c0 -208 -78 -392 -294 -392 c-158 0 -232 108 -240 200h135c7 -60 54 -94 114 -94z" glyph-name="nine" horiz-adv-x="622" unicode="9"/>
<glyph d="M199 388h-148v150h148v-150zM199 0h-148v150h148v-150z" glyph-name="colon" horiz-adv-x="250" unicode=":"/>
<glyph d="M199 388h-148v150h148v-150zM51 0v150h155v-161l-82 -159h-79l74 170h-68z" glyph-name="semicolon" horiz-adv-x="257" unicode=";"/>
<glyph d="M76 324l516 220v-134l-364 -143l364 -143v-135l-516 221v114z" glyph-name="less" horiz-adv-x="678" unicode="&lt;"/>
<glyph d="M593 314h-508v120h508v-120zM593 103h-508v121h508v-121z" glyph-name="equal" horiz-adv-x="678" unicode="="/>
<glyph d="M602 324v-114l-516 -221v135l365 143l-365 143v134z" glyph-name="greater" horiz-adv-x="678" unicode="&gt;"/>
<glyph d="M275 738c122 0 243 -58 243 -183c0 -92 -66 -151 -123 -184c-65 -38 -94 -59 -94 -132v-31h-135v34c0 98 38 144 107 184c63 37 106 70 106 122s-53 85 -106 85c-73 0 -129 -39 -132 -135h-136c0 147 115 240 270 240zM307 0h-148v150h148v-150z" glyph-name="question" horiz-adv-x="524" unicode="?"/>
<glyph d="M408 492c-75 0 -119 -75 -119 -158c0 -71 30 -105 83 -105c79 0 123 77 123 165c0 63 -31 98 -87 98zM605 153c-53 0 -95 32 -103 92c-31 -57 -80 -89 -152 -89c-78 0 -148 54 -148 179c0 116 77 232 205 232c56 0 96 -29 115 -76c3 19 4 40 8 59h71l-29 -218 c-3 -15 -4 -29 -4 -40c0 -45 15 -67 46 -67c52 0 95 66 95 177c0 166 -114 253 -278 253c-185 0 -311 -133 -311 -309c0 -170 111 -286 276 -286c68 0 126 12 190 43l28 -67c-67 -33 -146 -49 -218 -49c-211 0 -356 149 -356 362c0 214 170 376 393 376 c193 0 353 -100 353 -319c0 -163 -90 -253 -181 -253z" glyph-name="at" horiz-adv-x="825" unicode="@"/>
<glyph d="M0 0l270 725h144l271 -725h-155l-51 147h-282l-51 -147h-146zM338 550l-100 -286h200z" glyph-name="A" horiz-adv-x="685" unicode="A"/>
<glyph d="M65 0v725h282c127 0 264 -40 264 -189c0 -68 -45 -129 -82 -153c56 -27 108 -69 108 -169c0 -156 -129 -214 -278 -214h-294zM208 318v-206h158c84 0 125 35 125 102c0 68 -42 104 -131 104h-152zM208 613v-187h148c68 0 108 32 108 96c0 57 -41 91 -108 91h-148z" glyph-name="B" horiz-adv-x="664" unicode="B"/>
<glyph d="M557 238h136c-19 -147 -141 -251 -314 -251c-216 0 -339 147 -339 379c0 229 132 372 343 372c170 0 286 -97 310 -248h-136c-27 101 -95 134 -175 134c-109 0 -194 -90 -194 -258c0 -173 85 -265 189 -265c86 0 156 38 180 137z" glyph-name="C" horiz-adv-x="719" unicode="C"/>
<glyph d="M535 363c0 217 -129 250 -261 250h-66v-501h66c132 0 261 32 261 251zM65 725h215c230 0 403 -74 403 -362s-173 -363 -403 -363h-215v725z" glyph-name="D" horiz-adv-x="719" unicode="D"/>
<glyph d="M65 0v725h528v-116h-385v-180h364v-116h-364v-197h385v-116h-528z" glyph-name="E" horiz-adv-x="617" unicode="E"/>
<glyph d="M65 0v725h528v-116h-385v-180h364v-116h-364v-313h-143z" glyph-name="F" horiz-adv-x="593" unicode="F"/>
<glyph d="M395 738c171 0 285 -99 309 -233h-136c-23 80 -93 119 -174 119c-121 0 -206 -85 -206 -258s81 -265 205 -265c77 0 181 39 181 155v12h-181v117h313v-385h-113l-4 85c-41 -60 -115 -98 -218 -98c-204 0 -331 147 -331 379c0 225 133 372 355 372z" glyph-name="G" horiz-adv-x="766" unicode="G"/>
<glyph d="M533 725h143v-725h-143v313h-325v-313h-143v725h143v-296h325v296z" glyph-name="H" horiz-adv-x="741" unicode="H"/>
<glyph d="M208 725v-725h-143v725h143z" glyph-name="I" horiz-adv-x="273" unicode="I"/>
<glyph d="M261 -13c-159 0 -247 103 -250 250h143c3 -99 43 -133 107 -133c63 0 106 34 106 133v488h143v-488c0 -153 -90 -250 -249 -250z" glyph-name="J" horiz-adv-x="575" unicode="J"/>
<glyph d="M208 725v-332l296 332h167l-267 -292l287 -433h-169l-214 327l-100 -109v-218h-143v725h143z" glyph-name="K" horiz-adv-x="681" unicode="K"/>
<glyph d="M208 725v-609h353v-116h-496v725h143z" glyph-name="L" horiz-adv-x="561" unicode="L"/>
<glyph d="M519 0h-142l-179 545v-545h-133v725h208l176 -565l171 565h210v-725h-133v545z" glyph-name="M" horiz-adv-x="895" unicode="M"/>
<glyph d="M676 0h-186l-290 553v-553h-135v725h186l290 -553v553h135v-725z" glyph-name="N" horiz-adv-x="741" unicode="N"/>
<glyph d="M184 363c0 -171 94 -262 207 -262s207 91 207 262c0 170 -94 261 -207 261s-207 -91 -207 -261zM746 363c0 -225 -139 -376 -355 -376s-355 151 -355 376s139 375 355 375s355 -150 355 -375z" glyph-name="O" horiz-adv-x="782" unicode="O"/>
<glyph d="M65 725h248c148 0 319 -21 319 -240c0 -185 -147 -230 -315 -230h-109v-255h-143v725zM316 613h-108v-247h118c88 0 159 22 159 118c0 119 -92 129 -169 129z" glyph-name="P" horiz-adv-x="639" unicode="P"/>
<glyph d="M746 363c0 -133 -46 -238 -130 -303l86 -113l-88 -66l-97 125c-39 -12 -79 -19 -126 -19c-216 0 -355 151 -355 376s139 375 355 375s355 -150 355 -375zM184 363c0 -171 94 -262 207 -262c17 0 34 2 50 6l-55 72l89 67l60 -80c39 45 63 110 63 197 c0 170 -94 261 -207 261s-207 -91 -207 -261z" glyph-name="Q" horiz-adv-x="781" unicode="Q"/>
<glyph d="M504 0l-144 284h-34h-118v-284h-143v725h238c239 0 330 -68 330 -220c0 -84 -40 -152 -131 -191l161 -314h-159zM319 613h-111v-218h118c112 0 160 37 160 109c0 84 -70 109 -167 109z" glyph-name="R" horiz-adv-x="677" unicode="R"/>
<glyph d="M350 301l-92 17c-117 24 -217 84 -217 210c0 146 156 210 289 210c150 0 277 -88 285 -227h-138c-11 85 -85 113 -153 113c-67 0 -140 -25 -140 -90c0 -51 42 -79 101 -90l95 -17c118 -22 248 -67 248 -218c0 -149 -148 -222 -294 -222c-178 0 -296 96 -309 252h138 c16 -107 90 -138 176 -138c64 0 145 24 145 101c0 61 -57 86 -134 99z" glyph-name="S" horiz-adv-x="651" unicode="S"/>
<glyph d="M228 0v609h-223v116h590v-116h-224v-609h-143z" glyph-name="T" horiz-adv-x="600" unicode="T"/>
<glyph d="M54 725h143v-419c0 -128 26 -205 158 -205s156 77 156 205v419h143v-418c0 -239 -87 -320 -299 -320s-301 81 -301 320v418z" glyph-name="U" horiz-adv-x="708" unicode="U"/>
<glyph d="M-5 725h155l173 -546l168 546h152l-250 -725h-146z" glyph-name="V" horiz-adv-x="638" unicode="V"/>
<glyph d="M529 725l111 -531l99 531h146l-161 -725h-169l-110 540l-110 -540h-169l-161 725h148l108 -528l101 528h167z" glyph-name="W" horiz-adv-x="890" unicode="W"/>
<glyph d="M-16 0l266 371l-249 354h172l164 -233l167 233h162l-249 -347l266 -378h-172l-181 257l-185 -257h-161z" glyph-name="X" horiz-adv-x="667" unicode="X"/>
<glyph d="M-11 725h167l169 -303l172 303h163l-267 -445v-280h-143v282z" glyph-name="Y" horiz-adv-x="650" unicode="Y"/>
<glyph d="M587 725v-112l-390 -491h401v-122h-579v112l392 492h-361v121h537z" glyph-name="Z" horiz-adv-x="622" unicode="Z"/>
<glyph d="M65 725h257v-100h-134v-699h134v-101h-257v900z" glyph-name="bracketleft" horiz-adv-x="342" unicode="["/>
<glyph d="M123 725l280 -725h-128l-280 725h128z" glyph-name="backslash" horiz-adv-x="397" unicode="\"/>
<glyph d="M20 725h257v-900h-257v101h135v699h-135v100z" glyph-name="bracketright" horiz-adv-x="342" unicode="]"/>
<glyph d="M335 725l199 -387h-134l-122 249l-121 -249h-135l199 387h114z" glyph-name="asciicircum" horiz-adv-x="555" unicode="^"/>
<glyph d="M470 -121h-448v121h448v-121z" glyph-name="underscore" horiz-adv-x="491" unicode="_"/>
<glyph d="M172 609l-150 116h157l95 -116h-102z" glyph-name="grave" horiz-adv-x="296" unicode="`"/>
<glyph d="M398 206v40c-155 -16 -216 -34 -216 -94c0 -39 30 -71 93 -71c87 0 123 46 123 125zM410 67c-39 -56 -95 -80 -176 -80c-103 0 -194 60 -194 158c0 127 142 165 354 189v9c0 83 -45 112 -101 112c-53 0 -97 -27 -100 -87h-129c11 106 97 184 236 184 c127 0 232 -56 232 -237c0 -16 -2 -89 -2 -137c0 -85 5 -133 16 -178h-127c-4 17 -6 40 -9 67z" glyph-name="a" horiz-adv-x="585" unicode="a"/>
<glyph d="M321 93c72 0 123 70 123 175s-51 176 -123 176c-76 0 -126 -67 -126 -175c0 -111 50 -176 126 -176zM200 0h-138v725h138v-256c29 51 87 81 155 81c130 0 234 -112 234 -281c0 -172 -106 -282 -234 -282c-56 0 -120 21 -155 81v-68z" glyph-name="b" horiz-adv-x="616" unicode="b"/>
<glyph d="M297 550c113 0 225 -63 244 -196h-132c-11 52 -59 89 -112 89c-72 0 -129 -61 -129 -173c0 -113 54 -176 130 -176c48 0 97 25 116 89h132c-32 -147 -143 -196 -255 -196c-161 0 -264 118 -264 281c0 164 109 282 270 282z" glyph-name="c" horiz-adv-x="566" unicode="c"/>
<glyph d="M554 0h-138v68c-35 -60 -99 -81 -155 -81c-128 0 -234 110 -234 282c0 169 104 281 234 281c68 0 126 -30 155 -81v256h138v-725zM295 93c76 0 126 65 126 176c0 108 -50 175 -126 175c-72 0 -123 -71 -123 -176s51 -175 123 -175z" glyph-name="d" horiz-adv-x="616" unicode="d"/>
<glyph d="M561 231h-397c8 -92 70 -137 136 -137c43 0 85 15 113 62h142c-29 -80 -107 -169 -254 -169c-173 0 -274 129 -274 284c0 160 111 279 270 279c166 0 269 -129 264 -319zM296 449c-52 0 -119 -32 -130 -123h255c-3 91 -67 123 -125 123z" glyph-name="e" horiz-adv-x="588" unicode="e"/>
<glyph d="M75 538v30c0 136 64 157 199 157h47v-102h-27c-68 0 -81 -8 -81 -59v-26h108v-95h-108v-443h-138v443h-76v95h76z" glyph-name="f" horiz-adv-x="329" unicode="f"/>
<glyph d="M296 124c77 0 124 65 124 161c0 95 -47 160 -124 160c-71 0 -124 -71 -124 -161c0 -89 53 -160 124 -160zM415 538h137v-484c0 -176 -99 -242 -264 -242c-115 0 -216 42 -235 167h131c12 -44 49 -66 111 -66c72 0 120 34 120 115v72c-35 -59 -98 -81 -154 -81 c-132 0 -234 109 -234 266c0 153 99 265 234 265c68 0 130 -35 154 -82v70z" glyph-name="g" horiz-adv-x="615" unicode="g"/>
<glyph d="M200 725v-258c31 55 89 83 156 83c129 0 186 -78 186 -211v-339h-138v309c0 69 -15 130 -93 130c-91 0 -111 -74 -111 -159v-280h-138v725h138z" glyph-name="h" horiz-adv-x="596" unicode="h"/>
<glyph d="M62 538h138v-538h-138v538zM62 725h138v-128h-138v128z" glyph-name="i" horiz-adv-x="262" unicode="i"/>
<glyph d="M62 725h138v-128h-138v128zM62 6v532h138v-534c0 -149 -38 -179 -174 -179h-36v103h18c52 0 54 19 54 78z" glyph-name="j" horiz-adv-x="262" unicode="j"/>
<glyph d="M62 725h138v-403l196 216h155l-193 -206l204 -332h-155l-141 233l-66 -71v-162h-138v725z" glyph-name="k" horiz-adv-x="555" unicode="k"/>
<glyph d="M200 725v-725h-138v725h138z" glyph-name="l" horiz-adv-x="262" unicode="l"/>
<glyph d="M724 0v313c0 59 -5 126 -86 126c-92 0 -107 -77 -107 -159v-280h-138v313c0 59 -5 126 -86 126c-92 0 -107 -77 -107 -159v-280h-138v538h138v-71c31 53 85 83 150 83c91 0 132 -49 153 -88c43 60 96 88 177 88c135 0 182 -84 182 -211v-339h-138z" glyph-name="m" horiz-adv-x="916" unicode="m"/>
<glyph d="M200 538v-71c31 55 89 83 156 83c129 0 186 -78 186 -211v-339h-138v309c0 69 -15 130 -93 130c-91 0 -111 -74 -111 -159v-280h-138v538h138z" glyph-name="n" horiz-adv-x="596" unicode="n"/>
<glyph d="M296 442c-76 0 -130 -61 -130 -174s54 -173 130 -173s130 60 130 173s-54 174 -130 174zM296 -13c-136 0 -270 93 -270 281c0 189 134 282 270 282s270 -93 270 -282c0 -188 -134 -281 -270 -281z" glyph-name="o" horiz-adv-x="592" unicode="o"/>
<glyph d="M321 93c72 0 123 70 123 175s-51 176 -123 176c-76 0 -126 -67 -126 -175c0 -111 50 -176 126 -176zM200 -175h-138v713h138v-69c29 51 87 81 155 81c130 0 234 -112 234 -281c0 -172 -107 -282 -235 -282c-56 0 -119 21 -154 81v-243z" glyph-name="p" horiz-adv-x="616" unicode="p"/>
<glyph d="M295 93c76 0 126 65 126 176c0 108 -50 175 -126 175c-72 0 -123 -71 -123 -176s51 -175 123 -175zM554 538v-713h-138v243c-35 -60 -99 -81 -155 -81c-128 0 -234 110 -234 282c0 169 104 281 234 281c68 0 126 -30 155 -81v69h138z" glyph-name="q" horiz-adv-x="617" unicode="q"/>
<glyph d="M370 535v-130c-20 3 -37 3 -57 3c-68 0 -113 -25 -113 -126v-282h-138v538h136v-94c31 67 79 93 142 93c9 0 21 -1 30 -2z" glyph-name="r" horiz-adv-x="379" unicode="r"/>
<glyph d="M494 376h-129c-11 45 -51 77 -115 77c-51 0 -87 -19 -87 -52c0 -29 21 -51 72 -62l72 -16c107 -24 198 -51 198 -162c0 -108 -111 -174 -233 -174c-132 0 -232 68 -245 191h133c8 -52 44 -91 116 -91c60 0 97 22 97 61c0 40 -41 55 -88 66l-80 17 c-101 21 -168 63 -168 161c0 96 104 160 220 160c112 0 218 -52 237 -176z" glyph-name="s" horiz-adv-x="529" unicode="s"/>
<glyph d="M81 538v146h138v-146h112v-95h-112v-278c0 -55 19 -66 68 -66h42v-99h-101c-124 0 -147 38 -147 145v298h-76v95h76z" glyph-name="t" horiz-adv-x="357" unicode="t"/>
<glyph d="M393 0v71c-31 -55 -90 -84 -157 -84c-129 0 -181 79 -181 211v340h138v-310c0 -72 11 -130 88 -130c92 0 112 75 112 160v280h138v-538h-138z" glyph-name="u" horiz-adv-x="593" unicode="u"/>
<glyph d="M145 538l126 -398l126 398h137l-193 -538h-145l-196 538h145z" glyph-name="v" horiz-adv-x="534" unicode="v"/>
<glyph d="M209 166l84 372h147l85 -371l72 371h137l-127 -538h-142l-98 408l-99 -408h-142l-126 538h137z" glyph-name="w" horiz-adv-x="734" unicode="w"/>
<glyph d="M534 538l-189 -257l198 -281h-155l-122 173l-126 -173h-140l198 271l-187 267h154l112 -159l116 159h141z" glyph-name="x" horiz-adv-x="543" unicode="x"/>
<glyph d="M116 -175h-58v106h52c46 0 66 -1 90 56l6 15l-206 536h151l122 -388l125 388h140l-197 -522c-64 -167 -91 -191 -225 -191z" glyph-name="y" horiz-adv-x="538" unicode="y"/>
<glyph d="M22 0v109l283 320h-267v109h432v-109l-283 -320h291v-109h-456z" glyph-name="z" horiz-adv-x="498" unicode="z"/>
<glyph d="M311 -175h-36c-136 0 -199 34 -199 173v119c0 63 -9 104 -76 104v109c67 0 76 41 76 104v118c0 139 63 173 199 173h36v-110h-16c-68 0 -81 -20 -81 -71v-131c0 -92 -41 -123 -95 -136v-3c53 -13 95 -44 95 -136v-133c0 -51 13 -71 81 -71h16v-109z" glyph-name="braceleft" horiz-adv-x="331" unicode="{"/>
<glyph d="M65 725h115v-815h-115v815z" glyph-name="bar" horiz-adv-x="245" unicode="|"/>
<glyph d="M20 -175v109h16c68 0 81 20 81 71v133c0 92 42 123 95 136v3c-54 13 -95 44 -95 136v131c0 51 -13 71 -81 71h-16v110h36c136 0 199 -34 199 -173v-118c0 -63 9 -104 76 -104v-109c-67 0 -76 -41 -76 -104v-119c0 -139 -63 -173 -199 -173h-36z" glyph-name="braceright" horiz-adv-x="331" unicode="}"/>
<glyph d="M430 292c33 0 56 16 57 68h98c-5 -115 -49 -187 -150 -187c-72 0 -126 69 -187 69c-33 0 -56 -16 -57 -69h-98c4 115 47 187 150 187c83 0 131 -68 187 -68z" glyph-name="asciitilde" horiz-adv-x="678" unicode="~"/>
<glyph glyph-name="uni00A0" horiz-adv-x="226" unicode=" "/>
<glyph d="M194 0v-175h-138v175l23 325h90zM199 388h-148v150h148v-150z" glyph-name="exclamdown" horiz-adv-x="250" unicode="¡"/>
<glyph d="M259 620h51v-70c112 -5 212 -65 231 -196h-132c-11 48 -48 84 -99 88v-348c47 3 87 28 104 89h132c-32 -139 -128 -192 -236 -195v-77h-51v78c-144 16 -226 129 -226 279s86 260 226 279v73zM174 270c0 -92 30 -150 85 -169v335c-52 -19 -85 -75 -85 -166z" glyph-name="cent" horiz-adv-x="565" unicode="¢"/>
<glyph d="M309 633c-64 0 -118 -37 -118 -90c0 -49 26 -98 51 -146h167v-75h-133c7 -19 10 -35 10 -52c0 -67 -39 -112 -88 -147l1 -2c27 11 47 14 66 14c48 0 82 -26 140 -26c37 0 82 12 129 31l40 -111c-39 -21 -108 -43 -164 -43c-70 0 -135 45 -206 45c-37 0 -81 -15 -134 -44 l-49 98c80 40 130 83 130 181c0 19 -5 37 -12 56h-128v75h90c-25 47 -50 99 -50 160c0 127 130 181 258 181c170 0 268 -98 265 -251h-135c0 109 -58 146 -130 146z" glyph-name="sterling" horiz-adv-x="585" unicode="£"/>
<glyph d="M79 346c0 52 16 100 44 139l-69 70l49 49l68 -68c40 31 89 49 144 49c56 0 107 -19 147 -51l71 70l49 -49l-72 -72c27 -39 44 -86 44 -137s-16 -98 -44 -137l72 -71l-49 -49l-71 70c-41 -31 -91 -49 -147 -49c-55 0 -103 17 -143 48l-69 -69l-49 49l69 70 c-28 39 -44 86 -44 138zM190 346c0 -74 51 -133 124 -133c78 0 132 59 132 133c0 77 -54 137 -132 137c-73 0 -124 -60 -124 -137z" glyph-name="currency" horiz-adv-x="636" unicode="¤"/>
<glyph d="M590 88h-188v-88h-138v88h-182v88h182v80h-182v88h139l-221 381h162l174 -325l176 325h159l-225 -381h144v-88h-188v-80h188v-88z" glyph-name="yen" horiz-adv-x="671" unicode="¥"/>
<glyph d="M62 725h115v-305h-115v305zM62 215h115v-305h-115v305z" glyph-name="brokenbar" horiz-adv-x="239" unicode="¦"/>
<glyph d="M305 -94c51 0 89 28 89 72c0 43 -27 65 -91 97l-127 64c-91 45 -144 101 -144 178c0 61 44 109 104 141c-33 32 -53 74 -53 122c0 101 110 158 218 158c127 0 217 -69 232 -186h-127c-8 53 -48 87 -108 87c-53 0 -85 -21 -85 -52c0 -36 28 -58 76 -81l136 -69 c96 -48 155 -96 155 -173c0 -64 -44 -115 -112 -147c36 -33 58 -73 58 -126c0 -115 -101 -184 -225 -184c-132 0 -230 82 -238 217h127c11 -76 44 -118 115 -118zM353 335l-133 66c-36 -13 -59 -38 -59 -70c0 -39 32 -59 77 -82l133 -68l12 -7c39 17 63 42 63 70 c0 36 -33 59 -93 91z" glyph-name="section" horiz-adv-x="612" unicode="§"/>
<glyph d="M22 609v116h115v-116h-115zM262 725h115v-116h-115v116z" glyph-name="dieresis" horiz-adv-x="399" unicode="¨"/>
<glyph d="M38 361c0 223 167 377 375 377c207 0 374 -154 374 -377c0 -222 -167 -374 -374 -374c-208 0 -375 152 -375 374zM121 361c0 -176 128 -299 292 -299c167 0 291 123 291 299c0 180 -124 301 -291 301c-164 0 -292 -121 -292 -301zM414 244c47 0 84 20 95 76l104 -23 c-23 -83 -98 -141 -202 -141c-126 0 -201 87 -201 206c0 123 81 204 204 204c99 0 179 -60 195 -145l-103 -25c-7 47 -41 84 -92 84c-52 0 -93 -39 -93 -118c0 -76 37 -118 93 -118z" glyph-name="copyright" horiz-adv-x="825" unicode="©"/>
<glyph d="M128 431c-57 0 -104 33 -104 89c0 73 83 100 202 108v12c0 35 -17 46 -50 46c-29 0 -49 -15 -53 -44h-89c3 57 60 109 151 109c89 0 138 -35 135 -126c0 3 -1 -70 -1 -64c0 -30 2 -93 7 -123h-95c0 16 0 17 -1 36c-23 -32 -59 -43 -102 -43zM228 565v7 c-63 -5 -105 -14 -105 -45c0 -19 18 -32 41 -32c35 0 64 13 64 70z" glyph-name="ordfeminine" horiz-adv-x="356" unicode="ª"/>
<glyph d="M170 43l-159 230l159 229h125l-125 -229l125 -230h-125zM389 43l-159 230l159 229h125l-125 -229l125 -230h-125z" glyph-name="guillemotleft" horiz-adv-x="535" unicode="«"/>
<glyph d="M472 308h-431v120h556v-335h-125v215z" glyph-name="logicalnot" horiz-adv-x="678" unicode="¬"/>
<glyph d="M374 207h-331v120h331v-120z" glyph-name="uni00AD" horiz-adv-x="418" unicode="­"/>
<glyph d="M38 361c0 223 167 377 375 377c207 0 374 -154 374 -377c0 -222 -167 -374 -374 -374c-208 0 -375 152 -375 374zM121 361c0 -176 128 -299 292 -299c167 0 291 123 291 299c0 180 -124 301 -291 301c-164 0 -292 -121 -292 -301zM401 318h-52v-143h-108v400h160 c107 0 186 -27 186 -131c0 -60 -30 -93 -73 -110l97 -159h-120l-84 143h-6zM479 444c0 23 -15 47 -51 47h-79v-90h79c36 0 51 19 51 43z" glyph-name="registered" horiz-adv-x="825" unicode="®"/>
<glyph d="M335 622h-313v95h313v-95z" glyph-name="macron" horiz-adv-x="357" unicode="¯"/>
<glyph d="M8 577c0 89 72 161 160 161c91 0 162 -72 162 -161c0 -88 -71 -161 -162 -161c-88 0 -160 73 -160 161zM95 577c0 -43 30 -79 73 -79c44 0 76 36 76 79c0 44 -32 79 -76 79c-43 0 -73 -35 -73 -79z" glyph-name="degree" horiz-adv-x="337" unicode="°"/>
<glyph d="M276 407v131h127v-131h214v-120h-214v-132h-127v132h-215v120h215zM617 0h-556v121h556v-121z" glyph-name="plusminus" horiz-adv-x="678" unicode="±"/>
<glyph d="M184 853c85 0 150 -44 150 -116c0 -88 -72 -153 -192 -221h192v-78h-316v79c105 75 220 147 220 214c0 35 -26 51 -57 51c-33 0 -67 -19 -64 -86h-95c-5 99 68 157 162 157z" glyph-name="twosuperior" horiz-adv-x="358" unicode="²"/>
<glyph d="M192 501c40 0 63 19 63 56c0 33 -33 49 -85 49h-29v80h27c51 0 83 17 83 52c0 29 -28 44 -59 44c-33 0 -63 -10 -70 -54h-95c8 92 89 125 169 125c73 0 152 -31 152 -106c0 -43 -29 -77 -58 -93c41 -16 64 -60 64 -97c0 -85 -79 -126 -163 -126c-79 0 -159 35 -170 135 h97c7 -51 42 -65 74 -65z" glyph-name="threesuperior" horiz-adv-x="381" unicode="³"/>
<glyph d="M274 725l-150 -116h-102l95 116h157z" glyph-name="acute" horiz-adv-x="296" unicode="´"/>
<glyph d="M0 554c0 108 92 171 228 171h213v-814h-82v738h-112v-738h-81v473c-73 8 -166 50 -166 170z" glyph-name="paragraph" horiz-adv-x="504" unicode="¶"/>
<glyph d="M199 194h-148v150h148v-150z" glyph-name="periodcentered" horiz-adv-x="250" unicode="·"/>
<glyph d="M22 -176l17 45c17 -9 39 -14 58 -14c29 0 56 6 56 29c0 19 -16 28 -40 28c-11 0 -27 -2 -38 -9l-30 17l51 83h53l-32 -51c12 3 21 3 40 3c43 -1 77 -28 77 -68c0 -52 -57 -82 -116 -82c-31 0 -63 3 -96 19z" glyph-name="cedilla" horiz-adv-x="256" unicode="¸"/>
<glyph d="M200 438h-96v268h-94v71c71 3 100 25 117 69h73v-408z" glyph-name="onesuperior" horiz-adv-x="247" unicode="¹"/>
<glyph d="M122 591c0 -64 29 -86 65 -86c35 0 66 22 66 86s-31 85 -66 85s-65 -21 -65 -85zM24 591c0 109 78 159 163 159s163 -50 163 -159c0 -111 -78 -160 -163 -160s-163 49 -163 160z" glyph-name="ordmasculine" horiz-adv-x="373" unicode="º"/>
<glyph d="M305 273l-159 -230h-124l124 230l-124 229h124zM524 273l-159 -230h-124l124 230l-124 229h124z" glyph-name="guillemotright" horiz-adv-x="535" unicode="»"/>
<glyph d="M200 317h-96v268h-94v71c71 3 100 25 117 69h73v-408zM189 0h-142l501 725h142zM705 283l-93 -114h93v114zM854 169v-85h-53v-84h-96v84h-198v75l206 249h88v-239h53z" glyph-name="onequarter" horiz-adv-x="870" unicode="¼"/>
<glyph d="M200 317h-96v268h-94v71c71 3 100 25 117 69h73v-408zM189 0h-142l501 725h142zM674 415c85 0 150 -44 150 -116c0 -88 -72 -153 -192 -221h192v-78h-316v79c105 75 220 147 220 214c0 35 -26 51 -57 51c-33 0 -67 -19 -64 -86h-95c-5 99 68 157 162 157z" glyph-name="onehalf" horiz-adv-x="849" unicode="½"/>
<glyph d="M192 380c40 0 63 19 63 56c0 33 -33 49 -85 49h-29v80h27c51 0 83 17 83 52c0 29 -28 44 -59 44c-33 0 -63 -10 -70 -54h-95c8 92 89 125 169 125c73 0 152 -31 152 -106c0 -43 -29 -77 -58 -93c41 -16 64 -60 64 -97c0 -85 -79 -126 -163 -126c-79 0 -159 35 -170 135 h97c7 -51 42 -65 74 -65zM323 0h-142l501 725h142zM839 283l-93 -114h93v114zM988 169v-85h-53v-84h-96v84h-198v75l206 249h88v-239h53z" glyph-name="threequarters" horiz-adv-x="1004" unicode="¾"/>
<glyph d="M253 -188c-121 0 -243 56 -243 180c0 94 62 143 119 176c65 35 98 60 98 132v31h135v-34c0 -98 -38 -144 -107 -184c-61 -37 -106 -61 -106 -113c0 -53 53 -83 106 -83c73 0 130 37 133 132h135c0 -147 -115 -237 -270 -237zM369 388h-148v150h148v-150z" glyph-name="questiondown" horiz-adv-x="524" unicode="¿"/>
<glyph d="M0 0l270 725h144l271 -725h-155l-51 147h-282l-51 -147h-146zM338 550l-100 -286h200zM286 773l-159 113h169l103 -113h-113z" glyph-name="Agrave" horiz-adv-x="685" unicode="À"/>
<glyph d="M0 0l270 725h144l271 -725h-155l-51 147h-282l-51 -147h-146zM338 550l-100 -286h200zM558 886l-159 -113h-113l103 113h169z" glyph-name="Aacute" horiz-adv-x="685" unicode="Á"/>
<glyph d="M0 0l270 725h144l271 -725h-155l-51 147h-282l-51 -147h-146zM338 550l-100 -286h200zM403 875l137 -113h-131l-66 49l-69 -49h-130l140 113h119z" glyph-name="Acircumflex" horiz-adv-x="685" unicode="Â"/>
<glyph d="M0 0l270 725h144l271 -725h-155l-51 147h-282l-51 -147h-146zM338 550l-100 -286h200zM400 853c29 0 43 15 50 40h93c-19 -109 -94 -127 -136 -127c-63 0 -85 41 -124 41c-29 0 -43 -14 -48 -41h-94c19 109 96 127 137 127c62 0 79 -40 122 -40z" glyph-name="Atilde" horiz-adv-x="685" unicode="Ã"/>
<glyph d="M0 0l270 725h144l271 -725h-155l-51 147h-282l-51 -147h-146zM338 550l-100 -286h200zM165 886h115v-113h-115v113zM405 886h115v-113h-115v113z" glyph-name="Adieresis" horiz-adv-x="685" unicode="Ä"/>
<glyph d="M0 0l270 725h144l271 -725h-155l-51 147h-282l-51 -147h-146zM338 550l-100 -286h200zM342 935c51 0 91 -34 91 -85c0 -49 -40 -85 -91 -85s-90 36 -90 85c0 51 41 85 90 85zM342 893c-23 0 -43 -18 -43 -43s20 -42 43 -42s43 17 43 42s-20 43 -43 43z" glyph-name="Aring" horiz-adv-x="685" unicode="Å"/>
<glyph d="M966 0h-528v147h-237l-93 -147h-151l481 725h528v-116h-385v-180h364v-116h-364v-197h385v-116zM438 520l-163 -256h163v256z" glyph-name="AE" horiz-adv-x="990" unicode="Æ"/>
<glyph d="M557 238h136c-19 -147 -141 -251 -314 -251c-216 0 -339 147 -339 379c0 229 132 372 343 372c170 0 286 -97 310 -248h-136c-27 101 -95 134 -175 134c-109 0 -194 -90 -194 -258c0 -173 85 -265 189 -265c86 0 156 38 180 137zM260 -175l17 45c17 -9 39 -14 58 -14 c29 0 56 6 56 29c0 19 -16 28 -40 28c-11 0 -27 -2 -38 -9l-30 17l51 83h53l-32 -51c12 3 21 3 40 3c43 -1 77 -28 77 -68c0 -52 -57 -82 -116 -82c-31 0 -63 3 -96 19z" glyph-name="Ccedilla" horiz-adv-x="719" unicode="Ç"/>
<glyph d="M65 0v725h528v-116h-385v-180h364v-116h-364v-197h385v-116h-528zM303 773l-159 113h169l103 -113h-113z" glyph-name="Egrave" horiz-adv-x="617" unicode="È"/>
<glyph d="M65 0v725h528v-116h-385v-180h364v-116h-364v-197h385v-116h-528zM545 886l-159 -113h-113l103 113h169z" glyph-name="Eacute" horiz-adv-x="617" unicode="É"/>
<glyph d="M65 0v725h528v-116h-385v-180h364v-116h-364v-197h385v-116h-528zM390 875l137 -113h-131l-66 49l-69 -49h-130l140 113h119z" glyph-name="Ecircumflex" horiz-adv-x="617" unicode="Ê"/>
<glyph d="M65 0v725h528v-116h-385v-180h364v-116h-364v-197h385v-116h-528zM152 886h115v-113h-115v113zM392 886h115v-113h-115v113z" glyph-name="Edieresis" horiz-adv-x="617" unicode="Ë"/>
<glyph d="M208 725v-725h-143v725h143zM81 773l-159 113h169l103 -113h-113z" glyph-name="Igrave" horiz-adv-x="273" unicode="Ì"/>
<glyph d="M208 725v-725h-143v725h143zM352 886l-159 -113h-113l103 113h169z" glyph-name="Iacute" horiz-adv-x="273" unicode="Í"/>
<glyph d="M208 725v-725h-143v725h143zM198 875l137 -113h-131l-66 49l-69 -49h-130l140 113h119z" glyph-name="Icircumflex" horiz-adv-x="273" unicode="Î"/>
<glyph d="M208 725v-725h-143v725h143zM-40 886h115v-113h-115v113zM200 886h115v-113h-115v113z" glyph-name="Idieresis" horiz-adv-x="273" unicode="Ï"/>
<glyph d="M86 725h215c230 0 403 -74 403 -362s-173 -363 -403 -363h-215v308h-86v116h86v301zM556 363c0 217 -129 250 -261 250h-66v-189h128v-116h-128v-196h66c132 0 261 32 261 251z" glyph-name="Eth" horiz-adv-x="740" unicode="Ð"/>
<glyph d="M676 0h-186l-290 553v-553h-135v725h186l290 -553v553h135v-725zM448 853c29 0 43 15 50 40h93c-19 -109 -94 -127 -136 -127c-63 0 -85 41 -124 41c-29 0 -43 -14 -48 -41h-94c19 109 96 127 137 127c62 0 79 -40 122 -40z" glyph-name="Ntilde" horiz-adv-x="741" unicode="Ñ"/>
<glyph d="M184 363c0 -171 94 -262 207 -262s207 91 207 262c0 170 -94 261 -207 261s-207 -91 -207 -261zM746 363c0 -225 -139 -376 -355 -376s-355 151 -355 376s139 375 355 375s355 -150 355 -375zM335 773l-159 113h169l103 -113h-113z" glyph-name="Ograve" horiz-adv-x="782" unicode="Ò"/>
<glyph d="M184 363c0 -171 94 -262 207 -262s207 91 207 262c0 170 -94 261 -207 261s-207 -91 -207 -261zM746 363c0 -225 -139 -376 -355 -376s-355 151 -355 376s139 375 355 375s355 -150 355 -375zM607 886l-159 -113h-113l103 113h169z" glyph-name="Oacute" horiz-adv-x="782" unicode="Ó"/>
<glyph d="M184 363c0 -171 94 -262 207 -262s207 91 207 262c0 170 -94 261 -207 261s-207 -91 -207 -261zM746 363c0 -225 -139 -376 -355 -376s-355 151 -355 376s139 375 355 375s355 -150 355 -375zM452 875l137 -113h-131l-66 49l-69 -49h-130l140 113h119z" glyph-name="Ocircumflex" horiz-adv-x="782" unicode="Ô"/>
<glyph d="M184 363c0 -171 94 -262 207 -262s207 91 207 262c0 170 -94 261 -207 261s-207 -91 -207 -261zM746 363c0 -225 -139 -376 -355 -376s-355 151 -355 376s139 375 355 375s355 -150 355 -375zM449 853c29 0 43 15 50 40h93c-19 -109 -94 -127 -136 -127 c-63 0 -85 41 -124 41c-29 0 -43 -14 -48 -41h-94c19 109 96 127 137 127c62 0 79 -40 122 -40z" glyph-name="Otilde" horiz-adv-x="782" unicode="Õ"/>
<glyph d="M184 363c0 -171 94 -262 207 -262s207 91 207 262c0 170 -94 261 -207 261s-207 -91 -207 -261zM746 363c0 -225 -139 -376 -355 -376s-355 151 -355 376s139 375 355 375s355 -150 355 -375zM214 886h115v-113h-115v113zM454 886h115v-113h-115v113z" glyph-name="Odieresis" horiz-adv-x="782" unicode="Ö"/>
<glyph d="M576 117l-80 -81l-161 160l-159 -159l-73 72l159 161l-157 157l81 80l157 -157l160 160l72 -74l-159 -159z" glyph-name="multiply" horiz-adv-x="678" unicode="×"/>
<glyph d="M746 363c0 -225 -139 -376 -355 -376c-85 0 -159 22 -216 65l-62 -72l-55 47l64 75c-56 65 -86 154 -86 261c0 225 139 375 355 375c85 0 158 -23 217 -66l54 63l56 -46l-57 -67c55 -65 85 -154 85 -259zM184 363c0 -60 11 -110 32 -151l307 360c-37 35 -81 52 -132 52 c-113 0 -207 -91 -207 -261zM598 363c0 58 -10 108 -31 149l-307 -360c36 -34 80 -51 131 -51c113 0 207 91 207 262z" glyph-name="Oslash" horiz-adv-x="781" unicode="Ø"/>
<glyph d="M54 725h143v-419c0 -128 26 -205 158 -205s156 77 156 205v419h143v-418c0 -239 -87 -320 -299 -320s-301 81 -301 320v418zM298 773l-159 113h169l103 -113h-113z" glyph-name="Ugrave" horiz-adv-x="708" unicode="Ù"/>
<glyph d="M54 725h143v-419c0 -128 26 -205 158 -205s156 77 156 205v419h143v-418c0 -239 -87 -320 -299 -320s-301 81 -301 320v418zM570 886l-159 -113h-113l103 113h169z" glyph-name="Uacute" horiz-adv-x="708" unicode="Ú"/>
<glyph d="M54 725h143v-419c0 -128 26 -205 158 -205s156 77 156 205v419h143v-418c0 -239 -87 -320 -299 -320s-301 81 -301 320v418zM415 875l137 -113h-131l-66 49l-69 -49h-130l140 113h119z" glyph-name="Ucircumflex" horiz-adv-x="708" unicode="Û"/>
<glyph d="M54 725h143v-419c0 -128 26 -205 158 -205s156 77 156 205v419h143v-418c0 -239 -87 -320 -299 -320s-301 81 -301 320v418zM177 886h115v-113h-115v113zM417 886h115v-113h-115v113z" glyph-name="Udieresis" horiz-adv-x="708" unicode="Ü"/>
<glyph d="M-11 725h167l169 -303l172 303h163l-267 -445v-280h-143v282zM540 886l-159 -113h-113l103 113h169z" glyph-name="Yacute" horiz-adv-x="650" unicode="Ý"/>
<glyph d="M211 609h93c148 0 312 -22 312 -240c0 -185 -140 -230 -308 -230h-97v-139h-146v725h146v-116zM300 493h-89v-239h99c88 0 159 18 159 114c0 117 -92 125 -169 125z" glyph-name="Thorn" horiz-adv-x="619" unicode="Þ"/>
<glyph d="M200 0h-138v470c0 108 23 163 60 200c51 51 124 68 209 68c136 0 244 -56 244 -186c0 -79 -43 -126 -78 -142c64 -24 122 -87 122 -194c0 -148 -107 -229 -263 -229c-44 0 -76 2 -119 13l21 111c27 -9 62 -15 93 -15c76 0 128 44 128 119c0 97 -74 127 -175 127h-19v111 h14c92 0 140 23 140 91c0 56 -39 90 -111 90c-41 0 -77 -10 -100 -41c-19 -23 -28 -55 -28 -122v-471z" glyph-name="germandbls" horiz-adv-x="652" unicode="ß"/>
<glyph d="M398 206v40c-155 -16 -216 -34 -216 -94c0 -39 30 -71 93 -71c87 0 123 46 123 125zM410 67c-39 -56 -95 -80 -176 -80c-103 0 -194 60 -194 158c0 127 142 165 354 189v9c0 83 -45 112 -101 112c-53 0 -97 -27 -100 -87h-129c11 106 97 184 236 184 c127 0 232 -56 232 -237c0 -16 -2 -89 -2 -137c0 -85 5 -133 16 -178h-127c-4 17 -6 40 -9 67zM239 609l-150 116h157l95 -116h-102z" glyph-name="agrave" horiz-adv-x="585" unicode="à"/>
<glyph d="M398 206v40c-155 -16 -216 -34 -216 -94c0 -39 30 -71 93 -71c87 0 123 46 123 125zM410 67c-39 -56 -95 -80 -176 -80c-103 0 -194 60 -194 158c0 127 142 165 354 189v9c0 83 -45 112 -101 112c-53 0 -97 -27 -100 -87h-129c11 106 97 184 236 184 c127 0 232 -56 232 -237c0 -16 -2 -89 -2 -137c0 -85 5 -133 16 -178h-127c-4 17 -6 40 -9 67zM491 725l-150 -116h-102l95 116h157z" glyph-name="aacute" horiz-adv-x="585" unicode="á"/>
<glyph d="M398 206v40c-155 -16 -216 -34 -216 -94c0 -39 30 -71 93 -71c87 0 123 46 123 125zM410 67c-39 -56 -95 -80 -176 -80c-103 0 -194 60 -194 158c0 127 142 165 354 189v9c0 83 -45 112 -101 112c-53 0 -97 -27 -100 -87h-129c11 106 97 184 236 184 c127 0 232 -56 232 -237c0 -16 -2 -89 -2 -137c0 -85 5 -133 16 -178h-127c-4 17 -6 40 -9 67zM339 725l148 -116h-121l-76 44l-76 -44h-121l147 116h99z" glyph-name="acircumflex" horiz-adv-x="585" unicode="â"/>
<glyph d="M398 206v40c-155 -16 -216 -34 -216 -94c0 -39 30 -71 93 -71c87 0 123 46 123 125zM410 67c-39 -56 -95 -80 -176 -80c-103 0 -194 60 -194 158c0 127 142 165 354 189v9c0 83 -45 112 -101 112c-53 0 -97 -27 -100 -87h-129c11 106 97 184 236 184 c127 0 232 -56 232 -237c0 -16 -2 -89 -2 -137c0 -85 5 -133 16 -178h-127c-4 17 -6 40 -9 67zM349 692c28 0 45 15 50 44h95c-19 -118 -90 -127 -133 -127c-63 0 -91 44 -131 44c-27 0 -44 -15 -49 -44h-95c19 117 90 127 133 127c64 0 84 -44 130 -44z" glyph-name="atilde" horiz-adv-x="585" unicode="ã"/>
<glyph d="M398 206v40c-155 -16 -216 -34 -216 -94c0 -39 30 -71 93 -71c87 0 123 46 123 125zM410 67c-39 -56 -95 -80 -176 -80c-103 0 -194 60 -194 158c0 127 142 165 354 189v9c0 83 -45 112 -101 112c-53 0 -97 -27 -100 -87h-129c11 106 97 184 236 184 c127 0 232 -56 232 -237c0 -16 -2 -89 -2 -137c0 -85 5 -133 16 -178h-127c-4 17 -6 40 -9 67zM113 609v116h115v-116h-115zM353 725h115v-116h-115v116z" glyph-name="adieresis" horiz-adv-x="585" unicode="ä"/>
<glyph d="M398 206v40c-155 -16 -216 -34 -216 -94c0 -39 30 -71 93 -71c87 0 123 46 123 125zM410 67c-39 -56 -95 -80 -176 -80c-103 0 -194 60 -194 158c0 127 142 165 354 189v9c0 83 -45 112 -101 112c-53 0 -97 -27 -100 -87h-129c11 106 97 184 236 184 c127 0 232 -56 232 -237c0 -16 -2 -89 -2 -137c0 -85 5 -133 16 -178h-127c-4 17 -6 40 -9 67zM291 785c51 0 94 -37 94 -89c0 -51 -42 -89 -94 -89c-53 0 -95 37 -95 89s43 89 95 89zM291 737c-23 0 -41 -17 -41 -41c0 -23 18 -40 41 -40s41 17 41 40c0 24 -18 41 -41 41z " glyph-name="aring" horiz-adv-x="585" unicode="å"/>
<glyph d="M915 231h-397c8 -92 70 -137 136 -137c43 0 85 15 113 62h142c-29 -80 -107 -169 -254 -169c-97 0 -165 39 -208 103c-48 -81 -134 -103 -213 -103c-103 0 -194 60 -194 158c0 127 142 165 354 189v9c0 83 -44 112 -100 112c-53 0 -97 -27 -100 -87h-129 c11 106 97 184 236 184c76 0 136 -19 173 -71c43 43 102 69 177 69c166 0 269 -129 264 -319zM398 206v40c-155 -16 -216 -34 -216 -94c0 -39 30 -71 93 -71c87 0 123 46 123 125zM650 449c-52 0 -119 -32 -130 -123h255c-3 91 -67 123 -125 123z" glyph-name="ae" horiz-adv-x="942" unicode="æ"/>
<glyph d="M297 550c113 0 225 -63 244 -196h-132c-11 52 -59 89 -112 89c-72 0 -129 -61 -129 -173c0 -113 54 -176 130 -176c48 0 97 25 116 89h132c-32 -147 -143 -196 -255 -196c-161 0 -264 118 -264 281c0 164 109 282 270 282zM177 -176l17 45c17 -9 39 -14 58 -14 c29 0 56 6 56 29c0 19 -16 28 -40 28c-11 0 -27 -2 -38 -9l-30 17l51 83h53l-32 -51c12 3 21 3 40 3c43 -1 77 -28 77 -68c0 -52 -57 -82 -116 -82c-31 0 -63 3 -96 19z" glyph-name="ccedilla" horiz-adv-x="566" unicode="ç"/>
<glyph d="M561 231h-397c8 -92 70 -137 136 -137c43 0 85 15 113 62h142c-29 -80 -107 -169 -254 -169c-173 0 -274 129 -274 284c0 160 111 279 270 279c166 0 269 -129 264 -319zM296 449c-52 0 -119 -32 -130 -123h255c-3 91 -67 123 -125 123zM240 609l-150 116h157l95 -116 h-102z" glyph-name="egrave" horiz-adv-x="588" unicode="è"/>
<glyph d="M561 231h-397c8 -92 70 -137 136 -137c43 0 85 15 113 62h142c-29 -80 -107 -169 -254 -169c-173 0 -274 129 -274 284c0 160 111 279 270 279c166 0 269 -129 264 -319zM296 449c-52 0 -119 -32 -130 -123h255c-3 91 -67 123 -125 123zM492 725l-150 -116h-102l95 116 h157z" glyph-name="eacute" horiz-adv-x="588" unicode="é"/>
<glyph d="M561 231h-397c8 -92 70 -137 136 -137c43 0 85 15 113 62h142c-29 -80 -107 -169 -254 -169c-173 0 -274 129 -274 284c0 160 111 279 270 279c166 0 269 -129 264 -319zM296 449c-52 0 -119 -32 -130 -123h255c-3 91 -67 123 -125 123zM345 725l148 -116h-121l-76 44 l-76 -44h-121l147 116h99z" glyph-name="ecircumflex" horiz-adv-x="588" unicode="ê"/>
<glyph d="M561 231h-397c8 -92 70 -137 136 -137c43 0 85 15 113 62h142c-29 -80 -107 -169 -254 -169c-173 0 -274 129 -274 284c0 160 111 279 270 279c166 0 269 -129 264 -319zM296 449c-52 0 -119 -32 -130 -123h255c-3 91 -67 123 -125 123zM114 609v116h115v-116h-115z M354 725h115v-116h-115v116z" glyph-name="edieresis" horiz-adv-x="588" unicode="ë"/>
<glyph d="M62 538h138v-538h-138v538zM81 609l-150 116h157l95 -116h-102z" glyph-name="igrave" horiz-adv-x="262" unicode="ì"/>
<glyph d="M62 538h138v-538h-138v538zM332 725l-150 -116h-102l95 116h157z" glyph-name="iacute" horiz-adv-x="262" unicode="í"/>
<glyph d="M62 538h138v-538h-138v538zM181 725l148 -116h-121l-76 44l-76 -44h-121l147 116h99z" glyph-name="icircumflex" horiz-adv-x="262" unicode="î"/>
<glyph d="M62 538h138v-538h-138v538zM-45 609v116h115v-116h-115zM195 725h115v-116h-115v116z" glyph-name="idieresis" horiz-adv-x="262" unicode="ï"/>
<glyph d="M325 705l59 37l58 -28l-68 -42c103 -77 176 -193 176 -361c0 -220 -116 -324 -265 -324c-148 0 -258 104 -258 277c0 180 104 286 234 286c69 0 127 -39 151 -82l1 1c-25 60 -75 108 -131 147l-66 -40l-57 27l73 45c-27 15 -54 28 -79 38l97 60c27 -12 51 -26 75 -41z M290 93c76 0 124 65 124 176c0 108 -48 175 -124 175s-118 -71 -118 -176s42 -175 118 -175z" glyph-name="eth" horiz-adv-x="582" unicode="ð"/>
<glyph d="M200 538v-71c31 55 89 83 156 83c129 0 186 -78 186 -211v-339h-138v309c0 69 -15 130 -93 130c-91 0 -111 -74 -111 -159v-280h-138v538h138zM371 692c28 0 45 15 50 44h95c-19 -118 -90 -127 -133 -127c-63 0 -91 44 -131 44c-27 0 -44 -15 -49 -44h-95 c19 117 90 127 133 127c64 0 84 -44 130 -44z" glyph-name="ntilde" horiz-adv-x="596" unicode="ñ"/>
<glyph d="M296 442c-76 0 -130 -61 -130 -174s54 -173 130 -173s130 60 130 173s-54 174 -130 174zM296 -13c-136 0 -270 93 -270 281c0 189 134 282 270 282s270 -93 270 -282c0 -188 -134 -281 -270 -281zM241 609l-150 116h157l95 -116h-102z" glyph-name="ograve" horiz-adv-x="592" unicode="ò"/>
<glyph d="M296 442c-76 0 -130 -61 -130 -174s54 -173 130 -173s130 60 130 173s-54 174 -130 174zM296 -13c-136 0 -270 93 -270 281c0 189 134 282 270 282s270 -93 270 -282c0 -188 -134 -281 -270 -281zM493 725l-150 -116h-102l95 116h157z" glyph-name="oacute" horiz-adv-x="592" unicode="ó"/>
<glyph d="M296 442c-76 0 -130 -61 -130 -174s54 -173 130 -173s130 60 130 173s-54 174 -130 174zM296 -13c-136 0 -270 93 -270 281c0 189 134 282 270 282s270 -93 270 -282c0 -188 -134 -281 -270 -281zM341 725l148 -116h-121l-76 44l-76 -44h-121l147 116h99z" glyph-name="ocircumflex" horiz-adv-x="592" unicode="ô"/>
<glyph d="M296 442c-76 0 -130 -61 -130 -174s54 -173 130 -173s130 60 130 173s-54 174 -130 174zM296 -13c-136 0 -270 93 -270 281c0 189 134 282 270 282s270 -93 270 -282c0 -188 -134 -281 -270 -281zM351 692c28 0 45 15 50 44h95c-19 -118 -90 -127 -133 -127 c-63 0 -91 44 -131 44c-27 0 -44 -15 -49 -44h-95c19 117 90 127 133 127c64 0 84 -44 130 -44z" glyph-name="otilde" horiz-adv-x="592" unicode="õ"/>
<glyph d="M296 442c-76 0 -130 -61 -130 -174s54 -173 130 -173s130 60 130 173s-54 174 -130 174zM296 -13c-136 0 -270 93 -270 281c0 189 134 282 270 282s270 -93 270 -282c0 -188 -134 -281 -270 -281zM115 609v116h115v-116h-115zM355 725h115v-116h-115v116z" glyph-name="odieresis" horiz-adv-x="592" unicode="ö"/>
<glyph d="M264 23v139h148v-139h-148zM264 374v140h148v-140h-148zM607 208h-535v120h535v-120z" glyph-name="divide" horiz-adv-x="678" unicode="÷"/>
<glyph d="M296 -13c-57 0 -113 16 -160 48l-62 -71l-48 45l61 71c-39 45 -61 108 -61 188c0 189 134 282 270 282c56 0 111 -16 158 -48l50 58l49 -44l-51 -58c39 -47 64 -109 64 -190c0 -188 -134 -281 -270 -281zM426 268c0 33 -5 62 -13 86l-199 -228c21 -21 49 -31 82 -31 c76 0 130 60 130 173zM296 442c-76 0 -130 -61 -130 -174c0 -32 4 -60 12 -84l198 228c-22 20 -49 30 -80 30z" glyph-name="oslash" horiz-adv-x="592" unicode="ø"/>
<glyph d="M393 0v71c-31 -55 -90 -84 -157 -84c-129 0 -181 79 -181 211v340h138v-310c0 -72 11 -130 88 -130c92 0 112 75 112 160v280h138v-538h-138zM262 609l-150 116h157l95 -116h-102z" glyph-name="ugrave" horiz-adv-x="593" unicode="ù"/>
<glyph d="M393 0v71c-31 -55 -90 -84 -157 -84c-129 0 -181 79 -181 211v340h138v-310c0 -72 11 -130 88 -130c92 0 112 75 112 160v280h138v-538h-138zM494 725l-150 -116h-102l95 116h157z" glyph-name="uacute" horiz-adv-x="593" unicode="ú"/>
<glyph d="M393 0v71c-31 -55 -90 -84 -157 -84c-129 0 -181 79 -181 211v340h138v-310c0 -72 11 -130 88 -130c92 0 112 75 112 160v280h138v-538h-138zM342 725l148 -116h-121l-76 44l-76 -44h-121l147 116h99z" glyph-name="ucircumflex" horiz-adv-x="593" unicode="û"/>
<glyph d="M393 0v71c-31 -55 -90 -84 -157 -84c-129 0 -181 79 -181 211v340h138v-310c0 -72 11 -130 88 -130c92 0 112 75 112 160v280h138v-538h-138zM116 609v116h115v-116h-115zM356 725h115v-116h-115v116z" glyph-name="udieresis" horiz-adv-x="593" unicode="ü"/>
<glyph d="M116 -175h-58v106h52c46 0 66 -1 90 56l6 15l-206 536h151l122 -388l125 388h140l-197 -522c-64 -167 -91 -191 -225 -191zM470 725l-150 -116h-102l95 116h157z" glyph-name="yacute" horiz-adv-x="538" unicode="ý"/>
<glyph d="M321 93c72 0 123 70 123 175s-51 176 -123 176c-76 0 -126 -67 -126 -175c0 -111 50 -176 126 -176zM200 -175h-138v900h138v-256c29 51 84 81 152 81c130 0 237 -112 237 -281c0 -172 -109 -282 -237 -282c-56 0 -117 21 -152 81v-243z" glyph-name="thorn" horiz-adv-x="616" unicode="þ"/>
<glyph d="M116 -175h-58v106h52c46 0 66 -1 90 56l6 15l-206 536h151l122 -388l125 388h140l-197 -522c-64 -167 -91 -191 -225 -191zM102 609v116h115v-116h-115zM342 725h115v-116h-115v116z" glyph-name="ydieresis" horiz-adv-x="538" unicode="ÿ"/>
<glyph d="M0 0l270 725h144l271 -725h-155l-51 147h-282l-51 -147h-146zM338 550l-100 -286h200zM415 886h97c-8 -83 -67 -117 -171 -117c-100 0 -161 34 -168 117h97c4 -32 25 -46 72 -46s69 14 73 46z" glyph-name="Abreve" horiz-adv-x="685" unicode="Ă"/>
<glyph d="M0 0l270 725h144l271 -725h-155l-51 147h-282l-51 -147h-146zM338 550l-100 -286h200zM499 782h-313v95h313v-95z" glyph-name="Amacron" horiz-adv-x="685" unicode="Ā"/>
<glyph d="M0 0l270 725h144l271 -725c-51 -25 -93 -45 -93 -72s21 -34 45 -34c20 0 33 4 48 8v-82c-27 -7 -47 -8 -74 -8c-72 0 -138 25 -138 92c0 40 21 72 57 96l-51 147h-282l-51 -147h-146zM338 550l-100 -286h200z" glyph-name="Aogonek" horiz-adv-x="685" unicode="Ą"/>
<glyph d="M557 238h136c-19 -147 -141 -251 -314 -251c-216 0 -339 147 -339 379c0 229 132 372 343 372c170 0 286 -97 310 -248h-136c-27 101 -95 134 -175 134c-109 0 -194 -90 -194 -258c0 -173 85 -265 189 -265c86 0 156 38 180 137zM582 886l-159 -113h-113l103 113h169z " glyph-name="Cacute" horiz-adv-x="719" unicode="Ć"/>
<glyph d="M557 238h136c-19 -147 -141 -251 -314 -251c-216 0 -339 147 -339 379c0 229 132 372 343 372c170 0 286 -97 310 -248h-136c-27 101 -95 134 -175 134c-109 0 -194 -90 -194 -258c0 -173 85 -265 189 -265c86 0 156 38 180 137zM318 773l-137 113h131l66 -50l69 50h130 l-140 -113h-119z" glyph-name="Ccaron" horiz-adv-x="719" unicode="Č"/>
<glyph d="M557 238h136c-19 -147 -141 -251 -314 -251c-216 0 -339 147 -339 379c0 229 132 372 343 372c170 0 286 -97 310 -248h-136c-27 101 -95 134 -175 134c-109 0 -194 -90 -194 -258c0 -173 85 -265 189 -265c86 0 156 38 180 137zM443 875l137 -113h-131l-66 49l-69 -49 h-130l140 113h119z" glyph-name="Ccircumflex" horiz-adv-x="719" unicode="Ĉ"/>
<glyph d="M557 238h136c-19 -147 -141 -251 -314 -251c-216 0 -339 147 -339 379c0 229 132 372 343 372c170 0 286 -97 310 -248h-136c-27 101 -95 134 -175 134c-109 0 -194 -90 -194 -258c0 -173 85 -265 189 -265c86 0 156 38 180 137zM311 886h143v-113h-143v113z" glyph-name="Cdotaccent" horiz-adv-x="719" unicode="Ċ"/>
<glyph d="M535 363c0 217 -129 250 -261 250h-66v-501h66c132 0 261 32 261 251zM65 725h215c230 0 403 -74 403 -362s-173 -363 -403 -363h-215v725zM281 773l-137 113h131l66 -50l69 50h130l-140 -113h-119z" glyph-name="Dcaron" horiz-adv-x="719" unicode="Ď"/>
<glyph d="M86 725h215c230 0 403 -74 403 -362s-173 -363 -403 -363h-215v308h-86v116h86v301zM556 363c0 217 -129 250 -261 250h-66v-189h128v-116h-128v-196h66c132 0 261 32 261 251z" glyph-name="Dcroat" horiz-adv-x="740" unicode="Đ"/>
<glyph d="M65 0v725h528v-116h-385v-180h364v-116h-364v-197h385v-116h-528zM410 886h97c-8 -83 -67 -117 -171 -117c-100 0 -161 34 -168 117h97c4 -32 25 -46 72 -46s69 14 73 46z" glyph-name="Ebreve" horiz-adv-x="617" unicode="Ĕ"/>
<glyph d="M65 0v725h528v-116h-385v-180h364v-116h-364v-197h385v-116h-528zM273 773l-137 113h131l66 -50l69 50h130l-140 -113h-119z" glyph-name="Ecaron" horiz-adv-x="617" unicode="Ě"/>
<glyph d="M65 0v725h528v-116h-385v-180h364v-116h-364v-197h385v-116h-528zM486 782h-313v95h313v-95z" glyph-name="Emacron" horiz-adv-x="617" unicode="Ē"/>
<glyph d="M450 0h143c-51 -25 -93 -45 -93 -72s21 -34 45 -34c20 0 33 4 48 8v-82c-27 -7 -47 -8 -74 -8c-72 0 -138 25 -138 92c0 40 28 73 69 96zM65 0v725h528v-116h-385v-180h364v-116h-364v-197h385v-116h-528z" glyph-name="Eogonek" horiz-adv-x="617" unicode="Ę"/>
<glyph d="M65 0v725h528v-116h-385v-180h364v-116h-364v-197h385v-116h-528zM258 886h143v-113h-143v113z" glyph-name="Edotaccent" horiz-adv-x="617" unicode="Ė"/>
<glyph d="M395 738c171 0 285 -99 309 -233h-136c-23 80 -93 119 -174 119c-121 0 -206 -85 -206 -258s81 -265 205 -265c77 0 181 39 181 155v12h-181v117h313v-385h-113l-4 85c-41 -60 -115 -98 -218 -98c-204 0 -331 147 -331 379c0 225 133 372 355 372zM469 886h97 c-8 -83 -67 -117 -171 -117c-100 0 -161 34 -168 117h97c4 -32 25 -46 72 -46s69 14 73 46z" glyph-name="Gbreve" horiz-adv-x="766" unicode="Ğ"/>
<glyph d="M395 738c171 0 285 -99 309 -233h-136c-23 80 -93 119 -174 119c-121 0 -206 -85 -206 -258s81 -265 205 -265c77 0 181 39 181 155v12h-181v117h313v-385h-113l-4 85c-41 -60 -115 -98 -218 -98c-204 0 -331 147 -331 379c0 225 133 372 355 372zM454 875l137 -113h-131 l-66 49l-69 -49h-130l140 113h119z" glyph-name="Gcircumflex" horiz-adv-x="766" unicode="Ĝ"/>
<glyph d="M395 738c171 0 285 -99 309 -233h-136c-23 80 -93 119 -174 119c-121 0 -206 -85 -206 -258s81 -265 205 -265c77 0 181 39 181 155v12h-181v117h313v-385h-113l-4 85c-41 -60 -115 -98 -218 -98c-204 0 -331 147 -331 379c0 225 133 372 355 372zM322 -136v100h106v-106 l-44 -89h-65l39 95h-36z" glyph-name="uni0122" horiz-adv-x="766" unicode="Ģ"/>
<glyph d="M395 738c171 0 285 -99 309 -233h-136c-23 80 -93 119 -174 119c-121 0 -206 -85 -206 -258s81 -265 205 -265c77 0 181 39 181 155v12h-181v117h313v-385h-113l-4 85c-41 -60 -115 -98 -218 -98c-204 0 -331 147 -331 379c0 225 133 372 355 372zM323 886h143v-113h-143 v113z" glyph-name="Gdotaccent" horiz-adv-x="766" unicode="Ġ"/>
<glyph d="M533 725h143v-100h54v-116h-54v-509h-143v313h-325v-313h-143v509h-55v116h55v100h143v-100h325v100zM208 429h325v80h-325v-80z" glyph-name="Hbar" horiz-adv-x="740" unicode="Ħ"/>
<glyph d="M533 725h143v-725h-143v313h-325v-313h-143v725h143v-296h325v296zM431 875l137 -113h-131l-66 49l-69 -49h-130l140 113h119z" glyph-name="Hcircumflex" horiz-adv-x="740" unicode="Ĥ"/>
<glyph d="M208 725v-725h-143v725h143zM210 886h97c-8 -83 -67 -117 -171 -117c-100 0 -161 34 -168 117h97c4 -32 25 -46 72 -46s69 14 73 46z" glyph-name="Ibreve" horiz-adv-x="273" unicode="Ĭ"/>
<glyph d="M208 725v-725h-143v725h143zM65 886h143v-113h-143v113z" glyph-name="Idotaccent" horiz-adv-x="273" unicode="İ"/>
<glyph d="M208 725v-725h-143v725h143zM294 782h-313v95h313v-95z" glyph-name="Imacron" horiz-adv-x="273" unicode="Ī"/>
<glyph d="M208 725v-725h-143v725h143zM66 0h143c-51 -25 -93 -45 -93 -72s21 -34 45 -34c20 0 33 4 48 8v-82c-27 -7 -47 -8 -74 -8c-72 0 -138 25 -138 92c0 40 28 73 69 96z" glyph-name="Iogonek" horiz-adv-x="273" unicode="Į"/>
<glyph d="M208 725v-725h-143v725h143zM195 853c29 0 43 15 50 40h93c-19 -109 -94 -127 -136 -127c-63 0 -85 41 -124 41c-29 0 -43 -14 -48 -41h-94c19 109 96 127 137 127c62 0 79 -40 122 -40z" glyph-name="Itilde" horiz-adv-x="273" unicode="Ĩ"/>
<glyph d="M208 725v-725h-143v725h143zM79 -56h115v-119h-115v119z" glyph-name="uni1ECA" horiz-adv-x="273" unicode="Ị"/>
<glyph d="M261 -13c-159 0 -247 103 -250 250h143c3 -99 43 -133 107 -133c63 0 106 34 106 133v488h143v-488c0 -153 -90 -250 -249 -250zM499 875l137 -113h-131l-66 49l-69 -49h-130l140 113h119z" glyph-name="Jcircumflex" horiz-adv-x="575" unicode="Ĵ"/>
<glyph d="M208 725v-332l296 332h167l-267 -292l287 -433h-169l-214 327l-100 -109v-218h-143v725h143zM300 -136v100h106v-106l-44 -89h-65l39 95h-36z" glyph-name="uni0136" horiz-adv-x="681" unicode="Ķ"/>
<glyph d="M208 725v-609h353v-116h-496v725h143zM342 886l-159 -113h-113l103 113h169z" glyph-name="Lacute" horiz-adv-x="561" unicode="Ĺ"/>
<glyph d="M208 725v-609h353v-116h-496v725h143zM451 725l-70 -170h-90l30 170h130z" glyph-name="Lcaron" horiz-adv-x="561" unicode="Ľ"/>
<glyph d="M208 725v-609h353v-116h-496v725h143zM262 -136v100h106v-106l-44 -89h-65l39 95h-36z" glyph-name="uni013B" horiz-adv-x="561" unicode="Ļ"/>
<glyph d="M208 725v-609h353v-116h-496v725h143zM361 489h143v-113h-143v113z" glyph-name="Ldot" horiz-adv-x="593" unicode="Ŀ"/>
<glyph d="M240 725v-255l169 107v-126l-169 -107v-228h353v-116h-496v254l-97 -61v125l97 61v346h143z" glyph-name="Lslash" horiz-adv-x="593" unicode="Ł"/>
<glyph d="M533 0l-333 568v-568h-135v725h190l286 -478v478h135v-729c0 -143 -41 -172 -182 -172h-61v109h28c55 0 72 8 72 53v14z" glyph-name="Eng" horiz-adv-x="741" unicode="Ŋ"/>
<glyph d="M676 0h-186l-290 553v-553h-135v725h186l290 -553v553h135v-725zM586 886l-159 -113h-113l103 113h169z" glyph-name="Nacute" horiz-adv-x="741" unicode="Ń"/>
<glyph d="M676 0h-186l-290 553v-553h-135v725h186l290 -553v553h135v-725zM329 773l-137 113h131l66 -50l69 50h130l-140 -113h-119z" glyph-name="Ncaron" horiz-adv-x="741" unicode="Ň"/>
<glyph d="M676 0h-186l-290 553v-553h-135v725h186l290 -553v553h135v-725zM319 -136v100h106v-106l-44 -89h-65l39 95h-36z" glyph-name="uni0145" horiz-adv-x="741" unicode="Ņ"/>
<glyph d="M589 366c0 173 -87 258 -202 258c-112 0 -203 -85 -203 -258s91 -265 203 -265c115 0 202 92 202 265zM591 0v60c-51 -47 -117 -73 -204 -73c-216 0 -351 151 -351 379s135 372 351 372c87 0 153 -26 204 -71v58h515v-116h-386v-180h364v-116h-364v-197h386v-116h-515z " glyph-name="OE" horiz-adv-x="1130" unicode="Œ"/>
<glyph d="M184 363c0 -171 94 -262 207 -262s207 91 207 262c0 170 -94 261 -207 261s-207 -91 -207 -261zM746 363c0 -225 -139 -376 -355 -376s-355 151 -355 376s139 375 355 375s355 -150 355 -375zM464 886h97c-8 -83 -67 -117 -171 -117c-100 0 -161 34 -168 117h97 c4 -32 25 -46 72 -46s69 14 73 46z" glyph-name="Obreve" horiz-adv-x="782" unicode="Ŏ"/>
<glyph d="M184 363c0 -171 94 -262 207 -262s207 91 207 262c0 170 -94 261 -207 261s-207 -91 -207 -261zM746 363c0 -225 -139 -376 -355 -376s-355 151 -355 376s139 375 355 375s355 -150 355 -375zM512 886l-159 -113h-113l103 113h169zM702 886l-160 -113h-113l104 113h169z " glyph-name="Ohungarumlaut" horiz-adv-x="782" unicode="Ő"/>
<glyph d="M184 363c0 -171 94 -262 207 -262s207 91 207 262c0 170 -94 261 -207 261s-207 -91 -207 -261zM746 363c0 -225 -139 -376 -355 -376s-355 151 -355 376s139 375 355 375s355 -150 355 -375zM548 782h-313v95h313v-95z" glyph-name="Omacron" horiz-adv-x="782" unicode="Ō"/>
<glyph d="M184 363c0 -171 94 -262 207 -262s207 91 207 262c0 170 -94 261 -207 261s-207 -91 -207 -261zM746 363c0 -225 -139 -376 -355 -376s-355 151 -355 376s139 375 355 375s355 -150 355 -375zM334 -56h115v-119h-115v119z" glyph-name="uni1ECC" horiz-adv-x="782" unicode="Ọ"/>
<glyph d="M504 0l-144 284h-34h-118v-284h-143v725h238c239 0 330 -68 330 -220c0 -84 -40 -152 -131 -191l161 -314h-159zM319 613h-111v-218h118c112 0 160 37 160 109c0 84 -70 109 -167 109zM551 886l-159 -113h-113l103 113h169z" glyph-name="Racute" horiz-adv-x="677" unicode="Ŕ"/>
<glyph d="M504 0l-144 284h-34h-118v-284h-143v725h238c239 0 330 -68 330 -220c0 -84 -40 -152 -131 -191l161 -314h-159zM319 613h-111v-218h118c112 0 160 37 160 109c0 84 -70 109 -167 109zM274 773l-137 113h131l66 -50l69 50h130l-140 -113h-119z" glyph-name="Rcaron" horiz-adv-x="677" unicode="Ř"/>
<glyph d="M504 0l-144 284h-34h-118v-284h-143v725h238c239 0 330 -68 330 -220c0 -84 -40 -152 -131 -191l161 -314h-159zM319 613h-111v-218h118c112 0 160 37 160 109c0 84 -70 109 -167 109zM284 -136v100h106v-106l-44 -89h-65l39 95h-36z" glyph-name="uni0156" horiz-adv-x="677" unicode="Ŗ"/>
<glyph d="M350 301l-92 17c-117 24 -217 84 -217 210c0 146 156 210 289 210c150 0 277 -88 285 -227h-138c-11 85 -85 113 -153 113c-67 0 -140 -25 -140 -90c0 -51 42 -79 101 -90l95 -17c118 -22 248 -67 248 -218c0 -149 -148 -222 -294 -222c-178 0 -296 96 -309 252h138 c16 -107 90 -138 176 -138c64 0 145 24 145 101c0 61 -57 86 -134 99zM542 886l-159 -113h-113l103 113h169z" glyph-name="Sacute" horiz-adv-x="651" unicode="Ś"/>
<glyph d="M350 301l-92 17c-117 24 -217 84 -217 210c0 146 156 210 289 210c150 0 277 -88 285 -227h-138c-11 85 -85 113 -153 113c-67 0 -140 -25 -140 -90c0 -51 42 -79 101 -90l95 -17c118 -22 248 -67 248 -218c0 -149 -148 -222 -294 -222c-178 0 -296 96 -309 252h138 c16 -107 90 -138 176 -138c64 0 145 24 145 101c0 61 -57 86 -134 99zM265 773l-137 113h131l66 -50l69 50h130l-140 -113h-119z" glyph-name="Scaron" horiz-adv-x="651" unicode="Š"/>
<glyph d="M350 301l-92 17c-117 24 -217 84 -217 210c0 146 156 210 289 210c150 0 277 -88 285 -227h-138c-11 85 -85 113 -153 113c-67 0 -140 -25 -140 -90c0 -51 42 -79 101 -90l95 -17c118 -22 248 -67 248 -218c0 -149 -148 -222 -294 -222c-178 0 -296 96 -309 252h138 c16 -107 90 -138 176 -138c64 0 145 24 145 101c0 61 -57 86 -134 99zM220 -175l17 45c17 -9 39 -14 58 -14c29 0 56 6 56 29c0 19 -16 28 -40 28c-11 0 -27 -2 -38 -9l-30 17l51 83h53l-32 -51c12 3 21 3 40 3c43 -1 77 -28 77 -68c0 -52 -57 -82 -116 -82 c-31 0 -63 3 -96 19z" glyph-name="Scedilla" horiz-adv-x="651" unicode="Ş"/>
<glyph d="M350 301l-92 17c-117 24 -217 84 -217 210c0 146 156 210 289 210c150 0 277 -88 285 -227h-138c-11 85 -85 113 -153 113c-67 0 -140 -25 -140 -90c0 -51 42 -79 101 -90l95 -17c118 -22 248 -67 248 -218c0 -149 -148 -222 -294 -222c-178 0 -296 96 -309 252h138 c16 -107 90 -138 176 -138c64 0 145 24 145 101c0 61 -57 86 -134 99zM397 875l137 -113h-131l-66 49l-69 -49h-130l140 113h119z" glyph-name="Scircumflex" horiz-adv-x="651" unicode="Ŝ"/>
<glyph d="M350 301l-92 17c-117 24 -217 84 -217 210c0 146 156 210 289 210c150 0 277 -88 285 -227h-138c-11 85 -85 113 -153 113c-67 0 -140 -25 -140 -90c0 -51 42 -79 101 -90l95 -17c118 -22 248 -67 248 -218c0 -149 -148 -222 -294 -222c-178 0 -296 96 -309 252h138 c16 -107 90 -138 176 -138c64 0 145 24 145 101c0 61 -57 86 -134 99zM275 -136v100h106v-106l-44 -89h-65l39 95h-36z" glyph-name="uni0218" horiz-adv-x="651" unicode="Ș"/>
<glyph d="M228 0v308h-172v116h172v185h-223v116h590v-116h-224v-185h171v-116h-171v-308h-143z" glyph-name="Tbar" horiz-adv-x="600" unicode="Ŧ"/>
<glyph d="M228 0v609h-223v116h590v-116h-224v-609h-143zM239 773l-137 113h131l66 -50l69 50h130l-140 -113h-119z" glyph-name="Tcaron" horiz-adv-x="600" unicode="Ť"/>
<glyph d="M228 0v609h-223v116h590v-116h-224v-609h-143zM249 -136v100h106v-106l-44 -89h-65l39 95h-36z" glyph-name="uni0162" horiz-adv-x="600" unicode="Ţ"/>
<glyph d="M228 0v609h-223v116h590v-116h-224v-609h-143zM249 -136v100h106v-106l-44 -89h-65l39 95h-36z" glyph-name="uni021A" horiz-adv-x="600" unicode="Ț"/>
<glyph d="M54 725h143v-419c0 -128 26 -205 158 -205s156 77 156 205v419h143v-418c0 -239 -87 -320 -299 -320s-301 81 -301 320v418zM427 886h97c-8 -83 -67 -117 -171 -117c-100 0 -161 34 -168 117h97c4 -32 25 -46 72 -46s69 14 73 46z" glyph-name="Ubreve" horiz-adv-x="708" unicode="Ŭ"/>
<glyph d="M54 725h143v-419c0 -128 26 -205 158 -205s156 77 156 205v419h143v-418c0 -239 -87 -320 -299 -320s-301 81 -301 320v418zM475 886l-159 -113h-113l103 113h169zM665 886l-160 -113h-113l104 113h169z" glyph-name="Uhungarumlaut" horiz-adv-x="708" unicode="Ű"/>
<glyph d="M54 725h143v-419c0 -128 26 -205 158 -205s156 77 156 205v419h143v-418c0 -239 -87 -320 -299 -320s-301 81 -301 320v418zM511 782h-313v95h313v-95z" glyph-name="Umacron" horiz-adv-x="708" unicode="Ū"/>
<glyph d="M371 -188c-72 0 -138 25 -138 92c0 35 21 63 53 86c-162 19 -232 105 -232 317v418h143v-419c0 -128 26 -205 158 -205s156 77 156 205v419h143v-418c0 -210 -64 -291 -216 -315c-48 -8 -86 -40 -86 -64c0 -27 21 -34 45 -34c20 0 33 4 48 8v-82c-27 -7 -47 -8 -74 -8z " glyph-name="Uogonek" horiz-adv-x="708" unicode="Ų"/>
<glyph d="M54 725h143v-419c0 -128 26 -205 158 -205s156 77 156 205v419h143v-418c0 -239 -87 -320 -299 -320s-301 81 -301 320v418zM354 935c51 0 91 -34 91 -85c0 -49 -40 -85 -91 -85s-90 36 -90 85c0 51 41 85 90 85zM354 893c-23 0 -43 -18 -43 -43s20 -42 43 -42 s43 17 43 42s-20 43 -43 43z" glyph-name="Uring" horiz-adv-x="708" unicode="Ů"/>
<glyph d="M54 725h143v-419c0 -128 26 -205 158 -205s156 77 156 205v419h143v-418c0 -239 -87 -320 -299 -320s-301 81 -301 320v418zM422 853c29 0 43 15 50 40h93c-19 -109 -94 -127 -136 -127c-63 0 -85 41 -124 41c-29 0 -43 -14 -48 -41h-94c19 109 96 127 137 127 c62 0 79 -40 122 -40z" glyph-name="Utilde" horiz-adv-x="708" unicode="Ũ"/>
<glyph d="M54 725h143v-419c0 -128 26 -205 158 -205s156 77 156 205v419h143v-418c0 -239 -87 -320 -299 -320s-301 81 -301 320v418zM297 -56h115v-119h-115v119z" glyph-name="uni1EE4" horiz-adv-x="708" unicode="Ụ"/>
<glyph d="M529 725l111 -531l99 531h146l-161 -725h-169l-110 540l-110 -540h-169l-161 725h148l108 -528l101 528h167zM656 886l-159 -113h-113l103 113h169z" glyph-name="Wacute" horiz-adv-x="890" unicode="Ẃ"/>
<glyph d="M529 725l111 -531l99 531h146l-161 -725h-169l-110 540l-110 -540h-169l-161 725h148l108 -528l101 528h167zM501 875l137 -113h-131l-66 49l-69 -49h-130l140 113h119z" glyph-name="Wcircumflex" horiz-adv-x="890" unicode="Ŵ"/>
<glyph d="M529 725l111 -531l99 531h146l-161 -725h-169l-110 540l-110 -540h-169l-161 725h148l108 -528l101 528h167zM263 886h115v-113h-115v113zM503 886h115v-113h-115v113z" glyph-name="Wdieresis" horiz-adv-x="890" unicode="Ẅ"/>
<glyph d="M529 725l111 -531l99 531h146l-161 -725h-169l-110 540l-110 -540h-169l-161 725h148l108 -528l101 528h167zM384 773l-159 113h169l103 -113h-113z" glyph-name="Wgrave" horiz-adv-x="890" unicode="Ẁ"/>
<glyph d="M-11 725h167l169 -303l172 303h163l-267 -445v-280h-143v282zM385 875l137 -113h-131l-66 49l-69 -49h-130l140 113h119z" glyph-name="Ycircumflex" horiz-adv-x="650" unicode="Ŷ"/>
<glyph d="M-11 725h167l169 -303l172 303h163l-267 -445v-280h-143v282zM147 886h115v-113h-115v113zM387 886h115v-113h-115v113z" glyph-name="Ydieresis" horiz-adv-x="650" unicode="Ÿ"/>
<glyph d="M-11 725h167l169 -303l172 303h163l-267 -445v-280h-143v282zM278 773l-159 113h169l103 -113h-113z" glyph-name="Ygrave" horiz-adv-x="650" unicode="Ỳ"/>
<glyph d="M-11 725h167l169 -303l172 303h163l-267 -445v-280h-143v282zM481 782h-313v95h313v-95z" glyph-name="uni0232" horiz-adv-x="650" unicode="Ȳ"/>
<glyph d="M587 725v-112l-390 -491h401v-122h-579v112l392 492h-361v121h537zM524 886l-159 -113h-113l103 113h169z" glyph-name="Zacute" horiz-adv-x="622" unicode="Ź"/>
<glyph d="M587 725v-112l-390 -491h401v-122h-579v112l392 492h-361v121h537zM267 773l-137 113h131l66 -50l69 50h130l-140 -113h-119z" glyph-name="Zcaron" horiz-adv-x="622" unicode="Ž"/>
<glyph d="M587 725v-112l-390 -491h401v-122h-579v112l392 492h-361v121h537zM257 886h143v-113h-143v113z" glyph-name="Zdotaccent" horiz-adv-x="622" unicode="Ż"/>
<glyph d="M49 424h539c-8 128 -94 189 -200 189c-72 0 -151 -32 -175 -109h-153c43 145 179 223 330 223c216 0 350 -138 350 -367c0 -228 -134 -373 -350 -373c-250 0 -368 200 -341 437zM390 101c109 0 191 68 199 207h-392c3 -137 89 -207 193 -207z" glyph-name="uni018F" horiz-adv-x="780" unicode="Ə"/>
<glyph d="M398 206v40c-155 -16 -216 -34 -216 -94c0 -39 30 -71 93 -71c87 0 123 46 123 125zM410 67c-39 -56 -95 -80 -176 -80c-103 0 -194 60 -194 158c0 127 142 165 354 189v9c0 83 -45 112 -101 112c-53 0 -97 -27 -100 -87h-129c11 106 97 184 236 184 c127 0 232 -56 232 -237c0 -16 -2 -89 -2 -137c0 -85 5 -133 16 -178h-127c-4 17 -6 40 -9 67zM363 725h97c-8 -71 -56 -124 -171 -124c-111 0 -163 53 -168 124h97c4 -32 25 -52 72 -52s69 20 73 52z" glyph-name="abreve" horiz-adv-x="585" unicode="ă"/>
<glyph d="M398 206v40c-155 -16 -216 -34 -216 -94c0 -39 30 -71 93 -71c87 0 123 46 123 125zM410 67c-39 -56 -95 -80 -176 -80c-103 0 -194 60 -194 158c0 127 142 165 354 189v9c0 83 -45 112 -101 112c-53 0 -97 -27 -100 -87h-129c11 106 97 184 236 184 c127 0 232 -56 232 -237c0 -16 -2 -89 -2 -137c0 -85 5 -133 16 -178h-127c-4 17 -6 40 -9 67zM447 622h-313v95h313v-95z" glyph-name="amacron" horiz-adv-x="585" unicode="ā"/>
<glyph d="M398 206v40c-155 -16 -216 -34 -216 -94c0 -39 30 -71 93 -71c87 0 123 46 123 125zM419 0c-4 17 -6 40 -9 67c-39 -56 -95 -80 -176 -80c-103 0 -194 60 -194 158c0 127 142 165 354 189v9c0 83 -44 112 -100 112c-53 0 -97 -27 -100 -87h-129c11 106 97 184 236 184 c128 0 231 -56 231 -237c0 -16 -2 -89 -2 -137c0 -85 5 -133 16 -178c-52 -25 -85 -42 -85 -73c0 -23 21 -33 45 -33c20 0 28 2 43 6v-82c-27 -7 -42 -6 -69 -6c-72 0 -138 25 -138 91c0 40 33 76 77 97z" glyph-name="aogonek" horiz-adv-x="585" unicode="ą"/>
<glyph d="M297 550c113 0 225 -63 244 -196h-132c-11 52 -59 89 -112 89c-72 0 -129 -61 -129 -173c0 -113 54 -176 130 -176c48 0 97 25 116 89h132c-32 -147 -143 -196 -255 -196c-161 0 -264 118 -264 281c0 164 109 282 270 282zM484 725l-150 -116h-102l95 116h157z" glyph-name="cacute" horiz-adv-x="566" unicode="ć"/>
<glyph d="M297 550c113 0 225 -63 244 -196h-132c-11 52 -59 89 -112 89c-72 0 -129 -61 -129 -173c0 -113 54 -176 130 -176c48 0 97 25 116 89h132c-32 -147 -143 -196 -255 -196c-161 0 -264 118 -264 281c0 164 109 282 270 282zM250 609l-147 116h121l76 -44l76 44h121 l-148 -116h-99z" glyph-name="ccaron" horiz-adv-x="566" unicode="č"/>
<glyph d="M297 550c113 0 225 -63 244 -196h-132c-11 52 -59 89 -112 89c-72 0 -129 -61 -129 -173c0 -113 54 -176 130 -176c48 0 97 25 116 89h132c-32 -147 -143 -196 -255 -196c-161 0 -264 118 -264 281c0 164 109 282 270 282zM337 725l148 -116h-121l-76 44l-76 -44h-121 l147 116h99z" glyph-name="ccircumflex" horiz-adv-x="566" unicode="ĉ"/>
<glyph d="M297 550c113 0 225 -63 244 -196h-132c-11 52 -59 89 -112 89c-72 0 -129 -61 -129 -173c0 -113 54 -176 130 -176c48 0 97 25 116 89h132c-32 -147 -143 -196 -255 -196c-161 0 -264 118 -264 281c0 164 109 282 270 282zM226 725h115v-116h-115v116z" glyph-name="cdotaccent" horiz-adv-x="566" unicode="ċ"/>
<glyph d="M742 725l-70 -170h-90l30 170h130zM554 0h-138v68c-35 -60 -99 -81 -155 -81c-128 0 -234 110 -234 282c0 169 104 281 234 281c68 0 126 -30 155 -81v256h138v-725zM295 93c76 0 126 65 126 176c0 108 -50 175 -126 175c-72 0 -123 -71 -123 -176s51 -175 123 -175z" glyph-name="dcaron" horiz-adv-x="732" unicode="ď"/>
<glyph d="M554 0h-138v68c-35 -60 -99 -81 -155 -81c-128 0 -234 110 -234 282c0 169 104 281 234 281c68 0 126 -30 155 -81v105h-140v81h140v70h138v-70h69v-81h-69v-574zM295 93c76 0 126 65 126 176c0 108 -50 175 -126 175c-72 0 -123 -71 -123 -176s51 -175 123 -175z" glyph-name="dcroat" horiz-adv-x="623" unicode="đ"/>
<glyph d="M561 231h-397c8 -92 70 -137 136 -137c43 0 85 15 113 62h142c-29 -80 -107 -169 -254 -169c-173 0 -274 129 -274 284c0 160 111 279 270 279c166 0 269 -129 264 -319zM296 449c-52 0 -119 -32 -130 -123h255c-3 91 -67 123 -125 123zM369 725h97 c-8 -71 -56 -124 -171 -124c-111 0 -163 53 -168 124h97c4 -32 25 -52 72 -52s69 20 73 52z" glyph-name="ebreve" horiz-adv-x="588" unicode="ĕ"/>
<glyph d="M561 231h-397c8 -92 70 -137 136 -137c43 0 85 15 113 62h142c-29 -80 -107 -169 -254 -169c-173 0 -274 129 -274 284c0 160 111 279 270 279c166 0 269 -129 264 -319zM296 449c-52 0 -119 -32 -130 -123h255c-3 91 -67 123 -125 123zM241 609l-147 116h121l76 -44 l76 44h121l-148 -116h-99z" glyph-name="ecaron" horiz-adv-x="588" unicode="ě"/>
<glyph d="M561 231h-397c8 -92 70 -137 136 -137c43 0 85 15 113 62h142c-29 -80 -107 -169 -254 -169c-173 0 -274 129 -274 284c0 160 111 279 270 279c166 0 269 -129 264 -319zM296 449c-52 0 -119 -32 -130 -123h255c-3 91 -67 123 -125 123zM448 622h-313v95h313v-95z" glyph-name="emacron" horiz-adv-x="588" unicode="ē"/>
<glyph d="M296 449c-50 0 -119 -32 -130 -123h255c-3 91 -67 123 -125 123zM450 -100v-82c-27 -7 -42 -6 -69 -6c-72 0 -138 25 -138 91c0 33 18 61 49 84c-168 5 -265 131 -265 284c0 160 111 279 270 279c166 0 269 -129 264 -319h-397c8 -92 71 -137 136 -137c43 0 85 15 113 62 h142c-17 -47 -51 -94 -104 -129c-52 -33 -89 -69 -89 -100c0 -23 21 -33 45 -33c20 0 28 2 43 6z" glyph-name="eogonek" horiz-adv-x="588" unicode="ę"/>
<glyph d="M561 231h-397c8 -92 70 -137 136 -137c43 0 85 15 113 62h142c-29 -80 -107 -169 -254 -169c-173 0 -274 129 -274 284c0 160 111 279 270 279c166 0 269 -129 264 -319zM296 449c-52 0 -119 -32 -130 -123h255c-3 91 -67 123 -125 123zM234 725h115v-116h-115v116z" glyph-name="edotaccent" horiz-adv-x="588" unicode="ė"/>
<glyph d="M296 124c77 0 124 65 124 161c0 95 -47 160 -124 160c-71 0 -124 -71 -124 -161c0 -89 53 -160 124 -160zM415 538h137v-484c0 -176 -99 -242 -264 -242c-115 0 -216 42 -235 167h131c12 -44 49 -66 111 -66c72 0 120 34 120 115v72c-35 -59 -98 -81 -154 -81 c-132 0 -234 109 -234 266c0 153 99 265 234 265c68 0 130 -35 154 -82v70zM361 725h97c-8 -71 -56 -124 -171 -124c-111 0 -163 53 -168 124h97c4 -32 25 -52 72 -52s69 20 73 52z" glyph-name="gbreve" horiz-adv-x="615" unicode="ğ"/>
<glyph d="M296 124c77 0 124 65 124 161c0 95 -47 160 -124 160c-71 0 -124 -71 -124 -161c0 -89 53 -160 124 -160zM415 538h137v-484c0 -176 -99 -242 -264 -242c-115 0 -216 42 -235 167h131c12 -44 49 -66 111 -66c72 0 120 34 120 115v72c-35 -59 -98 -81 -154 -81 c-132 0 -234 109 -234 266c0 153 99 265 234 265c68 0 130 -35 154 -82v70zM337 725l148 -116h-121l-76 44l-76 -44h-121l147 116h99z" glyph-name="gcircumflex" horiz-adv-x="615" unicode="ĝ"/>
<glyph d="M349 707v-100h-105v106l44 90h64l-38 -96h35zM296 124c77 0 124 65 124 161c0 95 -47 160 -124 160c-71 0 -124 -71 -124 -161c0 -89 53 -160 124 -160zM415 538h137v-484c0 -176 -99 -242 -264 -242c-115 0 -216 42 -235 167h131c12 -44 49 -66 111 -66 c72 0 120 34 120 115v72c-35 -59 -98 -81 -154 -81c-132 0 -234 109 -234 266c0 153 99 265 234 265c68 0 130 -35 154 -82v70z" glyph-name="uni0123" horiz-adv-x="615" unicode="ģ"/>
<glyph d="M296 124c77 0 124 65 124 161c0 95 -47 160 -124 160c-71 0 -124 -71 -124 -161c0 -89 53 -160 124 -160zM415 538h137v-484c0 -176 -99 -242 -264 -242c-115 0 -216 42 -235 167h131c12 -44 49 -66 111 -66c72 0 120 34 120 115v72c-35 -59 -98 -81 -154 -81 c-132 0 -234 109 -234 266c0 153 99 265 234 265c68 0 130 -35 154 -82v70zM228 725h115v-116h-115v116z" glyph-name="gdotaccent" horiz-adv-x="615" unicode="ġ"/>
<glyph d="M227 725v-70h126v-81h-126v-107c31 55 89 83 156 83c129 0 186 -78 186 -211v-339h-138v309c0 69 -15 130 -93 130c-91 0 -111 -74 -111 -159v-280h-138v574h-84v81h84v70h138z" glyph-name="hbar" horiz-adv-x="623" unicode="ħ"/>
<glyph d="M200 725v-258c31 55 89 83 156 83c129 0 186 -78 186 -211v-339h-138v309c0 69 -15 130 -93 130c-91 0 -111 -74 -111 -159v-280h-138v725h138zM193 875l137 -113h-131l-66 49l-69 -49h-130l140 113h119z" glyph-name="hcircumflex" horiz-adv-x="596" unicode="ĥ"/>
<glyph d="M62 538h138v-538h-138v538z" glyph-name="dotlessi" horiz-adv-x="262" unicode="ı"/>
<glyph d="M62 538h138v-538h-138v538zM205 725h97c-8 -71 -56 -124 -171 -124c-111 0 -163 53 -168 124h97c4 -32 25 -52 72 -52s69 20 73 52z" glyph-name="ibreve" horiz-adv-x="262" unicode="ĭ"/>
<glyph d="M62 538h138v-538h-138v538zM289 622h-313v95h313v-95z" glyph-name="imacron" horiz-adv-x="262" unicode="ī"/>
<glyph d="M62 0v538h138v-538c-51 -25 -88 -42 -88 -73c0 -23 21 -33 45 -33c20 0 28 2 43 6v-82c-27 -7 -42 -6 -69 -6c-72 0 -138 25 -138 91c0 40 28 74 69 97zM62 725h138v-128h-138v128z" glyph-name="iogonek" horiz-adv-x="262" unicode="į"/>
<glyph d="M62 538h138v-538h-138v538zM191 692c28 0 45 15 50 44h95c-19 -118 -90 -127 -133 -127c-63 0 -91 44 -131 44c-27 0 -44 -15 -49 -44h-95c19 117 90 127 133 127c64 0 84 -44 130 -44z" glyph-name="itilde" horiz-adv-x="262" unicode="ĩ"/>
<glyph d="M62 725h138v-128h-138v128zM62 538h138v-538h-138v538zM74 -56h115v-119h-115v119z" glyph-name="uni1ECB" horiz-adv-x="262" unicode="ị"/>
<glyph d="M62 6v532h138v-534c0 -149 -38 -179 -174 -179h-36v103h18c52 0 54 19 54 78z" glyph-name="uni0237" horiz-adv-x="262" unicode="ȷ"/>
<glyph d="M62 6v532h138v-534c0 -149 -38 -179 -174 -179h-36v103h18c52 0 54 19 54 78zM181 725l148 -116h-121l-76 44l-76 -44h-121l147 116h99z" glyph-name="jcircumflex" horiz-adv-x="262" unicode="ĵ"/>
<glyph d="M62 725h138v-403l196 216h155l-193 -206l204 -332h-155l-141 233l-66 -71v-162h-138v725zM243 -136v100h106v-106l-44 -89h-65l39 95h-36z" glyph-name="uni0137" horiz-adv-x="555" unicode="ķ"/>
<glyph d="M200 725v-725h-138v725h138zM347 886l-159 -113h-113l103 113h169z" glyph-name="lacute" horiz-adv-x="262" unicode="ĺ"/>
<glyph d="M392 725l-70 -170h-90l30 170h130zM200 725v-725h-138v725h138z" glyph-name="lcaron" horiz-adv-x="382" unicode="ľ"/>
<glyph d="M200 725v-725h-138v725h138zM80 -136v100h106v-106l-44 -89h-65l39 95h-36z" glyph-name="uni013C" horiz-adv-x="262" unicode="ļ"/>
<glyph d="M200 725v-725h-138v725h138zM262 479h115v-116h-115v116z" glyph-name="ldot" horiz-adv-x="377" unicode="ŀ"/>
<glyph d="M221 725v-244l73 42v-112l-73 -42v-369h-138v291l-73 -41v112l73 41v322h138z" glyph-name="lslash" horiz-adv-x="304" unicode="ł"/>
<glyph d="M542 339v-345c0 -151 -61 -170 -185 -170h-51v101h24c64 0 74 13 74 71v313c0 69 -15 130 -93 130c-91 0 -111 -74 -111 -159v-280h-138v538h138v-71c31 55 89 83 156 83c129 0 186 -78 186 -211z" glyph-name="eng" horiz-adv-x="596" unicode="ŋ"/>
<glyph d="M200 538v-71c31 55 89 83 156 83c129 0 186 -78 186 -211v-339h-138v309c0 69 -15 130 -93 130c-91 0 -111 -74 -111 -159v-280h-138v538h138zM503 725l-150 -116h-102l95 116h157z" glyph-name="nacute" horiz-adv-x="596" unicode="ń"/>
<glyph d="M200 538v-71c31 55 89 83 156 83c129 0 186 -78 186 -211v-339h-138v309c0 69 -15 130 -93 130c-91 0 -111 -74 -111 -159v-280h-138v538h138zM252 609l-147 116h121l76 -44l76 44h121l-148 -116h-99z" glyph-name="ncaron" horiz-adv-x="596" unicode="ň"/>
<glyph d="M200 538v-71c31 55 89 83 156 83c129 0 186 -78 186 -211v-339h-138v309c0 69 -15 130 -93 130c-91 0 -111 -74 -111 -159v-280h-138v538h138zM241 -136v100h106v-106l-44 -89h-65l39 95h-36z" glyph-name="uni0146" horiz-adv-x="596" unicode="ņ"/>
<glyph d="M296 -13c-136 0 -270 93 -270 281c0 189 134 282 270 282c77 0 146 -30 193 -91c47 57 114 91 199 91c166 0 269 -129 264 -319h-397c8 -92 70 -137 136 -137c43 0 85 15 113 62h142c-29 -80 -107 -169 -254 -169c-91 0 -158 34 -202 90c-47 -61 -117 -90 -194 -90z M296 442c-76 0 -130 -61 -130 -174s54 -173 130 -173s130 60 130 173s-54 174 -130 174zM687 449c-52 0 -119 -32 -130 -123h255c-3 91 -67 123 -125 123z" glyph-name="oe" horiz-adv-x="979" unicode="œ"/>
<glyph d="M296 442c-76 0 -130 -61 -130 -174s54 -173 130 -173s130 60 130 173s-54 174 -130 174zM296 -13c-136 0 -270 93 -270 281c0 189 134 282 270 282s270 -93 270 -282c0 -188 -134 -281 -270 -281zM365 725h97c-8 -71 -56 -124 -171 -124c-111 0 -163 53 -168 124h97 c4 -32 25 -52 72 -52s69 20 73 52z" glyph-name="obreve" horiz-adv-x="592" unicode="ŏ"/>
<glyph d="M296 442c-76 0 -130 -61 -130 -174s54 -173 130 -173s130 60 130 173s-54 174 -130 174zM296 -13c-136 0 -270 93 -270 281c0 189 134 282 270 282s270 -93 270 -282c0 -188 -134 -281 -270 -281zM396 725l-150 -116h-102l95 116h157zM589 725l-149 -116h-102l94 116h157 z" glyph-name="ohungarumlaut" horiz-adv-x="592" unicode="ő"/>
<glyph d="M296 442c-76 0 -130 -61 -130 -174s54 -173 130 -173s130 60 130 173s-54 174 -130 174zM296 -13c-136 0 -270 93 -270 281c0 189 134 282 270 282s270 -93 270 -282c0 -188 -134 -281 -270 -281zM449 622h-313v95h313v-95z" glyph-name="omacron" horiz-adv-x="592" unicode="ō"/>
<glyph d="M296 442c-76 0 -130 -61 -130 -174s54 -173 130 -173s130 60 130 173s-54 174 -130 174zM296 -13c-136 0 -270 93 -270 281c0 189 134 282 270 282s270 -93 270 -282c0 -188 -134 -281 -270 -281zM235 -56h115v-119h-115v119z" glyph-name="uni1ECD" horiz-adv-x="592" unicode="ọ"/>
<glyph d="M370 535v-130c-20 3 -37 3 -57 3c-68 0 -113 -25 -113 -126v-282h-138v538h136v-94c31 67 79 93 142 93c9 0 21 -1 30 -2zM417 725l-150 -116h-102l95 116h157z" glyph-name="racute" horiz-adv-x="379" unicode="ŕ"/>
<glyph d="M370 535v-130c-20 3 -37 3 -57 3c-68 0 -113 -25 -113 -126v-282h-138v538h136v-94c31 67 79 93 142 93c9 0 21 -1 30 -2zM167 609l-147 116h121l76 -44l76 44h121l-148 -116h-99z" glyph-name="rcaron" horiz-adv-x="379" unicode="ř"/>
<glyph d="M370 535v-130c-20 3 -37 3 -57 3c-68 0 -113 -25 -113 -126v-282h-138v538h136v-94c31 67 79 93 142 93c9 0 21 -1 30 -2zM78 -136v100h106v-106l-44 -89h-65l39 95h-36z" glyph-name="uni0157" horiz-adv-x="379" unicode="ŗ"/>
<glyph d="M494 376h-129c-11 45 -51 77 -115 77c-51 0 -87 -19 -87 -52c0 -29 21 -51 72 -62l72 -16c107 -24 198 -51 198 -162c0 -108 -111 -174 -233 -174c-132 0 -232 68 -245 191h133c8 -52 44 -91 116 -91c60 0 97 22 97 61c0 40 -41 55 -88 66l-80 17 c-101 21 -168 63 -168 161c0 96 104 160 220 160c112 0 218 -52 237 -176zM467 725l-150 -116h-102l95 116h157z" glyph-name="sacute" horiz-adv-x="529" unicode="ś"/>
<glyph d="M494 376h-129c-11 45 -51 77 -115 77c-51 0 -87 -19 -87 -52c0 -29 21 -51 72 -62l72 -16c107 -24 198 -51 198 -162c0 -108 -111 -174 -233 -174c-132 0 -232 68 -245 191h133c8 -52 44 -91 116 -91c60 0 97 22 97 61c0 40 -41 55 -88 66l-80 17 c-101 21 -168 63 -168 161c0 96 104 160 220 160c112 0 218 -52 237 -176zM216 609l-147 116h121l76 -44l76 44h121l-148 -116h-99z" glyph-name="scaron" horiz-adv-x="529" unicode="š"/>
<glyph d="M494 376h-129c-11 45 -51 77 -115 77c-51 0 -87 -19 -87 -52c0 -29 21 -51 72 -62l72 -16c107 -24 198 -51 198 -162c0 -108 -111 -174 -233 -174c-132 0 -232 68 -245 191h133c8 -52 44 -91 116 -91c60 0 97 22 97 61c0 40 -41 55 -88 66l-80 17 c-101 21 -168 63 -168 161c0 96 104 160 220 160c112 0 218 -52 237 -176zM162 -176l17 45c17 -9 39 -14 58 -14c29 0 56 6 56 29c0 19 -16 28 -40 28c-11 0 -27 -2 -38 -9l-30 17l51 83h53l-32 -51c12 3 21 3 40 3c43 -1 77 -28 77 -68c0 -52 -57 -82 -116 -82 c-31 0 -63 3 -96 19z" glyph-name="scedilla" horiz-adv-x="529" unicode="ş"/>
<glyph d="M494 376h-129c-11 45 -51 77 -115 77c-51 0 -87 -19 -87 -52c0 -29 21 -51 72 -62l72 -16c107 -24 198 -51 198 -162c0 -108 -111 -174 -233 -174c-132 0 -232 68 -245 191h133c8 -52 44 -91 116 -91c60 0 97 22 97 61c0 40 -41 55 -88 66l-80 17 c-101 21 -168 63 -168 161c0 96 104 160 220 160c112 0 218 -52 237 -176zM315 725l148 -116h-121l-76 44l-76 -44h-121l147 116h99z" glyph-name="scircumflex" horiz-adv-x="529" unicode="ŝ"/>
</font>
</defs>
</svg>
