<svg xmlns="http://www.w3.org/2000/svg" width="35" height="87" viewBox="0 0 35 87">
    <path d="M29.383 42.459l-3.728 30.08c.671-.185 1.406-.288 2.207-.288 9.46 0 9.402 14.249.162 14.249-4.002 0-6.347-2.23-7.135-4.922l-3.716-.124-.753-6.222h3.343l3.616-36.828 3.242.031.544-3.235-10.163-.19.334 3.337 3.16.03-3.892 33.866-6.961-2.594 1.633-27.614S4.57 36.347 5.7 31.387c.993-4.36 2.354-11.247 2.354-11.247 5.226-5.137 17.746-4.297 23.028-.695 0 0 2.23 7.436 3.287 12.375 1.17 5.466-4.985 10.639-4.985 10.639zM27.888 6.531c0 9.578-11.733 8.735-12.763.638-1.072-8.417 12.763-10.093 12.763-.638zm-20.57 65.72c9.462 0 9.403 14.25.163 14.25-10.118 0-9.66-14.25-.162-14.25z"/>
</svg>
