<svg xmlns="http://www.w3.org/2000/svg" width="58" height="58" viewBox="0 0 58 58">
    <path d="M15.602 51.295c-2.863-3.365-1.998-11.078 1.877-13.13 4.023-2.127 11.601-2.998 15.998 1.041.326-.334 1.445-1.306 1.619-1.526-2.384-3.553-9.964-6.235-20.24-3.08L13.36 20.227l8.32 3.779c.916-1.24 6.277-1.696 8.343-1.266l6.733-5.922 2.948 9.87s8.604.556 13.323 4.905c4.71 4.339 6.23 12.884 1.883 19.031-6.666 9.427-31.525 9.82-39.308.67zm4.42-36.02l.006 2.49-5.418.154-.682-2.15 1.98-2.492-1.762-.118-.506-2.516 5.696-.137.79 2.578L18 15.276h2.021zM9.946 20.42l.006 2.49-5.42.153-.68-2.151 1.98-2.49-1.761-.119-.506-2.515 5.695-.137.79 2.577-2.125 2.193 2.021-.001zm-.672-12.1l.21 3.042-8.11.23-1.122-2.48 4.568-5.42L.536 3.53.328.602l8.12-.205L9.552 3.2 5.385 8.426l3.889-.106z"/>
</svg>
