<svg width="64" height="77" viewBox="0 0 64 77" fill="none" xmlns="http://www.w3.org/2000/svg">
<path fill-rule="evenodd" clip-rule="evenodd" d="M7.37672 32.6533C6.58173 37.3665 6.74824 40.6374 7.27327 43.6218C7.32878 43.9373 7.62318 44.1511 7.93808 44.0923C12.4872 43.2436 19.9384 39.3484 20.3554 38.9314C20.8815 38.4053 21.5774 36.917 21.9498 33.3702C21.9741 33.1389 21.9282 32.9059 21.824 32.6979C21.2755 31.6038 19.491 27.9248 19.0295 25.4811C19.0292 25.4794 19.0288 25.4777 19.0285 25.4761C19.0281 25.4739 19.0276 25.4716 19.0272 25.4694C19.0265 25.466 19.0257 25.4625 19.0249 25.4588C18.9781 25.2491 18.2986 22.1329 19.9328 25.168C19.9328 25.168 22.468 31.2093 24.6321 33.2981C24.8595 33.5176 25.1792 33.5966 25.4926 33.5564L44.6994 31.0911C45.0006 31.0524 45.2355 30.7896 45.1372 30.5023C44.9056 29.8255 44.2565 29.2565 43.5963 28.865C41.6152 27.6903 37.8966 27.8529 34.1264 28.0177C32.1815 28.1028 30.2229 28.1884 28.482 28.0914C28.2392 28.0778 28.0318 27.9157 27.9559 27.6846C27.7361 27.0154 27.5155 26.3126 27.2872 25.5856L27.287 25.5848L27.2869 25.5845C26.2009 22.1252 24.9423 18.1156 22.77 14.5435L15.9487 11.7667C10.3347 15.8112 8.22184 27.643 7.37672 32.6533ZM39.1289 29.2777L39.3105 30.6581C39.3369 30.8588 39.5228 30.9989 39.723 30.9691L43.3581 30.4268C43.4152 30.4183 43.4715 30.391 43.4961 30.3388C43.8042 29.6848 41.2703 28.6337 39.6048 28.669C39.292 28.6757 39.0881 28.9675 39.1289 29.2777Z" fill="black"/>
<path d="M6.41087 74.7284L7.32149 55.7759C7.35241 55.1324 7.88316 54.6265 8.52742 54.6265H24.5207C24.854 54.6265 25.1243 54.3563 25.1243 54.0229V52.0912C25.1243 51.7578 24.854 51.4875 24.5207 51.4875H8.40691C7.81346 51.4875 7.31052 51.0724 7.21656 50.4864C6.47467 45.8599 3.36579 26.593 2.36032 22.2979C2.24266 21.7953 1.76317 21.5146 1.31199 21.7654C-0.216156 22.6148 0.0120732 24.8058 0.0120732 24.8058L4.70007 54.4964C4.71373 54.5829 4.71875 54.6572 4.71346 54.7446C4.62162 56.2636 3.67699 71.9917 3.70911 75.7704C3.71312 76.242 4.06284 76.6229 4.52467 76.5275C5.84392 76.2548 6.41087 74.7284 6.41087 74.7284Z" fill="black"/>
<path d="M8.10276 45.9828C8.02974 46.8665 8.81737 48.0309 10.3347 48.9521C11.6868 49.7731 12.709 50.0186 13.0511 50.0387H24.4076C24.738 50.0387 25.007 49.7731 25.0112 49.4428L25.1181 41.0478C25.1217 40.7638 24.9275 40.5152 24.6492 40.4585C23.4954 40.2234 21.6713 39.9477 20.9591 40.1991C20.5431 40.3459 19.7701 40.7902 18.8571 41.315C17.5177 42.085 15.877 43.0281 14.6206 43.4588C13.0318 44.0036 10.003 45.0532 8.44183 45.5951C8.26482 45.6565 8.11819 45.7961 8.10276 45.9828Z" fill="black"/>
<path d="M43.097 32.638L53.6151 31.9221C54.0931 31.8896 54.5067 31.5775 54.669 31.1267L59.7826 16.9284C59.8915 16.6258 60.3114 16.6047 60.4501 16.8948L60.6343 17.2801C60.7022 17.422 60.712 17.5849 60.6616 17.734L55.5849 32.7384C55.419 33.2288 54.9589 33.5588 54.4412 33.5588H43.4756C43.1422 33.5588 42.8719 33.2886 42.8719 32.9552V32.8789C42.8719 32.7519 42.9703 32.6466 43.097 32.638Z" fill="black"/>
<path d="M63.3963 35.068H25.1243C24.7909 35.068 24.5207 35.3382 24.5207 35.6716V36.8789C24.5207 37.2123 24.7909 37.4826 25.1243 37.4826H26.0178C26.3559 37.4826 26.628 37.7602 26.6214 38.0982L25.873 76.1049C25.8663 76.4429 26.1385 76.7205 26.4765 76.7205H61.691C62.0303 76.7205 62.3029 76.4411 62.2945 76.102L61.3591 38.1011C61.3508 37.762 61.6234 37.4826 61.9626 37.4826H63.3963C63.7297 37.4826 64 37.2123 64 36.8789V35.6716C64 35.3382 63.7297 35.068 63.3963 35.068Z" fill="black"/>
<path fill-rule="evenodd" clip-rule="evenodd" d="M22.8908 14.6039C22.8332 14.2374 22.8322 13.1272 23.0409 12.9205C23.6294 12.3379 24.3108 12.3956 24.9938 12.4535C25.7341 12.5163 26.4764 12.5792 27.1043 11.8271C28.3116 10.381 29.9076 6.63818 29.7781 4.46467C29.6485 2.29117 27.5611 0.650786 25.9703 0.184999C24.1291 -0.354093 21.6098 0.273904 20.3507 2.21498C19.3434 3.76785 18.2642 7.7614 17.704 9.87543L15.5261 12.0685L20.6309 15.4667L22.8908 14.6039ZM21.6762 6.62491C21.5607 6.921 21.4587 7.18231 21.3122 7.31985C21.1536 7.46875 20.7916 7.53207 20.3926 7.60184C19.789 7.70739 19.5735 8.17389 19.3775 8.62767C19.0519 9.38142 19.329 10.3888 20.1557 11.094C20.5427 11.4242 20.7923 11.9154 20.9994 12.3229C21.2346 12.7858 21.2863 13.0326 21.5506 12.9205C21.893 12.7754 22.095 12.5547 22.1543 12.1893C22.2136 11.8238 22.3557 11.5088 22.3958 11.4649C22.8113 11.0091 23.72 11.1004 24.6293 11.163C25.3426 11.2122 25.8869 11.1339 26.1988 10.9216C27.0704 10.3285 27.4973 9.06125 28.1305 7.17889C28.6753 5.5596 28.7017 3.56755 27.5872 3.01364C26.4728 2.45973 25.9836 3.05283 25.6702 3.42024C25.5571 3.55284 25.3778 3.83572 25.181 4.14623C24.8325 4.69605 24.4291 5.33252 24.2409 5.37481C24.134 5.39884 23.9933 5.35219 23.8236 5.29593C23.5258 5.19722 23.1388 5.06893 22.6888 5.24099C22.1139 5.50322 21.875 6.11554 21.6762 6.62491Z" fill="black"/>
<path d="M24.9311 3.73803C27.1043 2.96535 28.7342 3.77828 29.2775 4.28133C29.5793 4.51302 30.6659 3.37584 30.4244 1.92706C30.183 0.478272 27.4665 0.417908 25.4141 0.116078C23.7721 -0.125386 21.2488 0.90084 20.4641 2.16852C21.0677 3.09413 22.758 4.51072 24.9311 3.73803Z" fill="black"/>
</svg>
