<svg width="1600" height="900" viewBox="0 0 1600 900" fill="none" xmlns="http://www.w3.org/2000/svg">
<rect width="1600" height="900" fill="#F9E934"/>
<path fill-rule="evenodd" clip-rule="evenodd" d="M596.1 402.461C589.515 441.5 590.894 468.592 595.243 493.311C595.703 495.924 598.141 497.695 600.75 497.208C638.43 490.178 700.146 457.915 703.6 454.461C707.957 450.104 713.721 437.776 716.806 408.399C717.007 406.483 716.628 404.553 715.764 402.831C711.221 393.769 696.441 363.296 692.618 343.055C692.615 343.041 692.612 343.027 692.61 343.014C692.606 342.995 692.602 342.977 692.599 342.959C692.593 342.93 692.586 342.901 692.58 342.871C692.192 341.134 686.564 315.323 700.1 340.461C700.1 340.461 721.099 390.501 739.023 407.802C740.906 409.62 743.554 410.275 746.151 409.942L905.237 389.522C907.731 389.201 909.677 387.025 908.863 384.645C906.945 379.039 901.569 374.326 896.1 371.084C879.691 361.354 848.891 362.7 817.662 364.066C801.553 364.77 785.331 365.479 770.911 364.676C768.9 364.564 767.182 363.22 766.554 361.307C764.733 355.763 762.905 349.943 761.015 343.921L761.013 343.914L761.012 343.912C752.018 315.259 741.592 282.049 723.6 252.461L667.1 229.461C620.6 262.961 603.1 360.961 596.1 402.461ZM859.097 374.501L860.602 385.935C860.82 387.598 862.36 388.759 864.019 388.511L894.127 384.02C894.6 383.949 895.066 383.723 895.27 383.29C897.822 377.874 876.834 369.167 863.039 369.46C860.449 369.515 858.759 371.932 859.097 374.501Z" fill="black"/>
<path d="M588.1 750.961L595.643 593.982C595.899 588.651 600.295 584.461 605.631 584.461H738.1C740.861 584.461 743.1 582.223 743.1 579.461V563.461C743.1 560.7 740.861 558.461 738.1 558.461H604.633C599.717 558.461 595.552 555.023 594.773 550.17C588.628 511.849 562.878 352.265 554.55 316.689C553.576 312.526 549.604 310.201 545.867 312.279C533.21 319.314 535.1 337.461 535.1 337.461L573.93 583.384C574.043 584.1 574.085 584.715 574.041 585.439C573.28 598.021 565.456 728.294 565.722 759.593C565.755 763.499 568.652 766.653 572.477 765.863C583.404 763.604 588.1 750.961 588.1 750.961Z" fill="black"/>
<path d="M602.114 512.867C601.509 520.187 608.033 529.831 620.6 537.461C631.8 544.261 640.267 546.295 643.1 546.461H737.163C739.9 546.461 742.128 544.262 742.163 541.525L743.049 471.991C743.079 469.639 741.47 467.58 739.165 467.11C729.608 465.163 714.5 462.879 708.6 464.961C705.155 466.177 698.752 469.858 691.19 474.205C680.096 480.582 666.507 488.394 656.1 491.961C642.94 496.473 617.853 505.167 604.922 509.655C603.456 510.164 602.241 511.321 602.114 512.867Z" fill="black"/>
<path d="M891.964 402.335L979.084 396.405C983.043 396.136 986.469 393.55 987.813 389.817L1030.17 272.214C1031.07 269.709 1034.55 269.534 1035.7 271.937L1037.22 275.127C1037.79 276.303 1037.87 277.652 1037.45 278.887L995.399 403.166C994.025 407.228 990.214 409.961 985.927 409.961H895.1C892.339 409.961 890.1 407.723 890.1 404.961V404.33C890.1 403.278 890.915 402.406 891.964 402.335Z" fill="black"/>
<path d="M1060.1 422.461H743.1C740.339 422.461 738.1 424.7 738.1 427.461V437.461C738.1 440.223 740.339 442.461 743.1 442.461H750.501C753.301 442.461 755.555 444.761 755.5 447.56L749.301 762.363C749.246 765.162 751.5 767.461 754.3 767.461H1045.98C1048.79 767.461 1051.04 765.147 1050.97 762.338L1043.23 447.585C1043.16 444.776 1045.42 442.461 1048.22 442.461H1060.1C1062.86 442.461 1065.1 440.223 1065.1 437.461V427.461C1065.1 424.7 1062.86 422.461 1060.1 422.461Z" fill="black"/>
<path fill-rule="evenodd" clip-rule="evenodd" d="M724.6 252.961C724.123 249.926 724.115 240.73 725.844 239.018C730.718 234.192 736.361 234.671 742.019 235.15C748.151 235.67 754.299 236.191 759.5 229.961C769.5 217.984 782.719 186.983 781.646 168.98C780.573 150.977 763.283 137.39 750.107 133.532C734.857 129.067 713.99 134.269 703.561 150.346C695.218 163.208 686.279 196.286 681.639 213.796L663.6 231.961L705.882 260.108L724.6 252.961ZM714.54 186.873C713.583 189.325 712.738 191.49 711.525 192.629C710.211 193.862 707.213 194.387 703.908 194.965C698.909 195.839 697.124 199.703 695.5 203.461C692.803 209.705 695.098 218.049 701.946 223.89C705.151 226.624 707.219 230.693 708.934 234.069C710.883 237.902 711.31 239.946 713.5 239.018C716.335 237.817 718.009 235.988 718.5 232.961C718.991 229.935 720.168 227.325 720.5 226.961C723.942 223.186 731.468 223.942 739 224.461C744.908 224.869 749.416 224.22 752 222.461C759.219 217.549 762.755 207.053 768 191.461C772.512 178.049 772.73 161.549 763.5 156.961C754.27 152.374 750.218 157.286 747.622 160.329C746.685 161.428 745.2 163.771 743.57 166.342C740.683 170.897 737.342 176.168 735.783 176.519C734.898 176.718 733.732 176.331 732.326 175.865C729.86 175.048 726.655 173.985 722.927 175.41C718.165 177.582 716.186 182.654 714.54 186.873Z" fill="black"/>
<path d="M741.5 162.961C759.5 156.561 773 163.295 777.5 167.461C780 169.38 789 159.961 787 147.961C785 135.961 762.5 135.461 745.5 132.961C731.9 130.961 711 139.461 704.5 149.961C709.5 157.628 723.5 169.361 741.5 162.961Z" fill="black"/>
</svg>
