<svg xmlns="http://www.w3.org/2000/svg" width="30" height="30" viewBox="0 0 30 30">
    <g fill="#FFF">
        <path d="M10.386 22.362v-2.646h8.766v2.646h1.962v-4.464h-1.638V7.764h-8.604v5.382c0 2.268-.432 3.852-1.296 4.752H8.424v4.464h1.962zm7.11-4.464h-5.544c.6-1.044.9-2.634.9-4.77V9.582h4.644v8.316z"/>
        <path d="M15 0c8.284 0 15 6.716 15 15 0 8.284-6.716 15-15 15-8.284 0-15-6.716-15-15C0 6.716 6.716 0 15 0zm0 1.875C7.751 1.875 1.875 7.751 1.875 15S7.751 28.125 15 28.125 28.125 22.249 28.125 15 22.249 1.875 15 1.875z"/>
    </g>
</svg>
